<?xml version="1.0" encoding="utf-8"?>
<!-- Generator: Adobe Illustrator 22.0.1, SVG Export Plug-In . SVG Version: 6.00 Build 0)  -->
<svg version="1.1" id="레이어_1" xmlns="http://www.w3.org/2000/svg" xmlns:xlink="http://www.w3.org/1999/xlink" x="0px"
	 y="0px" viewBox="0 0 183.5 55" style="enable-background:new 0 0 183.5 55;" xml:space="preserve">
<style type="text/css">
	.st0{enable-background:new    ;}
	.st1{fill:#8A6161;}
</style>
<title>calendar_tabtitle</title>
<g class="st0">
	<path class="st1" d="M28.7,37c-3.9,4-8.5,6-14,6c-3.9,0-7.1-1.2-9.6-3.7c-2.5-2.4-3.7-5.6-3.7-9.4S2.3,22.4,4.1,19
		c1.8-3.5,4.2-6.2,7.1-8.3s5.8-3.1,8.6-3.1c2.4,0,4.3,0.7,5.8,2.1s2.2,3.3,2.2,5.5c0,2.9-0.9,5.5-2.7,7.7c-1.8,2.2-3.9,3.2-6.3,3.2
		c-1.3,0-2.3-0.3-3.1-1c-0.8-0.7-1.2-1.5-1.2-2.5c0-0.9,0.3-1.7,1-2.4c0.5,1,1.2,1.4,2.1,1.4c1.3,0,2.5-0.8,3.6-2.4s1.7-3.4,1.7-5.3
		c0-1.4-0.3-2.4-0.9-3.2c-0.6-0.8-1.5-1.2-2.5-1.2c-1.5,0-3.1,0.9-4.8,2.8s-3.1,4.3-4.3,7.3c-1.1,3-1.7,5.8-1.7,8.4
		c0,3.4,1,6.2,2.9,8.4s4.4,3.3,7.4,3.3c1.9,0,3.6-0.4,5.1-1.3s3.1-2.2,4.7-4.1V37H28.7z"/>
	<path class="st1" d="M54.8,37c-2.6,2.5-4.5,4.1-5.6,4.8S47,43,45.9,43c-2.6,0-3.8-2.3-3.6-6.8c-1.6,2.3-3.1,4-4.5,5.2
		c-1.4,1-2.8,1.6-4.3,1.6c-1.4,0-2.6-0.7-3.6-2s-1.5-3-1.5-4.9c0-2.4,0.7-4.8,2-7s3.1-4,5.2-5.4s4-2.1,5.6-2.1c2,0,3.5,0.9,4.3,2.8
		l5-2.8h1.4l-2.2,7.2c-1.1,3.6-1.7,6.1-1.7,7.4c0,1.4,0.5,2.1,1.5,2.1c0.6,0,1.3-0.3,2.1-1s1.8-1.7,3.2-3.1
		C54.8,34.2,54.8,37,54.8,37z M36.9,38.3c1.6,0,3.2-1.4,4.6-4.2c1.4-2.8,2.2-5.3,2.2-7.7c0-0.9-0.2-1.6-0.6-2.1
		c-0.4-0.5-1-0.8-1.6-0.8c-1.6,0-3.2,1.4-4.6,4.2c-1.5,2.8-2.2,5.3-2.2,7.6c0,0.9,0.2,1.6,0.6,2.1C35.7,38.1,36.2,38.3,36.9,38.3z"
		/>
	<path class="st1" d="M70.9,37c-2.2,2-4.2,3.5-5.8,4.5c-1.7,1-3.3,1.5-4.8,1.5c-1.7,0-3.1-0.7-4.2-2c-1.1-1.4-1.6-3.2-1.6-5.4
		c0-3.4,0.7-7.5,2.2-12.3C58.2,18.4,60,14,62.1,10l6.2-2.3c0.2-0.1,0.3-0.1,0.4-0.1c0.5,0,0.9,0.3,1.2,1c0.3,0.7,0.5,1.6,0.5,2.8
		c0,3.3-0.8,6.5-2.3,9.6s-3.9,6.4-7.2,10c-0.1,1.7-0.2,2.9-0.2,3.5c0,1.4,0.3,2.5,0.8,3.4c0.5,0.8,1.2,1.2,2.1,1.2s1.8-0.3,2.8-1
		c1-0.6,2.5-2,4.5-4L70.9,37L70.9,37z M61.5,27.5c2.1-2.3,3.7-4.9,5-7.7c1.3-2.9,1.9-5.3,1.9-7.4c0-0.6-0.1-1.1-0.3-1.5
		c-0.2-0.4-0.4-0.5-0.7-0.5c-0.6,0-1.5,1.5-2.6,4.5S62.7,22.1,61.5,27.5z"/>
	<path class="st1" d="M89.2,37c-2.1,2-3.9,3.5-5.6,4.5c-1.6,1-3.5,1.5-5.4,1.5c-2.2,0-4-0.7-5.4-2.1c-1.4-1.4-2-3.3-2-5.6
		c0-3.5,1.2-6.6,3.6-9.4s5-4.2,8-4.2c1.5,0,2.7,0.4,3.6,1.2c0.9,0.8,1.4,1.8,1.4,3.1c0,3.4-3.6,6.1-10.7,8.2
		c0.7,3.2,2.4,4.8,5.1,4.8c1.1,0,2.1-0.3,3.1-0.9c1-0.6,2.4-1.9,4.4-3.8L89.2,37L89.2,37z M76.4,32.5c4.2-1.2,6.3-3.3,6.3-6.5
		c0-1.6-0.6-2.3-1.7-2.3s-2.1,0.8-3.1,2.5C76.9,27.7,76.4,29.9,76.4,32.5z"/>
	<path class="st1" d="M113.1,37c-3.8,4-7,6-9.7,6c-1.1,0-2-0.4-2.6-1.1c-0.7-0.8-1-1.8-1-3.1c0-1.7,0.7-4.4,2.1-8
		c0.8-1.9,1.1-3.1,1.1-3.7c0-0.5-0.2-0.8-0.6-0.8c-0.2,0-0.5,0.1-0.9,0.3c-0.3,0.2-0.7,0.5-1.2,1C100,28,99.6,28.4,99,29
		c-0.4,0.5-0.9,1-1.4,1.6l-1.4,1.6c-0.6,0.7-1,1.5-1.1,2.3c-0.2,1.4-0.4,2.7-0.5,3.8c0,0.9-0.1,2-0.1,3.5L89.2,43
		c-0.2-2.2-0.3-3.8-0.3-4.9c0-2.6,0.3-5.1,0.9-7.4s1.6-5,2.9-7.9l6-1.1c-1.3,3.4-2.1,6-2.5,8c2.7-3,4.8-5,6.4-6.2
		c1.6-1.1,3-1.7,4.2-1.7c0.8,0,1.5,0.3,2.1,0.9s0.8,1.4,0.8,2.4c0,1.6-0.7,4.1-2.1,7.7c-1,2.5-1.4,4.1-1.4,4.8c0,1,0.4,1.5,1.2,1.5
		c1.2,0,3.1-1.6,5.8-4.7L113.1,37L113.1,37z"/>
	<path class="st1" d="M139.2,37c-2.3,2.3-4.1,3.9-5.4,4.7c-1.2,0.8-2.3,1.2-3.3,1.2c-1.2,0-2.1-0.6-2.7-1.7c-0.7-1.1-1-2.8-1-4.9
		c-1.3,2.2-2.8,3.8-4.4,4.9c-1.6,1.1-3,1.7-4.3,1.7c-1.4,0-2.6-0.7-3.7-2s-1.6-2.8-1.6-4.6c0-3.6,1.3-7,4-10.1
		c2.6-3.1,5.5-4.7,8.5-4.7c0.8,0,1.5,0.1,2,0.4c0.5,0.2,1,0.7,1.6,1.2l3.5-14.6c2.9-0.7,4.8-1,5.8-1c0.3,0,0.5,0.1,0.5,0.4
		c0,0.2-0.4,1.9-1.2,5.1c-3.3,12.8-4.9,20.5-4.9,23.1c0,0.6,0.1,1.1,0.4,1.5c0.3,0.4,0.6,0.6,1,0.6c1,0,2.8-1.4,5.1-4.1L139.2,37
		L139.2,37z M121.5,38.3c1.6,0,3.1-1.4,4.5-4.1c1.4-2.7,2.1-5.2,2.1-7.6c0-1-0.2-1.7-0.6-2.3c-0.4-0.6-1-0.9-1.7-0.9
		c-1.5,0-3,1.4-4.4,4.2s-2.1,5.4-2.1,7.7c0,0.9,0.2,1.6,0.6,2.1C120.3,38,120.8,38.3,121.5,38.3z"/>
	<path class="st1" d="M165.2,37c-2.6,2.5-4.5,4.1-5.6,4.8s-2.2,1.1-3.2,1.1c-2.6,0-3.8-2.3-3.6-6.8c-1.6,2.3-3.1,4-4.5,5.2
		c-1.4,1.1-2.8,1.7-4.3,1.7c-1.4,0-2.6-0.7-3.6-2s-1.5-3-1.5-4.9c0-2.4,0.7-4.8,2-7s3.1-4,5.2-5.4s4-2.1,5.6-2.1
		c2,0,3.5,0.9,4.3,2.8l5-2.8h1.4l-2.2,7.2c-1.1,3.6-1.7,6.1-1.7,7.4c0,1.4,0.5,2.1,1.5,2.1c0.6,0,1.3-0.3,2.1-1s1.8-1.7,3.2-3.1
		L165.2,37L165.2,37z M147.4,38.3c1.6,0,3.2-1.4,4.6-4.2c1.4-2.8,2.2-5.3,2.2-7.7c0-0.9-0.2-1.6-0.6-2.1c-0.4-0.5-1-0.8-1.6-0.8
		c-1.6,0-3.2,1.4-4.6,4.2c-1.5,2.8-2.2,5.3-2.2,7.6c0,0.9,0.2,1.6,0.6,2.1C146.1,38.1,146.7,38.3,147.4,38.3z"/>
	<path class="st1" d="M183.5,37c-4.1,4-7.2,6-9.4,6c-1,0-1.8-0.4-2.5-1.3c-0.7-0.8-1-1.9-1-3.1c0-2.3,1.2-5.4,3.7-9.2
		c-1.2,0.6-2.5,1-4,1.3c-1.1,2-2.7,4.1-5,6.3h-0.6v-2.2c1.3-1.3,2.4-2.7,3.4-4.2c-1.4-0.6-2.1-1.5-2.1-2.8s0.4-2.6,1.3-4
		c0.9-1.4,2-2.1,3.5-2.1c1.3,0,1.9,0.7,1.9,2c0,1-0.4,2.5-1.1,4.4c2.7-0.3,5.1-2.4,7.1-6.2l2.2-0.1l-2.3,6.3
		c-0.9,2.6-1.6,4.4-1.8,5.4c-0.3,1-0.4,1.8-0.4,2.5s0.2,1.2,0.5,1.6c0.3,0.4,0.7,0.6,1.3,0.6s1.1-0.2,1.7-0.6
		c0.5-0.4,1.7-1.5,3.6-3.3L183.5,37L183.5,37z"/>
</g>
</svg>
