<svg id="레이어_1" data-name="레이어 1" xmlns="http://www.w3.org/2000/svg" width="325.96" height="73.5" viewBox="0 0 325.96 73.5">
  <defs>
    <style>
      .cls-1 {
        isolation: isolate;
      }

      .cls-2 {
        fill: #8d6262;
      }
    </style>
  </defs>
  <g>
    <g class="cls-1">
      <path class="cls-2" d="M92.5,81c-5.2,5.4-9.4,8.1-12.8,8.1A5,5,0,0,1,76,87.6a5.2,5.2,0,0,1-1.5-3.8q0-3.9,3-11.1a17.87,17.87,0,0,0,1.6-5c0-.9-.4-1.3-1.3-1.3s-2.1.6-3.8,1.8a29,29,0,0,0-5.2,4.9,75.73,75.73,0,0,0-1.1,14.5l-7.3,1.7a58.57,58.57,0,0,1-.4-7.5,59.32,59.32,0,0,1,2.7-18.2,83.23,83.23,0,0,1,8.4-17.8c2.9-1.2,5.4-2.1,7.5-2.8a28.11,28.11,0,0,1,3.6-1.1c.6,0,1,.5,1.4,1.4a8.62,8.62,0,0,1,.6,3.4,17.54,17.54,0,0,1-2.1,7.7,64.37,64.37,0,0,1-6.7,10.2c2.9-1.7,4.8-2.7,5.8-3.2a6.19,6.19,0,0,1,2.9-.7,3.42,3.42,0,0,1,2.7,1.2,4.72,4.72,0,0,1,1,3.2c0,2-.8,5-2.3,9.1s-2.3,6.7-2.3,7.8a2,2,0,0,0,.4,1.3,1.22,1.22,0,0,0,1,.6c1.4,0,4-2.1,7.7-6.3V81ZM69.8,67.6c7.8-9.1,11.7-15.7,11.7-20,0-1.3-.4-2-1.1-2-1.2,0-2.9,2.1-5.1,6.4A67.38,67.38,0,0,0,69.8,67.6Z" transform="translate(-2.8 -15.8)"/>
      <path class="cls-2" d="M127.4,81a66.15,66.15,0,0,1-7.2,6,9.52,9.52,0,0,1-5.2,1.9,4.64,4.64,0,0,1-4-2.1,10.07,10.07,0,0,1-1.4-5.6,35.12,35.12,0,0,1-6.4,5.8,9.91,9.91,0,0,1-5.6,1.9,4.64,4.64,0,0,1-4-2.1,9.3,9.3,0,0,1-1.5-5.6c0-4.5,1.5-10.9,4.6-19.2l8.7-1.7Q100,76.05,100,80.4c0,2.1.8,3.1,2.4,3.1,1.1,0,2.5-.9,4.2-2.8a13.13,13.13,0,0,0,3.1-4.8L114,62l8.9-1.8q-3.15,9.9-4.2,13.8a26.16,26.16,0,0,0-1.1,5.6c0,2.1.7,3.1,2.1,3.1,1.1,0,2.8-1,5-3.1l2.8-2.6v4Z" transform="translate(-2.8 -15.8)"/>
      <path class="cls-2" d="M151.9,81a40.65,40.65,0,0,1-7.7,6.1,14.74,14.74,0,0,1-7.3,1.9,9.27,9.27,0,0,1-7-2.8,9.82,9.82,0,0,1-2.8-7,19.57,19.57,0,0,1,5.1-12.9c3.4-3.9,7.1-5.9,11-5.9a6.71,6.71,0,0,1,4.7,1.6,5.45,5.45,0,0,1,1.8,4.2,2.65,2.65,0,0,1-.3,1.4,3.62,3.62,0,0,1-1.3.9l-3.8,1.8a3.26,3.26,0,0,1-1,.3c-.3,0-.5-.2-.5-.7,0-.2.1-.7.2-1.7s.2-1.6.2-1.8a3.92,3.92,0,0,0-.6-2.3,1.8,1.8,0,0,0-1.6-.9c-1.6,0-3,1.2-4.4,3.5a15.23,15.23,0,0,0-2,8.1,9.2,9.2,0,0,0,1.9,6.2,6.13,6.13,0,0,0,5,2.3,9.14,9.14,0,0,0,5-1.5,29.75,29.75,0,0,0,5.3-4.7V81Z" transform="translate(-2.8 -15.8)"/>
      <path class="cls-2" d="M184,81q-7.5,8.1-12.3,8.1a5.44,5.44,0,0,1-4-1.7,5.58,5.58,0,0,1-1.6-4.1,17.65,17.65,0,0,1,.4-3.4,20,20,0,0,0,.4-2.6c0-1-.6-1.5-1.7-1.6s-1.7-.5-1.7-1.3a2.35,2.35,0,0,1,.5-1.6,2.65,2.65,0,0,1,1.8-.4,9.65,9.65,0,0,0,5.4-1.5,4,4,0,0,0,1.8-3.3,2.7,2.7,0,0,0-1-2.2,3.66,3.66,0,0,0-2.5-.9,8.75,8.75,0,0,0-1.6.2,4.71,4.71,0,0,0-1.5.6,11.57,11.57,0,0,0-1.6,1.1c-.5.5-1.1,1-1.7,1.7a25.91,25.91,0,0,0-1.9,2.3c-.3.5-.8,2.6-1.3,6.4-.3,2-.4,3.8-.5,5.5a46.7,46.7,0,0,0,0,5.3L152,88.8a35.9,35.9,0,0,1-.4-6.1,65.24,65.24,0,0,1,2.7-18.8A74.41,74.41,0,0,1,163,45.5q4.65-1.95,8.1-3a37.68,37.68,0,0,1,3.8-1.1c.5,0,1,.5,1.5,1.6a7.31,7.31,0,0,1,.8,3.3,13.24,13.24,0,0,1-1.9,6.4,56.94,56.94,0,0,1-6,8.3,19.27,19.27,0,0,1,4.6-.8,7.51,7.51,0,0,1,5,1.6,4.78,4.78,0,0,1,1.9,3.9c0,3.6-3.3,6.3-9.8,8,2.6.6,3.8,2.1,3.8,4.5l-.2,2.9c0,1.3.6,2,1.9,2a4.85,4.85,0,0,0,3-1.3,38.2,38.2,0,0,0,4.7-4.9V81ZM162.5,65.2l2.2-2.4c6.4-7.2,9.6-12.3,9.6-15.2,0-1.4-.6-2-1.8-2-1.4,0-2.9,1.6-4.7,4.8S164.3,58.5,162.5,65.2Z" transform="translate(-2.8 -15.8)"/>
    </g>
    <g class="cls-1">
      <path class="cls-2" d="M59.4,76.6A38.59,38.59,0,0,1,30.5,89c-8.1,0-14.7-2.5-19.9-7.6S2.8,69.8,2.8,61.9A48.77,48.77,0,0,1,8.4,39.3,47.17,47.17,0,0,1,23.1,22.2c6-4.3,12-6.4,17.8-6.4,4.9,0,8.9,1.5,11.9,4.4a14.85,14.85,0,0,1,4.6,11.4,23.85,23.85,0,0,1-5.6,15.8c-3.7,4.5-8.1,6.7-13.1,6.7a10.48,10.48,0,0,1-6.5-2,6.26,6.26,0,0,1-2.5-5.2,7.31,7.31,0,0,1,2.2-5.1c1.1,2,2.6,3,4.4,3q4.05,0,7.5-5.1a19.46,19.46,0,0,0,3.5-11.1,10.66,10.66,0,0,0-1.9-6.7,6.4,6.4,0,0,0-5.2-2.5c-3.1,0-6.5,2-10,5.9a46.77,46.77,0,0,0-8.9,15.1,48,48,0,0,0-3.6,17.5c0,7,2,12.8,6,17.3A19.55,19.55,0,0,0,38.9,82a21.16,21.16,0,0,0,10.6-2.7,36.66,36.66,0,0,0,9.7-8.5v5.8Z" transform="translate(-2.8 -15.8)"/>
    </g>
  </g>
  <g>
    <path class="cls-2" d="M197.13,41.69a10.39,10.39,0,0,1,1.58-.27,4.07,4.07,0,0,1,2.46.38,2.19,2.19,0,0,1,.77,1.8q.21,4.82.33,9.48c.07,3.11.14,5.84.21,8.17,0,.4.19.6.55.6,1.35-.08,2.77-.15,4.28-.22l4.57-.22c1.53-.07,3-.15,4.53-.25l4.31-.24a2.21,2.21,0,0,1,1.51.38,2.47,2.47,0,0,1,.62,1.91,2.1,2.1,0,0,1-.46,1.64,2.15,2.15,0,0,1-1.28.66c-1.31.18-2.8.35-4.45.52s-3.38.3-5.16.43-3.59.24-5.41.33-3.55.16-5.19.19a4.57,4.57,0,0,1-2.9-.74,3.09,3.09,0,0,1-1.2-2.48q-.37-4.59-.6-9.83T195.87,44a7.78,7.78,0,0,1,.06-1,1.44,1.44,0,0,1,.33-.77A1.72,1.72,0,0,1,197.13,41.69Zm34.19,37.63c0,2.37-.11,4.59-.22,6.67a4,4,0,0,1-.49,1.83,1.89,1.89,0,0,1-1.47.68l-2.62.14c-1.17,0-2.48.1-3.94.13l-4.56.11-4.53.11c-1.44,0-2.73.07-3.88.08l-2.54,0q-3.06,0-3.28-3.28c-.07-.72-.13-1.64-.19-2.73s-.12-2.24-.19-3.44-.14-2.38-.19-3.55-.08-2.16-.08-3q0-2.35,2.13-2.46c.65,0,1.63-.07,2.92-.11l4.32-.14c1.58,0,3.25-.11,5-.19s3.43-.12,5.06-.16S225.64,70,227,70l3.06,0a1.33,1.33,0,0,1,1.15.46,2.38,2.38,0,0,1,.33,1.34Q231.43,75.72,231.32,79.32ZM225.09,84c.48,0,.71-.25.71-.76s0-1.19,0-1.92,0-1.48,0-2.26,0-1.57,0-2.35,0-1.48,0-2.1l-17,.71c0,.69.07,1.46.11,2.32s.06,1.7.08,2.54.05,1.63.08,2.37.07,1.36.11,1.83Zm9-27.53h-1.7c-.07,1.86-.13,3.56-.19,5.11s-.13,2.8-.24,3.74a2.73,2.73,0,0,1-.9,2.08,3,3,0,0,1-1.89.43,3.26,3.26,0,0,1-1.86-.54,2.77,2.77,0,0,1-.71-2.13c0-.84-.05-2-.05-3.52s0-3.2.05-5.06.07-3.83.09-5.92,0-4.16.08-6.2a2.78,2.78,0,0,1,.65-2.1,3.31,3.31,0,0,1,2.3-.63c1.93,0,2.87,1,2.84,2.89,0,1.06-.06,2.17-.06,3.34s0,2.34-.05,3.54c.54,0,1.1,0,1.66,0l1.59,0h2.21a2.27,2.27,0,0,1,1.64.49,2.38,2.38,0,0,1,.49,1.69,4.42,4.42,0,0,1-.36,1.94,1.47,1.47,0,0,1-1.39.79,9.83,9.83,0,0,1-1,.09c-.43,0-.92,0-1.47,0Z" transform="translate(-2.8 -15.8)"/>
    <path class="cls-2" d="M263.16,78.78a2.19,2.19,0,0,1-2.35-2.3c0-.43-.05-1.36-.05-2.78v-5q0-2.86,0-6.14c0-2.19,0-4.25.06-6.2s0-3.67,0-5.16V48.14q-4.08.16-8.57.24t-8.74.09c-1.38,0-2.07-.8-2.07-2.41a2,2,0,0,1,.63-1.66,2.42,2.42,0,0,1,1.39-.58c3.64-.18,7.26-.33,10.87-.43s7.12-.17,10.54-.17a1.83,1.83,0,0,1,1.48.49,2.66,2.66,0,0,1,.38,1.59c0,.73,0,1.91,0,3.55s0,3.49-.06,5.57,0,4.27-.08,6.58-.08,4.5-.13,6.55-.12,3.9-.2,5.52-.14,2.78-.21,3.47a2.47,2.47,0,0,1-.93,1.8A2.84,2.84,0,0,1,263.16,78.78Zm17.2,2.62a2.88,2.88,0,0,1-.87,2.18,2.59,2.59,0,0,1-1.91.5,2.41,2.41,0,0,1-1.78-.88,4.26,4.26,0,0,1-.57-2.51q0-18.24.66-36.21a2.83,2.83,0,0,1,.74-2.1,3.37,3.37,0,0,1,2.32-.63c1.89,0,2.84,1,2.84,2.89,0,3-.1,6.06-.17,9.23s-.16,6.33-.27,9.48-.25,6.25-.41,9.31S280.58,78.63,280.36,81.4Z" transform="translate(-2.8 -15.8)"/>
    <path class="cls-2" d="M310.13,78.78a2.19,2.19,0,0,1-2.35-2.3c0-.43,0-1.36,0-2.78v-5q0-2.86,0-6.14c0-2.19,0-4.25.05-6.2s0-3.67,0-5.16V48.14q-4.09.16-8.58.24c-3,.06-5.9.09-8.74.09-1.38,0-2.07-.8-2.07-2.41a2,2,0,0,1,.63-1.66,2.42,2.42,0,0,1,1.39-.58c3.64-.18,7.26-.33,10.87-.43s7.12-.17,10.54-.17a1.83,1.83,0,0,1,1.48.49,2.66,2.66,0,0,1,.38,1.59c0,.73,0,1.91,0,3.55s0,3.49-.06,5.57,0,4.27-.08,6.58-.08,4.5-.13,6.55-.12,3.9-.19,5.52-.15,2.78-.22,3.47a2.47,2.47,0,0,1-.93,1.8A2.84,2.84,0,0,1,310.13,78.78Zm17.21,2.62a2.92,2.92,0,0,1-.88,2.18,2.59,2.59,0,0,1-1.91.5,2.37,2.37,0,0,1-1.77-.88,4.18,4.18,0,0,1-.58-2.51q0-18.24.66-36.21a2.87,2.87,0,0,1,.74-2.1,3.37,3.37,0,0,1,2.32-.63c1.89,0,2.84,1,2.84,2.89,0,3-.1,6.06-.17,9.23s-.16,6.33-.27,9.48-.25,6.25-.41,9.31S327.55,78.63,327.34,81.4Z" transform="translate(-2.8 -15.8)"/>
  </g>
</svg>
