<svg id="레이어_1" data-name="레이어 1" xmlns="http://www.w3.org/2000/svg" width="325.93" height="73.75" viewBox="0 0 325.93 73.75">
  <defs>
    <style>
      .cls-1 {
        isolation: isolate;
      }

      .cls-2 {
        fill: #8d6262;
      }
    </style>
  </defs>
  <g>
    <g class="cls-1">
      <path class="cls-2" d="M92.5,81c-5.2,5.4-9.4,8.1-12.8,8.1A5,5,0,0,1,76,87.6a5.2,5.2,0,0,1-1.5-3.8q0-3.9,3-11.1a17.87,17.87,0,0,0,1.6-5c0-.9-.4-1.3-1.3-1.3s-2.1.6-3.8,1.8a29,29,0,0,0-5.2,4.9,75.73,75.73,0,0,0-1.1,14.5l-7.3,1.7a58.57,58.57,0,0,1-.4-7.5,59.32,59.32,0,0,1,2.7-18.2,83.23,83.23,0,0,1,8.4-17.8c2.9-1.2,5.4-2.1,7.5-2.8a28.11,28.11,0,0,1,3.6-1.1c.6,0,1,.5,1.4,1.4a8.62,8.62,0,0,1,.6,3.4,17.54,17.54,0,0,1-2.1,7.7,64.37,64.37,0,0,1-6.7,10.2c2.9-1.7,4.8-2.7,5.8-3.2a6.19,6.19,0,0,1,2.9-.7,3.42,3.42,0,0,1,2.7,1.2,4.72,4.72,0,0,1,1,3.2c0,2-.8,5-2.3,9.1s-2.3,6.7-2.3,7.8a2,2,0,0,0,.4,1.3,1.22,1.22,0,0,0,1,.6c1.4,0,4-2.1,7.7-6.3V81ZM69.8,67.6c7.8-9.1,11.7-15.7,11.7-20,0-1.3-.4-2-1.1-2-1.2,0-2.9,2.1-5.1,6.4A67.38,67.38,0,0,0,69.8,67.6Z" transform="translate(-2.8 -15.8)"/>
      <path class="cls-2" d="M127.4,81a66.15,66.15,0,0,1-7.2,6,9.52,9.52,0,0,1-5.2,1.9,4.64,4.64,0,0,1-4-2.1,10.07,10.07,0,0,1-1.4-5.6,35.12,35.12,0,0,1-6.4,5.8,9.91,9.91,0,0,1-5.6,1.9,4.64,4.64,0,0,1-4-2.1,9.3,9.3,0,0,1-1.5-5.6c0-4.5,1.5-10.9,4.6-19.2l8.7-1.7Q100,76.05,100,80.4c0,2.1.8,3.1,2.4,3.1,1.1,0,2.5-.9,4.2-2.8a13.13,13.13,0,0,0,3.1-4.8L114,62l8.9-1.8q-3.15,9.9-4.2,13.8a26.16,26.16,0,0,0-1.1,5.6c0,2.1.7,3.1,2.1,3.1,1.1,0,2.8-1,5-3.1l2.8-2.6v4Z" transform="translate(-2.8 -15.8)"/>
      <path class="cls-2" d="M151.9,81a40.65,40.65,0,0,1-7.7,6.1,14.74,14.74,0,0,1-7.3,1.9,9.27,9.27,0,0,1-7-2.8,9.82,9.82,0,0,1-2.8-7,19.57,19.57,0,0,1,5.1-12.9c3.4-3.9,7.1-5.9,11-5.9a6.71,6.71,0,0,1,4.7,1.6,5.45,5.45,0,0,1,1.8,4.2,2.65,2.65,0,0,1-.3,1.4,3.62,3.62,0,0,1-1.3.9l-3.8,1.8a3.26,3.26,0,0,1-1,.3c-.3,0-.5-.2-.5-.7,0-.2.1-.7.2-1.7s.2-1.6.2-1.8a3.92,3.92,0,0,0-.6-2.3,1.8,1.8,0,0,0-1.6-.9c-1.6,0-3,1.2-4.4,3.5a15.23,15.23,0,0,0-2,8.1,9.2,9.2,0,0,0,1.9,6.2,6.13,6.13,0,0,0,5,2.3,9.14,9.14,0,0,0,5-1.5,29.75,29.75,0,0,0,5.3-4.7V81Z" transform="translate(-2.8 -15.8)"/>
      <path class="cls-2" d="M184,81q-7.5,8.1-12.3,8.1a5.44,5.44,0,0,1-4-1.7,5.58,5.58,0,0,1-1.6-4.1,17.65,17.65,0,0,1,.4-3.4,20,20,0,0,0,.4-2.6c0-1-.6-1.5-1.7-1.6s-1.7-.5-1.7-1.3a2.35,2.35,0,0,1,.5-1.6,2.65,2.65,0,0,1,1.8-.4,9.65,9.65,0,0,0,5.4-1.5,4,4,0,0,0,1.8-3.3,2.7,2.7,0,0,0-1-2.2,3.66,3.66,0,0,0-2.5-.9,8.75,8.75,0,0,0-1.6.2,4.71,4.71,0,0,0-1.5.6,11.57,11.57,0,0,0-1.6,1.1c-.5.5-1.1,1-1.7,1.7a25.91,25.91,0,0,0-1.9,2.3c-.3.5-.8,2.6-1.3,6.4-.3,2-.4,3.8-.5,5.5a46.7,46.7,0,0,0,0,5.3L152,88.8a35.9,35.9,0,0,1-.4-6.1,65.24,65.24,0,0,1,2.7-18.8A74.41,74.41,0,0,1,163,45.5q4.65-1.95,8.1-3a37.68,37.68,0,0,1,3.8-1.1c.5,0,1,.5,1.5,1.6a7.31,7.31,0,0,1,.8,3.3,13.24,13.24,0,0,1-1.9,6.4,56.94,56.94,0,0,1-6,8.3,19.27,19.27,0,0,1,4.6-.8,7.51,7.51,0,0,1,5,1.6,4.78,4.78,0,0,1,1.9,3.9c0,3.6-3.3,6.3-9.8,8,2.6.6,3.8,2.1,3.8,4.5l-.2,2.9c0,1.3.6,2,1.9,2a4.85,4.85,0,0,0,3-1.3,38.2,38.2,0,0,0,4.7-4.9V81ZM162.5,65.2l2.2-2.4c6.4-7.2,9.6-12.3,9.6-15.2,0-1.4-.6-2-1.8-2-1.4,0-2.9,1.6-4.7,4.8S164.3,58.5,162.5,65.2Z" transform="translate(-2.8 -15.8)"/>
    </g>
    <g class="cls-1">
      <path class="cls-2" d="M59.4,76.6A38.59,38.59,0,0,1,30.5,89c-8.1,0-14.7-2.5-19.9-7.6S2.8,69.8,2.8,61.9A48.77,48.77,0,0,1,8.4,39.3,47.17,47.17,0,0,1,23.1,22.2c6-4.3,12-6.4,17.8-6.4,4.9,0,8.9,1.5,11.9,4.4a14.85,14.85,0,0,1,4.6,11.4,23.85,23.85,0,0,1-5.6,15.8c-3.7,4.5-8.1,6.7-13.1,6.7a10.48,10.48,0,0,1-6.5-2,6.26,6.26,0,0,1-2.5-5.2,7.31,7.31,0,0,1,2.2-5.1c1.1,2,2.6,3,4.4,3q4.05,0,7.5-5.1a19.46,19.46,0,0,0,3.5-11.1,10.66,10.66,0,0,0-1.9-6.7,6.4,6.4,0,0,0-5.2-2.5c-3.1,0-6.5,2-10,5.9a46.77,46.77,0,0,0-8.9,15.1,48,48,0,0,0-3.6,17.5c0,7,2,12.8,6,17.3A19.55,19.55,0,0,0,38.9,82a21.16,21.16,0,0,0,10.6-2.7,36.66,36.66,0,0,0,9.7-8.5v5.8Z" transform="translate(-2.8 -15.8)"/>
    </g>
  </g>
  <g>
    <path class="cls-2" d="M227.1,73.66a2.47,2.47,0,0,1-.93,1.92,3,3,0,0,1-2.09.46c-1.71-.11-2.56-.93-2.56-2.44,0-.46,0-1.25.06-2.35s.08-2.39.11-3.84.09-3,.15-4.59.11-3.16.15-4.65.07-2.83.12-4,0-2.07,0-2.65c-1,0-2.21.08-3.72.11s-3.17.08-5,.09l-5.64.06-5.67.06-5,0h-3.84c-1.48,0-2.21-.87-2.21-2.62a2.25,2.25,0,0,1,.67-1.8,2.47,2.47,0,0,1,1.48-.64c1.28-.08,2.82-.14,4.62-.2s3.74-.11,5.81-.15l6.37-.12,6.31-.08,5.7-.06,4.44,0a1.86,1.86,0,0,1,1.57.53,2.74,2.74,0,0,1,.41,1.68c0,.78,0,1.84-.09,3.2s-.12,2.85-.2,4.47-.15,3.32-.23,5.06-.17,3.43-.27,5.06-.19,3.1-.28,4.42S227.18,72.92,227.1,73.66Zm2.5,12.67a2.4,2.4,0,0,1-1.57.76q-8.31.64-17,1.11t-17.65.69c-1.47,0-2.21-.89-2.21-2.67a3,3,0,0,1,.53-1.92,2.27,2.27,0,0,1,1.74-.7l5.5-.23,5.49-.24q0-4.23,0-8.6t0-8.25a2.83,2.83,0,0,1,.76-2.24,3.69,3.69,0,0,1,2.49-.67q3,0,3,3.08c0,2.48.06,5.14.08,8s0,5.64,0,8.44c3-.16,6-.3,8.9-.44s5.74-.24,8.49-.32a1.66,1.66,0,0,1,1.57.61,3,3,0,0,1,.47,1.72A2.61,2.61,0,0,1,229.6,86.33Z" transform="translate(-2.8 -15.8)"/>
    <path class="cls-2" d="M254.25,65c0,1,.06,1.72.06,2.27q3.31,2.73,6.16,4.79c1.9,1.38,3.72,2.79,5.47,4.21a2.94,2.94,0,0,1,1,1.52,2.2,2.2,0,0,1-.49,1.8A4.68,4.68,0,0,1,265,81.13a1.55,1.55,0,0,1-1.72-.2c-.82-.54-1.71-1.16-2.7-1.86s-2-1.44-3-2.21l-3.05-2.36c-1-.79-2-1.56-2.88-2.29q-3.44,3.6-6.45,6.48t-5.18,4.68a2.1,2.1,0,0,1-1.92.52,3.14,3.14,0,0,1-1.79-1.16,1.83,1.83,0,0,1-.53-1.57,3.85,3.85,0,0,1,.81-1.46c.74-.81,1.63-1.73,2.68-2.75l3.22-3.17c1.11-1.09,2.17-2.14,3.17-3.17s1.84-2,2.5-2.76c0-.58,0-1.36,0-2.33s-.07-2.07-.09-3.31-.05-2.56-.09-4l-.11-4.18-6.52.29c-2,.07-3.58.14-4.71.17A2,2,0,0,1,235,54a2.84,2.84,0,0,1-.67-1.95A3,3,0,0,1,234.8,50a2,2,0,0,1,1.43-.73c1.24,0,2.88-.1,4.94-.2s4.24-.18,6.57-.26q-.06-1.64-.09-2.91c0-.85,0-1.55,0-2.09a3,3,0,0,1,.55-2.07,3.52,3.52,0,0,1,2.47-.84,4,4,0,0,1,2.71.46,3,3,0,0,1,.67,2.1c0,.54,0,1.25,0,2.12s0,1.85.07,2.94l6.3-.23,4.74-.18a2.19,2.19,0,0,1,1.72.49,3,3,0,0,1,.61,2c0,1.71-.72,2.62-2.27,2.73q-1.69.12-4.62.27l-6.43.31q0,2,0,4.11c0,1.37,0,2.65,0,3.83ZM277.8,86.68a3.09,3.09,0,0,1-.94,2.33,2.71,2.71,0,0,1-2,.52,2.51,2.51,0,0,1-1.89-.93,4.57,4.57,0,0,1-.61-2.67q0-19.43.7-38.55a3.08,3.08,0,0,1,.78-2.24,3.67,3.67,0,0,1,2.47-.66c2,0,3,1,3,3.08,0,3.17-.1,6.45-.17,9.82s-.18,6.73-.3,10.09-.26,6.66-.43,9.91S278,83.74,277.8,86.68Z" transform="translate(-2.8 -15.8)"/>
    <path class="cls-2" d="M308.9,83.89a2.32,2.32,0,0,1-2.5-2.44q-.06-.69-.06-3V73.17q0-3.06,0-6.54t.06-6.6c0-2.08,0-3.91,0-5.5V51.28q-4.36.16-9.13.26c-3.18.06-6.28.08-9.3.08-1.47,0-2.21-.85-2.21-2.55a2.15,2.15,0,0,1,.67-1.77,2.51,2.51,0,0,1,1.48-.61q5.82-.3,11.57-.47c3.84-.12,7.58-.17,11.22-.17a1.9,1.9,0,0,1,1.57.52,2.78,2.78,0,0,1,.41,1.69c0,.77,0,2,0,3.77s0,3.72-.06,5.93,0,4.55-.08,7-.09,4.78-.15,7-.13,4.15-.2,5.88-.16,3-.24,3.69a2.61,2.61,0,0,1-1,1.92A3,3,0,0,1,308.9,83.89Zm18.31,2.79a3.09,3.09,0,0,1-.92,2.33,2.73,2.73,0,0,1-2,.52,2.51,2.51,0,0,1-1.89-.93,4.49,4.49,0,0,1-.61-2.67q0-19.43.7-38.55a3.12,3.12,0,0,1,.78-2.24,3.67,3.67,0,0,1,2.47-.66c2,0,3,1,3,3.08-.05,3.17-.1,6.45-.18,9.82s-.17,6.73-.29,10.09-.26,6.66-.44,9.91S327.45,83.74,327.21,86.68Z" transform="translate(-2.8 -15.8)"/>
  </g>
</svg>
