<?xml version="1.0" encoding="utf-8"?>
<!-- Generator: Adobe Illustrator 22.0.1, SVG Export Plug-In . SVG Version: 6.00 Build 0)  -->
<svg version="1.1" id="레이어_1" xmlns="http://www.w3.org/2000/svg" xmlns:xlink="http://www.w3.org/1999/xlink" x="0px"
	 y="0px" viewBox="0 0 239.1 55" style="enable-background:new 0 0 239.1 55;" xml:space="preserve">
<style type="text/css">
	.st0{enable-background:new    ;}
	.st1{fill:#8A6161;}
</style>
<title>ChuckBook_tabtitle</title>
<g class="st0">
	<path class="st1" d="M28.7,37c-3.9,4-8.5,6-14,6c-3.9,0-7.1-1.2-9.6-3.7c-2.5-2.4-3.7-5.6-3.7-9.4c0-3.8,0.9-7.5,2.7-10.9
		c1.8-3.5,4.2-6.2,7.1-8.3c2.9-2.1,5.8-3.1,8.6-3.1c2.4,0,4.3,0.7,5.8,2.1s2.2,3.3,2.2,5.5c0,2.9-0.9,5.5-2.7,7.7
		c-1.8,2.2-3.9,3.2-6.3,3.2c-1.3,0-2.3-0.3-3.1-1c-0.8-0.7-1.2-1.5-1.2-2.5c0-0.9,0.3-1.7,1-2.4c0.5,1,1.2,1.4,2.1,1.4
		c1.3,0,2.5-0.8,3.6-2.4c1.1-1.6,1.7-3.4,1.7-5.3c0-1.4-0.3-2.4-0.9-3.2c-0.6-0.8-1.5-1.2-2.5-1.2c-1.5,0-3.1,0.9-4.8,2.8
		c-1.7,1.9-3.1,4.3-4.3,7.3c-1.1,3-1.7,5.8-1.7,8.4c0,3.4,1,6.2,2.9,8.4c1.9,2.2,4.4,3.3,7.4,3.3c1.9,0,3.6-0.4,5.1-1.3
		s3.1-2.2,4.7-4.1V37z"/>
	<path class="st1" d="M52.7,37c-3.9,4-7,6-9.5,6c-1.1,0-2-0.4-2.7-1.1c-0.7-0.8-1.1-1.7-1.1-2.9c0-2,0.7-4.7,2.2-8.3
		c0.8-1.9,1.2-3.2,1.2-3.8c0-0.7-0.3-1-1-1c-0.7,0-1.6,0.4-2.8,1.3c-1.2,0.9-2.5,2.1-3.9,3.6c-0.6,3-0.9,6.6-0.9,10.8L28.8,43
		c-0.2-1.7-0.3-3.6-0.3-5.6c0-4.8,0.7-9.4,2-13.6c1.3-4.2,3.4-8.6,6.3-13.3c2.1-0.9,4-1.6,5.6-2.1c1.6-0.5,2.5-0.8,2.7-0.8
		c0.4,0,0.8,0.3,1.1,1s0.4,1.5,0.4,2.6c0,1.7-0.5,3.6-1.6,5.7c-1.1,2.1-2.7,4.6-5,7.6c2.2-1.3,3.6-2,4.3-2.4
		c0.7-0.3,1.5-0.5,2.2-0.5c0.8,0,1.5,0.3,2,0.9c0.5,0.6,0.8,1.4,0.8,2.4c0,1.5-0.6,3.7-1.8,6.8c-1.2,3.1-1.8,5-1.8,5.8
		c0,0.4,0.1,0.7,0.3,1c0.2,0.3,0.5,0.4,0.8,0.4c1,0,3-1.6,5.8-4.7V37z M35.7,27c5.8-6.8,8.7-11.7,8.7-14.9c0-1-0.3-1.5-0.8-1.5
		c-0.9,0-2.2,1.6-3.8,4.8C38.2,18.6,36.8,22.5,35.7,27z"/>
	<path class="st1" d="M78.7,37c-2.1,2-3.9,3.5-5.4,4.5c-1.4,1-2.8,1.5-3.9,1.5c-1.3,0-2.3-0.5-3-1.5c-0.7-1-1-2.4-1-4.2
		c-1.8,2-3.4,3.4-4.8,4.4c-1.4,0.9-2.8,1.4-4.2,1.4c-1.2,0-2.2-0.5-3-1.5c-0.7-1-1.1-2.4-1.1-4.2c0-3.4,1.1-8.2,3.4-14.3l6.5-1.3
		c-2.7,7.8-4,12.8-4,15c0,1.6,0.6,2.3,1.8,2.3c0.8,0,1.9-0.7,3.1-2.1c1.3-1.4,2-2.6,2.3-3.6L68.7,23l6.6-1.3
		c-1.5,4.9-2.6,8.3-3.2,10.3c-0.6,2-0.9,3.4-0.9,4.2c0,1.5,0.5,2.3,1.6,2.3c0.8,0,2.1-0.8,3.8-2.3l2.1-1.9V37z"/>
	<path class="st1" d="M96.9,37c-2.1,2.1-4,3.6-5.7,4.5S87.7,43,85.8,43c-2.1,0-3.9-0.7-5.2-2.1c-1.4-1.4-2.1-3.1-2.1-5.2
		c0-3.5,1.3-6.7,3.8-9.6c2.5-2.9,5.3-4.4,8.2-4.4c1.4,0,2.6,0.4,3.5,1.2c0.9,0.8,1.4,1.9,1.4,3.1c0,0.5-0.1,0.8-0.3,1
		c-0.2,0.2-0.5,0.5-1,0.7L91.4,29c-0.3,0.2-0.6,0.2-0.8,0.2c-0.2,0-0.3-0.2-0.3-0.5c0-0.1,0-0.6,0.1-1.3c0.1-0.7,0.1-1.2,0.1-1.3
		c0-0.7-0.2-1.3-0.5-1.7c-0.3-0.4-0.7-0.7-1.2-0.7c-1.2,0-2.3,0.9-3.3,2.6c-1,1.8-1.5,3.8-1.5,6c0,1.9,0.5,3.5,1.4,4.6
		c0.9,1.2,2.2,1.7,3.7,1.7c1.3,0,2.6-0.4,3.7-1.1c1.2-0.8,2.5-1.9,4-3.5V37z"/>
	<path class="st1" d="M120.9,37c-3.7,4-6.8,6.1-9.2,6.1c-1.2,0-2.2-0.4-3-1.2c-0.8-0.8-1.2-1.8-1.2-3c0-0.6,0.1-1.4,0.3-2.6
		c0.2-1.1,0.3-1.8,0.3-1.9c0-0.7-0.4-1.1-1.3-1.2c-0.8,0-1.3-0.4-1.3-1c0-0.6,0.1-0.9,0.4-1.2c0.2-0.2,0.7-0.3,1.3-0.3
		c1.8,0,3.1-0.4,4-1.1c0.9-0.7,1.3-1.5,1.3-2.5c0-0.7-0.2-1.2-0.7-1.6c-0.5-0.4-1.1-0.6-1.8-0.6c-0.4,0-0.8,0-1.2,0.1
		c-0.4,0.1-0.8,0.2-1.1,0.4c-0.4,0.2-0.8,0.5-1.2,0.8c-0.4,0.3-0.8,0.8-1.2,1.2c-0.4,0.5-0.9,1-1.4,1.7c-0.3,0.3-0.6,1.9-1,4.8
		c-0.2,1.5-0.3,2.8-0.4,4.1c-0.1,1.2-0.1,2.5,0,4L97,42.9c-0.2-1.2-0.3-2.8-0.3-4.5c0-4.9,0.7-9.5,2-14c1.3-4.4,3.5-9,6.5-13.7
		c2.3-0.9,4.3-1.7,6-2.2c1.7-0.5,2.6-0.8,2.8-0.8c0.4,0,0.8,0.4,1.1,1.2c0.4,0.8,0.6,1.6,0.6,2.5c0,1.4-0.5,3-1.4,4.7
		c-1,1.7-2.5,3.8-4.5,6.2c1.4-0.4,2.5-0.6,3.4-0.6c1.5,0,2.8,0.4,3.7,1.2c1,0.8,1.4,1.8,1.4,2.9c0,2.7-2.4,4.7-7.3,6
		c1.9,0.4,2.9,1.6,2.9,3.3l-0.1,2.2c0,1,0.5,1.5,1.4,1.5c0.7,0,1.4-0.3,2.2-1s2-1.8,3.5-3.6V37z M104.9,25.2l1.6-1.8
		c4.8-5.4,7.2-9.2,7.2-11.4c0-1-0.4-1.5-1.3-1.5c-1,0-2.2,1.2-3.5,3.6C107.6,16.5,106.2,20.2,104.9,25.2z"/>
	<path class="st1" d="M160,13.9c-0.9,0.8-1.6,1.8-2.1,2.9c-0.5,1.1-0.9,3.2-1.3,6.4c-0.4,3.2-0.8,5.8-1.4,7.9s-1.5,4.1-2.9,6
		c-1.4,1.8-3.1,3.3-5.2,4.3c-2.1,1-4.4,1.6-6.8,1.6c-2.2,0-3.8-0.5-5-1.4c-1.1-0.9-1.7-2.2-1.7-3.9c0-0.6,0-1.1,0.1-1.5
		c0.8-0.7,1.7-1.3,2.7-1.8c1.1-0.5,1.8-0.8,2.1-0.8c0.6,0,0.9,0.4,0.9,1.3c0,0.1-0.1,0.7-0.2,1.5c-0.1,0.9-0.2,1.4-0.2,1.6
		c0,2,0.9,3,2.6,3c1.7,0,3.3-1.1,4.5-3.4c1.3-2.3,2.2-5.7,2.8-10.2c0.6-4.5,1.3-7.6,2.3-9.3c1-1.7,2.3-3,3.8-4
		c1.5-0.9,2.7-1.4,3.6-1.4C159.1,12.8,159.6,13.2,160,13.9z M159.2,23.4c1.7,0,3-0.7,3.8-2.1c0.8-1.4,1.2-2.9,1.2-4.5
		c0-2.2-0.7-4-2.2-5.4c-1.5-1.3-3.5-2-6-2c-3.4,0-6.4,1-9.1,2.9c-2.7,2-4.1,4.1-4.1,6.5c0,1.4,0.8,2.5,2.3,3.1
		c0.4,0.2,0.6,0.3,0.6,0.5v0.8c0,0.4-0.6,0.8-1.9,1.3c-1.3,0.5-2.1,0.8-2.6,0.8c-0.6,0-1.3-0.5-1.9-1.6c-0.7-1-1-2.1-1-3.2
		c0-1.9,0.8-4,2.4-6.1c1.6-2.1,3.8-3.8,6.7-5.1c2.9-1.3,6.2-1.9,9.9-1.9c4,0,7.2,0.8,9.7,2.5c2.5,1.7,3.7,3.8,3.7,6.4
		c0,3.9-2.8,6.6-8.3,8c4.3,1.4,6.5,4,6.5,8c0,2.9-1.1,5.4-3.3,7.5c-2.2,2.1-4.8,3.1-7.8,3.1c-1.3,0-2.5-0.3-3.3-0.8
		c-0.9-0.5-1.3-1.2-1.3-2c0-0.5,0.3-1.2,0.9-2.1c0.6-0.9,1.1-1.3,1.6-1.3c0.7,0,1.1,0.8,1.2,2.3c0.1,1.2,0.5,1.9,1.1,1.9
		c1.1,0,2.1-1.2,2.9-3.6c0.8-2.4,1.3-4.9,1.3-7.3c0-3-1.1-4.6-3.2-5L159.2,23.4z"/>
	<path class="st1" d="M193.3,37c-0.8,0.7-1.6,1.2-2.4,1.5c-0.8,0.3-1.4,0.5-1.9,0.5c-1.2,0-2.3-0.5-3.5-1.4c-2.3,3.5-5,5.3-8.1,5.3
		c-1.9,0-3.4-0.7-4.6-2.1s-1.8-3.3-1.8-5.6c0-3.7,1.3-6.9,4-9.6c2.6-2.7,5.8-4,9.4-4c1.4,0,2.4,0.2,3,0.5c0.6,0.3,1,0.7,1.2,1.1
		c0.1,0.4,0.2,0.9,0.2,1.5c0,3-0.8,6.8-2.5,11.2c0.8,0.8,1.7,1.1,2.6,1.1c1.1,0,2.5-1,4.2-2.9V37z M185.3,23.4
		c-0.2-0.1-0.6-0.1-1-0.1c-2.1,0-3.8,1.1-5,3.3c-1.2,2.2-1.8,4.8-1.8,7.8c0,1.6,0.3,2.9,0.8,3.8c0.5,0.9,1.2,1.4,2.2,1.4
		c1.2,0,2.4-1.1,3.8-3.2c-1.5-1.9-2.3-4-2.3-6.2C181.9,27.5,183,25.2,185.3,23.4z"/>
	<path class="st1" d="M215.2,37c-0.8,0.7-1.6,1.2-2.4,1.5c-0.8,0.3-1.4,0.5-1.9,0.5c-1.2,0-2.3-0.5-3.5-1.4c-2.3,3.5-5,5.3-8.1,5.3
		c-1.9,0-3.4-0.7-4.6-2.1s-1.8-3.3-1.8-5.6c0-3.7,1.3-6.9,4-9.6c2.6-2.7,5.8-4,9.4-4c1.4,0,2.4,0.2,3,0.5c0.6,0.3,1,0.7,1.2,1.1
		c0.1,0.4,0.2,0.9,0.2,1.5c0,3-0.8,6.8-2.5,11.2c0.8,0.8,1.7,1.1,2.6,1.1c1.1,0,2.5-1,4.2-2.9V37z M207.2,23.4
		c-0.2-0.1-0.6-0.1-1-0.1c-2.1,0-3.8,1.1-5,3.3c-1.2,2.2-1.8,4.8-1.8,7.8c0,1.6,0.3,2.9,0.8,3.8c0.5,0.9,1.2,1.4,2.2,1.4
		c1.2,0,2.4-1.1,3.8-3.2c-1.5-1.9-2.3-4-2.3-6.2C203.8,27.5,204.9,25.2,207.2,23.4z"/>
	<path class="st1" d="M239.2,37c-3.7,4-6.8,6.1-9.2,6.1c-1.2,0-2.2-0.4-3-1.2c-0.8-0.8-1.2-1.8-1.2-3c0-0.6,0.1-1.4,0.3-2.6
		c0.2-1.1,0.3-1.8,0.3-1.9c0-0.7-0.4-1.1-1.3-1.2c-0.8,0-1.3-0.4-1.3-1c0-0.6,0.1-0.9,0.4-1.2c0.2-0.2,0.7-0.3,1.3-0.3
		c1.8,0,3.1-0.4,4-1.1c0.9-0.7,1.3-1.5,1.3-2.5c0-0.7-0.2-1.2-0.7-1.6c-0.5-0.4-1.1-0.6-1.8-0.6c-0.4,0-0.8,0-1.2,0.1
		c-0.4,0.1-0.8,0.2-1.1,0.4c-0.4,0.2-0.8,0.5-1.2,0.8c-0.4,0.3-0.8,0.8-1.2,1.2c-0.4,0.5-0.9,1-1.4,1.7c-0.3,0.3-0.6,1.9-1,4.8
		c-0.2,1.5-0.3,2.8-0.4,4.1c-0.1,1.2-0.1,2.5,0,4l-5.5,0.9c-0.2-1.2-0.3-2.8-0.3-4.5c0-4.9,0.7-9.5,2-14c1.3-4.4,3.5-9,6.5-13.7
		c2.3-0.9,4.3-1.7,6-2.2c1.7-0.5,2.6-0.8,2.8-0.8c0.4,0,0.8,0.4,1.1,1.2c0.4,0.8,0.6,1.6,0.6,2.5c0,1.4-0.5,3-1.4,4.7
		c-1,1.7-2.5,3.8-4.5,6.2c1.4-0.4,2.5-0.6,3.4-0.6c1.5,0,2.8,0.4,3.7,1.2c1,0.8,1.4,1.8,1.4,2.9c0,2.7-2.4,4.7-7.3,6
		c1.9,0.4,2.9,1.6,2.9,3.3l-0.1,2.2c0,1,0.5,1.5,1.4,1.5c0.7,0,1.4-0.3,2.2-1s2-1.8,3.5-3.6V37z M223.1,25.2l1.6-1.8
		c4.8-5.4,7.2-9.2,7.2-11.4c0-1-0.4-1.5-1.3-1.5c-1,0-2.2,1.2-3.5,3.6C225.8,16.5,224.5,20.2,223.1,25.2z"/>
</g>
</svg>
