<svg id="레이어_1" data-name="레이어 1" xmlns="http://www.w3.org/2000/svg" width="181.75" height="36.27" viewBox="0 0 181.75 36.27">
  <defs>
    <style>
      .cls-1 {
        fill: #8d6262;
      }
    </style>
  </defs>
  <g>
    <path class="cls-1" d="M31.42,37.94a19.23,19.23,0,0,1-14.31,6.13A13.47,13.47,0,0,1,7.27,40.3a13,13,0,0,1-3.84-9.67A23.82,23.82,0,0,1,6.2,19.45,23.65,23.65,0,0,1,13.47,11,15.31,15.31,0,0,1,22.29,7.8,8.22,8.22,0,0,1,28.2,10a7.44,7.44,0,0,1,2.29,5.66,11.88,11.88,0,0,1-2.76,7.84,8.23,8.23,0,0,1-6.47,3.31,4.94,4.94,0,0,1-3.2-1,3.13,3.13,0,0,1-1.25-2.57,3.63,3.63,0,0,1,1.07-2.51,2.44,2.44,0,0,0,2.2,1.48q2,0,3.72-2.5a9.53,9.53,0,0,0,1.71-5.48,5.22,5.22,0,0,0-1-3.3A3.09,3.09,0,0,0,22,9.67q-2.32,0-5,2.9A23.56,23.56,0,0,0,12.62,20a23.87,23.87,0,0,0-1.77,8.65,12.44,12.44,0,0,0,3,8.58,9.59,9.59,0,0,0,7.54,3.35,10.23,10.23,0,0,0,5.23-1.34,20,20,0,0,0,4.83-4.21Z" transform="translate(-3.43 -7.8)"/>
    <path class="cls-1" d="M53.85,37.91a8.41,8.41,0,0,1-2.47,1.59,5.66,5.66,0,0,1-1.9.46,5.72,5.72,0,0,1-3.58-1.4Q42.3,44,37.64,44a5.82,5.82,0,0,1-4.7-2.18,8.78,8.78,0,0,1-1.8-5.78,13.43,13.43,0,0,1,4-9.79,13.14,13.14,0,0,1,9.68-4.09,7.8,7.8,0,0,1,3.12.46,2.13,2.13,0,0,1,1.21,1.09,4.71,4.71,0,0,1,.23,1.58,33.79,33.79,0,0,1-2.56,11.48A4,4,0,0,0,49.55,38q1.68,0,4.3-2.92Zm-8.25-14a3,3,0,0,0-1.08-.15q-3.24,0-5.09,3.4a16.56,16.56,0,0,0-1.84,8,7.87,7.87,0,0,0,.81,3.92,2.44,2.44,0,0,0,2.22,1.4q1.79,0,3.85-3.27a10.06,10.06,0,0,1-2.35-6.36A8.73,8.73,0,0,1,45.6,23.93Z" transform="translate(-3.43 -7.8)"/>
    <path class="cls-1" d="M90.67,37.91a42.44,42.44,0,0,1-5.35,4.58A7.66,7.66,0,0,1,81,44a3.23,3.23,0,0,1-2.61-1.14,4.61,4.61,0,0,1-1-3.07A23.16,23.16,0,0,1,78.77,33a26.25,26.25,0,0,0,1.35-5.05c0-.54-.28-.8-.83-.8a1.53,1.53,0,0,0-.6.17,7.66,7.66,0,0,0-.85.5c-.31.24-.66.52-1,.85s-.75.72-1.15,1.15-.87.91-1.3,1.43a5.57,5.57,0,0,0-1.3,2.18L72.23,37l-1.51,5.91L64.38,44l2.43-10.31c.18-.75.4-1.85.65-3.3a26,26,0,0,0,.38-2.6c0-.57-.2-.85-.58-.85a1.26,1.26,0,0,0-.5.17,5.13,5.13,0,0,0-.85.53,14.05,14.05,0,0,0-1.18.95c-.45.4-.93.86-1.45,1.37s-1.11,1.16-1.7,1.83A6.18,6.18,0,0,0,60.08,35c-.27,1.44-.45,2.72-.55,3.85s-.18,2.4-.2,3.81l-5.55,1.32c-.13-1.92-.2-3.52-.2-4.8a29.87,29.87,0,0,1,1-8,51.22,51.22,0,0,1,3.1-7.92l6-1.17A56.73,56.73,0,0,0,61.16,30q6.72-7.83,10.3-7.83a2.55,2.55,0,0,1,2.12,1.06A4.49,4.49,0,0,1,74.39,26a29.41,29.41,0,0,1-.25,2.95,56.7,56.7,0,0,1,6.07-5.51,6,6,0,0,1,3.39-1.29,2.75,2.75,0,0,1,2.25,1.1,4.38,4.38,0,0,1,.88,2.8,21.64,21.64,0,0,1-1.48,6.88,22.31,22.31,0,0,0-1.47,5.56c0,.93.34,1.39,1,1.39A3.5,3.5,0,0,0,86.62,39a39.52,39.52,0,0,0,4-4Z" transform="translate(-3.43 -7.8)"/>
    <path class="cls-1" d="M127.52,37.91a43.16,43.16,0,0,1-5.35,4.58A7.68,7.68,0,0,1,117.84,44a3.23,3.23,0,0,1-2.61-1.14,4.56,4.56,0,0,1-1-3.07A23.16,23.16,0,0,1,115.61,33,26.25,26.25,0,0,0,117,27.91c0-.54-.27-.8-.82-.8a1.45,1.45,0,0,0-.6.17,6.85,6.85,0,0,0-.85.5c-.32.24-.66.52-1,.85s-.75.72-1.15,1.15-.87.91-1.3,1.43a5.7,5.7,0,0,0-1.3,2.18L109.08,37l-1.51,5.91L101.23,44l2.43-10.31c.18-.75.4-1.85.65-3.3a24.6,24.6,0,0,0,.37-2.6c0-.57-.19-.85-.57-.85a1.22,1.22,0,0,0-.5.17,5.17,5.17,0,0,0-.86.53c-.36.26-.75.58-1.17.95s-.93.86-1.45,1.37-1.12,1.16-1.7,1.83A6.18,6.18,0,0,0,96.93,35c-.27,1.44-.45,2.72-.55,3.85s-.19,2.4-.2,3.81l-5.56,1.32c-.13-1.92-.2-3.52-.2-4.8a29.87,29.87,0,0,1,1-8,51.38,51.38,0,0,1,3.11-7.92l6-1.17A55.51,55.51,0,0,0,98,30q6.73-7.83,10.31-7.83a2.53,2.53,0,0,1,2.11,1.06,4.49,4.49,0,0,1,.82,2.79c0,.54-.09,1.52-.25,2.95a56.9,56.9,0,0,1,6.06-5.51,6.06,6.06,0,0,1,3.39-1.29,2.78,2.78,0,0,1,2.26,1.1,4.38,4.38,0,0,1,.87,2.8,21.86,21.86,0,0,1-1.47,6.88,22.31,22.31,0,0,0-1.47,5.56c0,.93.34,1.39,1,1.39a3.47,3.47,0,0,0,1.81-.86,38.25,38.25,0,0,0,4.06-4Z" transform="translate(-3.43 -7.8)"/>
    <path class="cls-1" d="M146.23,37.91a30.84,30.84,0,0,1-5.7,4.62A10.84,10.84,0,0,1,135,44a7.26,7.26,0,0,1-5.49-2.18,7.94,7.94,0,0,1-2.09-5.73,14.34,14.34,0,0,1,3.68-9.59q3.67-4.29,8.15-4.29a5.55,5.55,0,0,1,3.73,1.2,4,4,0,0,1,1.4,3.15q0,5.18-11,8.41,1,4.88,5.23,4.87A6.1,6.1,0,0,0,141.7,39,28.08,28.08,0,0,0,146.23,35Zm-13.11-4.62c4.27-1.21,6.41-3.42,6.41-6.66,0-1.6-.59-2.4-1.76-2.4s-2.15.84-3.15,2.51A12.68,12.68,0,0,0,133.12,33.29Z" transform="translate(-3.43 -7.8)"/>
    <path class="cls-1" d="M170.79,37.91Q165,44,160.89,44a3.41,3.41,0,0,1-2.7-1.18,4.58,4.58,0,0,1-1-3.15c0-1.79.73-4.51,2.2-8.18a15,15,0,0,0,1.18-3.75c0-.54-.21-.8-.63-.8a1.87,1.87,0,0,0-.92.35,12.1,12.1,0,0,0-1.23,1c-.42.39-.88.85-1.4,1.4s-.93,1-1.45,1.6l-1.4,1.63a5.12,5.12,0,0,0-1.15,2.38,36.59,36.59,0,0,0-.5,3.9c-.05.88-.08,2.07-.08,3.58l-5.53,1.3c-.18-2.26-.27-3.93-.27-5a29.93,29.93,0,0,1,.94-7.63,49.7,49.7,0,0,1,3-8.11l6.1-1.17a58.48,58.48,0,0,0-2.52,8.15A47.93,47.93,0,0,1,160,23.94a7.59,7.59,0,0,1,4.28-1.76,2.7,2.7,0,0,1,2.12,1,3.5,3.5,0,0,1,.85,2.41q0,2.4-2.15,7.9a18.7,18.7,0,0,0-1.47,4.91c0,1,.4,1.5,1.22,1.5,1.22,0,3.2-1.61,5.92-4.82Z" transform="translate(-3.43 -7.8)"/>
    <path class="cls-1" d="M185.17,37.91a35.26,35.26,0,0,1-5.45,4.62A8.12,8.12,0,0,1,175.34,44a4.13,4.13,0,0,1-3.48-1.82,7.76,7.76,0,0,1-1.34-4.76,25,25,0,0,1,1.28-6.87l1.06-3.79-1.92.1.8-3.93,2.38-.1,2.35-7.8,6.68-1.37-2.58,8.7,3.53-.2L183.27,26l-3.88.3-1.66,5.61a17.23,17.23,0,0,0-.87,4.65,2.93,2.93,0,0,0,.59,1.91,1.84,1.84,0,0,0,1.51.74,4.61,4.61,0,0,0,2.53-.81A24.7,24.7,0,0,0,185.17,35Z" transform="translate(-3.43 -7.8)"/>
  </g>
</svg>
