<?xml version="1.0" encoding="utf-8"?>
<!-- Generator: Adobe Illustrator 22.0.1, SVG Export Plug-In . SVG Version: 6.00 Build 0)  -->
<svg version="1.1" id="레이어_1" xmlns="http://www.w3.org/2000/svg" xmlns:xlink="http://www.w3.org/1999/xlink" x="0px"
	 y="0px" viewBox="0 0 153.2 55" style="enable-background:new 0 0 153.2 55;" xml:space="preserve">
<style type="text/css">
	.st0{enable-background:new    ;}
	.st1{fill:#8A6161;}
</style>
<title>gallery_tabtitle</title>
<g class="st0">
	<path class="st1" d="M32.3,34c-1.1,1.3-3.2,2.7-6.4,4.3c-0.7,4.3-2.1,7.7-4.3,10c-2.2,2.4-4.7,3.6-7.5,3.6c-1.3,0-2.4-0.3-3.1-0.9
		c-0.8-0.6-1.2-1.5-1.2-2.5c0-3,2.9-6,8.8-8.8c0.6-2.2,1.2-4.2,1.8-5.9c-1,1.5-2.5,2.8-4.5,3.9c-2,1.1-3.8,1.7-5.4,1.7
		c-2.7,0-5-1.2-6.8-3.6c-1.8-2.4-2.7-5.4-2.7-9c0-3.8,1-7.5,3.1-10.9s4.7-6.2,8.1-8.2c3.3-2.1,6.6-3.1,9.7-3.1
		c2.8,0,5.1,0.8,6.8,2.4s2.6,3.7,2.6,6.2c0,2.7-1,5.1-3,7.2s-4.2,3.1-6.8,3.1c-1.5,0-2.7-0.4-3.7-1.1s-1.5-1.6-1.5-2.7
		c0-0.7,0.2-1.2,0.6-1.7s0.8-0.8,1.3-0.8s0.7,0.3,0.7,0.9c0,0.5,0.2,0.9,0.6,1.2c0.4,0.3,0.8,0.4,1.3,0.4c1.3,0,2.6-0.9,3.7-2.7
		c1.2-1.8,1.8-3.7,1.8-5.7c0-1.4-0.5-2.6-1.4-3.5c-0.9-0.9-2.1-1.4-3.6-1.4c-2.2,0-4.3,1-6.4,2.9c-2.1,2-3.7,4.5-5,7.7
		S8,23.2,8,26.1c0,2.6,0.6,4.7,1.7,6.3c1.1,1.6,2.7,2.3,4.5,2.3c3.2,0,6.2-2.3,9.1-6.8l4.6-0.7c0.6-0.1,0.9,0.1,0.9,0.4
		c0,0.2-0.2,0.9-0.7,2.1c-0.4,1.2-1,3.3-1.8,6.2c2.5-1.5,4.5-3.1,5.9-4.9L32.3,34L32.3,34z M18.1,42.1c-4.2,2.1-6.3,4.2-6.3,6.3
		c0,1.1,0.5,1.6,1.6,1.6C15.4,50,17,47.4,18.1,42.1z"/>
	<path class="st1" d="M58.3,34c-2.6,2.5-4.5,4.1-5.6,4.8s-2.2,1.1-3.2,1.1c-2.6,0-3.8-2.3-3.6-6.8c-1.6,2.3-3.1,4-4.5,5.2
		C40,39.4,38.6,40,37.1,40c-1.4,0-2.6-0.7-3.6-2S32,35,32,33.1c0-2.4,0.7-4.8,2-7s3.1-4,5.2-5.4s4-2.1,5.6-2.1c2,0,3.5,0.9,4.3,2.8
		l5-2.8h1.4l-2.2,7.2c-1.1,3.6-1.7,6.1-1.7,7.4c0,1.4,0.5,2.1,1.5,2.1c0.6,0,1.3-0.3,2.1-1s1.8-1.7,3.2-3.1V34H58.3z M40.5,35.3
		c1.6,0,3.2-1.4,4.6-4.2c1.4-2.8,2.2-5.3,2.2-7.7c0-0.9-0.2-1.6-0.6-2.1c-0.4-0.5-1-0.8-1.6-0.8c-1.6,0-3.2,1.4-4.6,4.2
		c-1.5,2.8-2.2,5.3-2.2,7.6c0,0.9,0.2,1.6,0.6,2.1C39.3,35.1,39.8,35.3,40.5,35.3z"/>
	<path class="st1" d="M74.5,34c-2.2,2-4.2,3.5-5.8,4.5c-1.7,1-3.3,1.5-4.8,1.5c-1.7,0-3.1-0.7-4.2-2c-1.1-1.4-1.6-3.2-1.6-5.4
		c0-3.4,0.7-7.5,2.2-12.3s3.3-9.2,5.4-13.2l6.2-2.3c0.2-0.1,0.3-0.1,0.4-0.1c0.5,0,0.9,0.3,1.2,1C73.8,6.4,74,7.3,74,8.5
		c0,3.3-0.8,6.5-2.3,9.6s-3.9,6.4-7.2,10c-0.1,1.7-0.2,2.9-0.2,3.5c0,1.4,0.3,2.5,0.8,3.4c0.5,0.8,1.2,1.2,2.1,1.2s1.8-0.3,2.8-1
		c1-0.6,2.5-2,4.5-4V34z M65.1,24.5c2.1-2.3,3.7-4.9,5-7.7c1.3-2.9,1.9-5.3,1.9-7.4c0-0.6-0.1-1.1-0.3-1.5c-0.2-0.4-0.4-0.5-0.7-0.5
		c-0.6,0-1.5,1.5-2.6,4.5S66.2,19.1,65.1,24.5z"/>
	<path class="st1" d="M90.6,34c-2.2,2-4.2,3.5-5.8,4.5c-1.7,1-3.3,1.5-4.8,1.5c-1.7,0-3.1-0.7-4.2-2c-1.1-1.4-1.6-3.2-1.6-5.4
		c0-3.4,0.7-7.5,2.2-12.3s3.3-9.2,5.4-13.2L88,4.8c0.2-0.1,0.3-0.1,0.4-0.1c0.5,0,0.9,0.3,1.2,1c0.3,0.7,0.5,1.6,0.5,2.8
		c0,3.3-0.8,6.5-2.3,9.6s-3.9,6.4-7.2,10c-0.1,1.7-0.2,2.9-0.2,3.5c0,1.4,0.3,2.5,0.8,3.4s1.2,1.2,2.1,1.2s1.8-0.3,2.8-1
		s2.5-2,4.5-4V34z M81.3,24.5c2.1-2.3,3.7-4.9,5-7.7c1.3-2.9,1.9-5.3,1.9-7.4c0-0.6-0.1-1.1-0.3-1.5c-0.2-0.4-0.4-0.5-0.7-0.5
		c-0.6,0-1.5,1.5-2.6,4.5C83.5,14.9,82.4,19.1,81.3,24.5z"/>
	<path class="st1" d="M108.9,34c-2.1,2-3.9,3.5-5.6,4.5c-1.6,1-3.5,1.5-5.4,1.5c-2.2,0-4-0.7-5.4-2.1s-2-3.3-2-5.6
		c0-3.5,1.2-6.6,3.6-9.4s5-4.2,8-4.2c1.5,0,2.7,0.4,3.6,1.2c0.9,0.8,1.4,1.8,1.4,3.1c0,3.4-3.6,6.1-10.7,8.2
		c0.7,3.2,2.4,4.8,5.1,4.8c1.1,0,2.1-0.3,3.1-0.9c1-0.6,2.4-1.9,4.4-3.8L108.9,34L108.9,34z M96.1,29.5c4.2-1.2,6.3-3.3,6.3-6.5
		c0-1.6-0.6-2.3-1.7-2.3s-2.1,0.8-3.1,2.5C96.6,24.7,96.1,26.9,96.1,29.5z"/>
	<path class="st1" d="M127.2,34c-4.1,4-7.2,6-9.4,6c-1,0-1.8-0.4-2.5-1.3c-0.7-0.8-1-1.9-1-3.1c0-2.3,1.2-5.4,3.7-9.2
		c-1.2,0.6-2.5,1-4,1.3c-1.1,2-2.7,4.1-5,6.3h-0.6v-2.2c1.3-1.3,2.4-2.7,3.4-4.2c-1.4-0.6-2.1-1.5-2.1-2.8s0.4-2.6,1.3-4
		s2-2.1,3.5-2.1c1.3,0,1.9,0.7,1.9,2c0,1-0.4,2.5-1.1,4.4c2.7-0.3,5.1-2.4,7.1-6.2l2.2-0.1l-2.3,6.3c-0.9,2.6-1.6,4.4-1.8,5.4
		c-0.3,1-0.4,1.8-0.4,2.5s0.2,1.2,0.5,1.6c0.3,0.4,0.7,0.6,1.3,0.6c0.6,0,1.1-0.2,1.7-0.6c0.5-0.4,1.7-1.5,3.6-3.3
		C127.2,31.3,127.2,34,127.2,34z"/>
	<path class="st1" d="M153.2,34c-2.1,2-5.4,4.1-9.9,6.1c-1.5,4.3-3.2,7.3-5.1,9.1c-1.9,1.8-3.9,2.7-5.9,2.7c-1,0-1.9-0.3-2.5-1
		s-0.9-1.5-0.9-2.5c0-3.2,2.9-6.1,8.8-8.7l1.5-5.2c-3.1,3.4-5.8,5.2-8.1,5.2c-1.3,0-2.3-0.5-3-1.5c-0.8-1-1.2-2.4-1.2-4.1
		c0-2.5,0.5-5.1,1.6-7.9l2.3-6.2l7.1-1.2l-3,7.2c-1.4,3.5-2.1,6.1-2.1,7.9c0,1.5,0.5,2.2,1.5,2.2s2.2-0.8,3.5-2.4
		c1.3-1.6,2.4-3.6,3.3-6l2.8-7.7l6.7-1.2l-6.3,19.1c3.7-1.7,6.8-3.9,9.2-6.5V34H153.2z M137,42.2c-2,0.9-3.5,1.9-4.6,3
		s-1.6,2.2-1.6,3.3s0.5,1.6,1.4,1.6C133.9,50.1,135.6,47.4,137,42.2z"/>
</g>
</svg>
