<?xml version="1.0" encoding="utf-8"?>
<!-- Generator: Adobe Illustrator 25.0.0, SVG Export Plug-In . SVG Version: 6.00 Build 0)  -->
<svg version="1.1" id="레이어_1" xmlns="http://www.w3.org/2000/svg" xmlns:xlink="http://www.w3.org/1999/xlink" x="0px"
	 y="0px" viewBox="0 0 261.7 70" style="enable-background:new 0 0 261.7 70;" xml:space="preserve">
<style type="text/css">
	.st0{fill:#8A6161;}
</style>
<g>
	<path class="st0" d="M50.4,41.5c-3.6,3.9-7,5.9-10,5.9c-1.8,0-3.2-0.9-4.2-2.6c-1-1.8-1.4-4.1-1.4-7.1c0-2.3,0.5-5.4,1.4-9.4
		s2.1-7.3,3.6-10.1l1.4-2.5c-1.9,2-3.5,4.2-4.8,6.6c-1.2,2.4-2.7,5.8-4.4,10.1c-1.7,4.3-3,7.3-3.9,8.8S26.4,44,25.6,45
		s-1.5,1.6-2.1,1.9c-0.6,0.3-1.7,0.4-3.3,0.4c-0.6,0-0.9-0.2-0.9-0.5c0,0,0.1-0.5,0.3-1.5s0.4-2.6,0.7-4.8c0.2-2.2,0.4-5.9,0.5-11.2
		c0.1-5.2,0.9-9.7,2.3-13.5c-1.5,1.7-3.1,5.8-4.7,12.2l-0.6,2.4C16.1,37,14.2,41.5,12,43.8s-4.3,3.5-6.4,3.5c-1.3,0-2.4-0.4-3.4-1.2
		s-1.5-1.7-1.5-2.8c0-0.8,0.6-1.7,1.8-2.7s1.9-1.5,2.2-1.5c0.4,0,0.6,0.1,0.7,0.4s0.3,0.9,0.4,2c0.2,1.1,0.5,1.8,0.8,2.1
		C7,43.9,7.4,44.1,8,44.1c1.3,0,2.6-1.3,4.2-3.8c1.5-2.5,2.9-6.4,4.2-11.7l0.7-3c0.6-2.4,1.1-4.3,1.7-5.8c0.6-1.4,1.3-2.9,2.2-4.3
		c1.3-2.1,2.1-3.1,2.4-3.3c0.3-0.1,0.9-0.3,1.7-0.3c0.8-0.1,1.7-0.1,2.5-0.1c0.3,0,0.5,0.2,0.5,0.6c0,0.2-0.1,0.5-0.2,1.1
		c-0.3,2.3-0.5,4.6-0.5,6.9v6.5c0,5.7-0.4,10.3-1.4,13.8c0.9-1,2.1-3.7,3.8-8.1c2.4-6.1,4.5-10.7,6.5-13.8c0.9-1.5,2-2.9,3.4-4.3
		c1.3-1.4,2.2-2.1,2.7-2.2c1.7-0.3,3.2-0.5,4.4-0.5c0.4,0,0.7,0.1,0.7,0.4c0,0.3-0.3,1.1-0.8,2.3c-1.3,2.9-2.4,6.7-3.5,11.6
		s-1.6,8.8-1.7,11.7c0,3.3,1,4.9,3,4.9c1.6,0,3.6-1.4,5.8-4.2v3H50.4z"/>
	<path class="st0" d="M76.4,41.5c-2.6,2.5-4.5,4.1-5.6,4.8s-2.2,1.1-3.2,1.1c-2.6,0-3.8-2.3-3.6-6.8c-1.6,2.3-3.1,4-4.5,5.2
		c-1.4,1.1-2.8,1.7-4.3,1.7c-1.4,0-2.6-0.7-3.6-2s-1.5-3-1.5-4.9c0-2.4,0.7-4.8,2-7s3.1-4,5.2-5.4s4-2.1,5.6-2.1
		c2,0,3.5,0.9,4.3,2.8l5-2.8h1.4l-2.2,7.2c-1.1,3.6-1.7,6.1-1.7,7.4c0,1.4,0.5,2.1,1.5,2.1c0.6,0,1.3-0.3,2.1-1s1.8-1.7,3.2-3.1
		L76.4,41.5L76.4,41.5z M58.5,42.8c1.6,0,3.2-1.4,4.6-4.2c1.4-2.8,2.2-5.3,2.2-7.7c0-0.9-0.2-1.6-0.6-2.1c-0.4-0.5-1-0.8-1.6-0.8
		c-1.6,0-3.2,1.4-4.6,4.2c-1.5,2.8-2.2,5.3-2.2,7.6c0,0.9,0.2,1.6,0.6,2.1C57.3,42.6,57.9,42.8,58.5,42.8z"/>
	<path class="st0" d="M100.4,41.5c-3.8,4-7,6-9.7,6c-1.1,0-2-0.4-2.6-1.1c-0.7-0.8-1-1.8-1-3.1c0-1.7,0.7-4.4,2.1-8
		c0.8-1.9,1.1-3.1,1.1-3.7c0-0.5-0.2-0.8-0.6-0.8c-0.2,0-0.5,0.1-0.9,0.3c-0.3,0.2-0.7,0.5-1.2,1c-0.4,0.4-0.9,0.8-1.4,1.4
		c-0.4,0.5-0.9,1-1.4,1.6l-1.4,1.6c-0.6,0.7-1,1.5-1.1,2.3c-0.2,1.4-0.4,2.7-0.5,3.8c0,0.9-0.1,2-0.1,3.5l-5.4,1.3
		c-0.2-2.2-0.3-3.8-0.3-4.9c0-2.6,0.3-5.1,0.9-7.4c0.6-2.3,1.6-5,2.9-7.9l6-1.1c-1.3,3.4-2.1,6-2.5,8c2.7-3,4.8-5,6.4-6.2
		c1.6-1.1,3-1.7,4.2-1.7c0.8,0,1.5,0.3,2.1,0.9s0.8,1.4,0.8,2.4c0,1.6-0.7,4.1-2.1,7.7c-1,2.5-1.4,4.1-1.4,4.8c0,1,0.4,1.5,1.2,1.5
		c1.2,0,3.1-1.6,5.8-4.7L100.4,41.5L100.4,41.5z"/>
	<path class="st0" d="M126.4,41.5c-2.6,2.5-4.5,4.1-5.6,4.8s-2.2,1.1-3.2,1.1c-2.6,0-3.8-2.3-3.6-6.8c-1.6,2.3-3.1,4-4.5,5.2
		c-1.4,1.1-2.8,1.7-4.3,1.7c-1.4,0-2.6-0.7-3.6-2s-1.5-3-1.5-4.9c0-2.4,0.7-4.8,2-7s3.1-4,5.2-5.4s4-2.1,5.6-2.1
		c2,0,3.5,0.9,4.3,2.8l5-2.8h1.4l-2.2,7.2c-1.1,3.6-1.7,6.1-1.7,7.4c0,1.4,0.5,2.1,1.5,2.1c0.6,0,1.3-0.3,2.1-1
		c0.8-0.7,1.8-1.7,3.2-3.1L126.4,41.5L126.4,41.5z M108.5,42.8c1.6,0,3.2-1.4,4.6-4.2c1.4-2.8,2.2-5.3,2.2-7.7
		c0-0.9-0.2-1.6-0.6-2.1c-0.4-0.5-1-0.8-1.6-0.8c-1.6,0-3.2,1.4-4.6,4.2c-1.5,2.8-2.2,5.3-2.2,7.6c0,0.9,0.2,1.6,0.6,2.1
		C107.3,42.6,107.9,42.8,108.5,42.8z"/>
	<path class="st0" d="M150.4,41.5c-2.1,2.2-4.5,3.8-7.4,4.8c-1.4,4.2-3.1,7.5-5.1,9.7c-2.1,2.3-4.3,3.4-6.6,3.4
		c-1.3,0-2.3-0.4-3.1-1.2c-0.8-0.8-1.2-1.8-1.2-3.1c0-1.7,0.8-3.3,2.3-4.7c1.6-1.4,4.2-2.7,7.9-4l1-4.8c-1.6,1.8-2.9,3-4.1,3.9
		c-1.1,0.8-2.3,1.2-3.4,1.2c-1.4,0-2.5-0.6-3.3-1.9c-0.9-1.3-1.3-2.9-1.3-5c0-3.3,1.3-6.4,3.8-9.3c2.5-2.9,5.2-4.4,8.1-4.4
		c1.6,0,3,0.7,4.2,2c0.7-0.3,1.7-0.7,2.9-1.2l1.7-0.8h0.6c-0.6,1.9-1.1,3.8-1.5,5.6L143.6,44c2.2-0.8,4.5-2.6,6.8-5.3L150.4,41.5
		L150.4,41.5z M136.7,48.6c-5.3,1.9-7.9,4.1-7.9,6.5c0,0.7,0.2,1.3,0.7,1.8c0.4,0.5,1,0.7,1.7,0.7c1.2,0,2.2-0.7,3.1-2.2
		C135.1,53.9,135.9,51.6,136.7,48.6z M134.6,42.3c1.2,0,2.2-0.7,3.1-2.1c0.9-1.4,1.6-3.1,2.1-5.2c0.5-2.1,0.7-3.6,0.7-4.4
		s-0.2-1.4-0.6-1.9S139,28,138.5,28c-1.7,0-3.2,1.2-4.5,3.5s-1.9,4.7-1.9,7.1c0,1.1,0.2,2,0.7,2.7C133.3,42,133.9,42.3,134.6,42.3z"
		/>
	<path class="st0" d="M168.6,41.5c-2.1,2-3.9,3.5-5.6,4.5c-1.6,1-3.5,1.5-5.4,1.5c-2.2,0-4-0.7-5.4-2.1c-1.4-1.4-2-3.3-2-5.6
		c0-3.5,1.2-6.6,3.6-9.4s5-4.2,8-4.2c1.5,0,2.7,0.4,3.6,1.2c0.9,0.8,1.4,1.8,1.4,3.1c0,3.4-3.6,6.1-10.7,8.2
		c0.7,3.2,2.4,4.8,5.1,4.8c1.1,0,2.1-0.3,3.1-0.9c1-0.6,2.4-1.9,4.4-3.8v2.7H168.6z M155.8,37c4.2-1.2,6.3-3.3,6.3-6.5
		c0-1.6-0.6-2.3-1.7-2.3s-2.1,0.8-3.1,2.5C156.3,32.2,155.8,34.4,155.8,37z"/>
	<path class="st0" d="M204.6,41.5c-2,2-3.8,3.5-5.2,4.5c-1.4,1-2.9,1.5-4.2,1.5c-1.1,0-1.9-0.4-2.6-1.1c-0.6-0.7-0.9-1.7-0.9-3
		c0-1.8,0.4-4,1.3-6.7s1.3-4.3,1.3-4.9c0-0.5-0.3-0.8-0.8-0.8c-0.2,0-0.4,0.1-0.6,0.2s-0.5,0.3-0.8,0.5s-0.6,0.5-1,0.8
		c-0.4,0.3-0.7,0.7-1.1,1.1s-0.8,0.9-1.3,1.4c-0.7,0.8-1.1,1.6-1.3,2.1l-0.8,3.5l-1.5,5.8l-6.2,1.1l2.4-10.1
		c0.2-0.7,0.4-1.8,0.6-3.2s0.4-2.3,0.4-2.5c0-0.6-0.2-0.8-0.6-0.8c-0.1,0-0.3,0.1-0.5,0.2s-0.5,0.3-0.8,0.5
		c-0.4,0.3-0.7,0.6-1.1,0.9c-0.4,0.4-0.9,0.8-1.4,1.3s-1.1,1.1-1.7,1.8c-0.8,0.9-1.3,1.9-1.5,3.1c-0.3,1.4-0.4,2.7-0.5,3.8
		s-0.2,2.3-0.2,3.7l-5.4,1.3c-0.1-1.9-0.2-3.4-0.2-4.7c0-3,0.3-5.6,0.9-7.8s1.6-4.8,3-7.7l5.9-1.1c-1.1,2.7-1.9,5.2-2.5,7.7
		c4.4-5.1,7.7-7.6,10.1-7.6c0.8,0,1.5,0.3,2.1,1c0.5,0.7,0.8,1.6,0.8,2.7c0,0.5-0.1,1.5-0.2,2.9c2.8-2.8,4.7-4.5,5.9-5.4
		c1.2-0.8,2.3-1.3,3.3-1.3c0.9,0,1.6,0.4,2.2,1.1s0.9,1.6,0.9,2.7c0,1.7-0.5,4-1.4,6.7s-1.4,4.5-1.4,5.4s0.3,1.4,1,1.4
		c0.4,0,1-0.3,1.8-0.8c0.8-0.6,2.1-1.9,4-3.9v2.7H204.6z"/>
	<path class="st0" d="M222.8,41.5c-2.1,2-3.9,3.5-5.6,4.5c-1.6,1-3.5,1.5-5.4,1.5c-2.2,0-4-0.7-5.4-2.1c-1.4-1.4-2-3.3-2-5.6
		c0-3.5,1.2-6.6,3.6-9.4s5-4.2,8-4.2c1.5,0,2.7,0.4,3.6,1.2c0.9,0.8,1.4,1.8,1.4,3.1c0,3.4-3.6,6.1-10.7,8.2
		c0.7,3.2,2.4,4.8,5.1,4.8c1.1,0,2.1-0.3,3.1-0.9c1-0.6,2.4-1.9,4.4-3.8v2.7H222.8z M210,37c4.2-1.2,6.3-3.3,6.3-6.5
		c0-1.6-0.6-2.3-1.7-2.3s-2.1,0.8-3.1,2.5C210.5,32.2,210,34.4,210,37z"/>
	<path class="st0" d="M246.8,41.5c-3.8,4-7,6-9.7,6c-1.1,0-2-0.4-2.6-1.1c-0.7-0.8-1-1.8-1-3.1c0-1.7,0.7-4.4,2.1-8
		c0.8-1.9,1.1-3.1,1.1-3.7c0-0.5-0.2-0.8-0.6-0.8c-0.2,0-0.5,0.1-0.9,0.3c-0.3,0.2-0.7,0.5-1.2,1c-0.4,0.4-0.9,0.8-1.4,1.4
		c-0.4,0.5-0.9,1-1.4,1.6l-1.4,1.6c-0.6,0.7-1,1.5-1.1,2.3c-0.2,1.4-0.4,2.7-0.5,3.8c0,0.9-0.1,2-0.1,3.5l-5.4,1.3
		c-0.2-2.2-0.3-3.8-0.3-4.9c0-2.6,0.3-5.1,0.9-7.4c0.6-2.3,1.6-5,2.9-7.9l6-1.1c-1.3,3.4-2.1,6-2.5,8c2.7-3,4.8-5,6.4-6.2
		c1.6-1.1,3-1.7,4.2-1.7c0.8,0,1.5,0.3,2.1,0.9s0.8,1.4,0.8,2.4c0,1.6-0.7,4.1-2.1,7.7c-1,2.5-1.4,4.1-1.4,4.8c0,1,0.4,1.5,1.2,1.5
		c1.2,0,3.1-1.6,5.8-4.7v2.5H246.8z"/>
	<path class="st0" d="M260.8,41.5c-2.1,2-3.8,3.5-5.3,4.5c-1.5,1-2.9,1.5-4.3,1.5s-2.5-0.6-3.4-1.8s-1.3-2.7-1.3-4.7
		c0-1.7,0.4-3.9,1.3-6.7l1-3.7l-1.9,0.1l0.8-3.8l2.3-0.1l2.3-7.6l6.5-1.3l-2.5,8.5l3.4-0.2l-0.8,3.8l-3.8,0.3l-1.6,5.5
		c-0.6,1.9-0.8,3.4-0.8,4.5c0,0.8,0.2,1.4,0.6,1.9s0.9,0.7,1.5,0.7c0.8,0,1.7-0.3,2.5-0.8s2-1.6,3.6-3.3v2.7H260.8z"/>
</g>
</svg>
