<?xml version="1.0" encoding="utf-8"?>
<!-- Generator: Adobe Illustrator 22.0.1, SVG Export Plug-In . SVG Version: 6.00 Build 0)  -->
<svg version="1.1" id="레이어_1" xmlns="http://www.w3.org/2000/svg" xmlns:xlink="http://www.w3.org/1999/xlink" x="0px"
	 y="0px" viewBox="0 0 128.8 55" style="enable-background:new 0 0 128.8 55;" xml:space="preserve">
<style type="text/css">
	.st0{enable-background:new    ;}
	.st1{fill:#8A6161;}
</style>
<title>Studio_tabtitle</title>
<g class="st0">
	<path class="st1" d="M26,12c0,0.6-1,2.2-3.1,4.7h-0.4c-0.3-0.1-0.5-0.6-0.6-1.4c-0.2-1.7-0.8-3-1.7-4.1c-1-1.1-2.1-1.6-3.5-1.6
		c-1.3,0-2.4,0.5-3.3,1.4S12,13.1,12,14.4c0,0.9,0.3,2,0.9,3c0.6,1.1,2.1,2.8,4.6,5.1s4,4.2,4.7,5.6c0.7,1.4,1,2.7,1,4
		c0,2.9-1.3,5.4-3.8,7.7c-2.5,2.2-5.5,3.3-8.8,3.3c-2.8,0-5.1-0.6-6.9-1.9C1.9,39.8,1,38.7,1,37.9c0-0.5,0.5-1.5,1.5-3.2
		s1.6-2.5,1.7-2.5c0.5,0,0.9,0.2,1.1,0.5s0.4,0.9,0.5,1.7c0.2,2.5,0.9,4.3,1.8,5.2c1,1,2.3,1.4,3.8,1.4c1.7,0,3.2-0.6,4.5-1.8
		s1.9-2.6,1.9-4.2c0-0.8-0.3-1.7-0.7-2.6c-0.5-0.9-1.9-2.5-4.2-4.7s-3.8-4.1-4.5-5.6s-1.1-3-1.1-4.5c0-2.5,1-4.8,2.9-7
		c1.9-2.1,4.4-3.2,7.6-3.2c2.4,0,4.4,0.5,6,1.6C25.3,10.4,26,11.3,26,12z"/>
	<path class="st1" d="M42.7,37c-2.1,2-3.8,3.5-5.3,4.5S34.5,43,33.1,43c-1.4,0-2.5-0.6-3.4-1.8s-1.3-2.7-1.3-4.7
		c0-1.7,0.4-3.9,1.3-6.7l1-3.7l-1.9,0.1l0.8-3.8l2.3-0.1l2.3-7.6l6.5-1.3l-2.5,8.5l3.4-0.2l-0.8,3.8L37,25.8l-1.6,5.5
		c-0.6,1.9-0.8,3.4-0.8,4.5c0,0.8,0.2,1.4,0.6,1.9c0.4,0.5,0.9,0.7,1.5,0.7c0.8,0,1.7-0.3,2.5-0.8s2-1.6,3.6-3.3V37H42.7z"/>
	<path class="st1" d="M68.8,37c-2.1,2-3.9,3.5-5.4,4.5c-1.4,1-2.8,1.5-3.9,1.5c-1.3,0-2.3-0.5-3-1.5s-1-2.4-1-4.2
		c-1.8,2-3.4,3.4-4.8,4.4c-1.4,0.9-2.8,1.4-4.2,1.4c-1.2,0-2.2-0.5-3-1.5c-0.7-1-1.1-2.4-1.1-4.2c0-3.4,1.1-8.2,3.4-14.3l6.5-1.3
		c-2.7,7.8-4,12.8-4,15c0,1.6,0.6,2.3,1.8,2.3c0.8,0,1.9-0.7,3.1-2.1c1.3-1.4,2-2.6,2.3-3.6L58.8,23l6.6-1.3
		c-1.5,4.9-2.6,8.3-3.2,10.3c-0.6,2-0.9,3.4-0.9,4.2c0,1.5,0.5,2.3,1.6,2.3c0.8,0,2.1-0.8,3.8-2.3l2.1-1.9
		C68.8,34.3,68.8,37,68.8,37z"/>
	<path class="st1" d="M94.8,37c-2.3,2.3-4.1,3.9-5.4,4.7c-1.2,0.8-2.3,1.2-3.3,1.2c-1.2,0-2.1-0.6-2.7-1.7c-0.7-1.1-1-2.8-1-4.9
		c-1.3,2.2-2.8,3.8-4.4,4.9s-3,1.7-4.3,1.7c-1.4,0-2.6-0.7-3.7-2s-1.6-2.8-1.6-4.6c0-3.6,1.3-7,4-10.1c2.6-3.1,5.5-4.7,8.5-4.7
		c0.8,0,1.5,0.1,2,0.4s1,0.7,1.6,1.2L88,8.5c2.9-0.7,4.8-1,5.8-1c0.3,0,0.5,0.1,0.5,0.4c0,0.2-0.4,1.9-1.2,5.1
		c-3.3,12.8-4.9,20.5-4.9,23.1c0,0.6,0.1,1.1,0.4,1.5s0.6,0.6,1,0.6c1,0,2.8-1.4,5.1-4.1L94.8,37L94.8,37z M77.2,38.3
		c1.6,0,3.1-1.4,4.5-4.1c1.4-2.7,2.1-5.2,2.1-7.6c0-1-0.2-1.7-0.6-2.3c-0.4-0.6-1-0.9-1.7-0.9c-1.5,0-3,1.4-4.4,4.2S75,33,75,35.3
		c0,0.9,0.2,1.6,0.6,2.1C75.9,38,76.5,38.3,77.2,38.3z"/>
	<path class="st1" d="M106.8,37c-3.8,4-6.7,6-8.5,6c-1,0-1.9-0.5-2.6-1.6s-1.1-2.4-1.1-4c0-3.5,1.2-8.3,3.5-14.4l6.2-1.3h0.3
		l-2.4,7.6c-1,3.2-1.5,5.4-1.5,6.8c0,0.5,0.1,1,0.4,1.3c0.2,0.3,0.5,0.5,0.9,0.5c0.6,0,1.3-0.2,1.9-0.7s1.7-1.5,3-3V37H106.8z
		 M106.3,12.2c0,3.9-1.4,5.9-4.3,5.9c-1.4,0-2.6-0.4-3.6-1.3c0.9-1.4,1.7-3,2.2-4.8c1.3,0.8,2.3,1.2,3.1,1.2
		C104.6,13.1,105.5,12.8,106.3,12.2z"/>
	<path class="st1" d="M128.8,37c-0.8,0.7-1.6,1.2-2.4,1.5S125,39,124.5,39c-1.2,0-2.3-0.5-3.5-1.4c-2.3,3.5-5,5.3-8.1,5.3
		c-1.9,0-3.4-0.7-4.6-2.1s-1.8-3.3-1.8-5.6c0-3.7,1.3-6.9,4-9.6c2.6-2.7,5.8-4,9.4-4c1.4,0,2.4,0.2,3,0.5s1,0.7,1.2,1.1
		c0.1,0.4,0.2,0.9,0.2,1.5c0,3-0.8,6.8-2.5,11.2c0.8,0.8,1.7,1.1,2.6,1.1c1.1,0,2.5-1,4.2-2.9V37H128.8z M120.7,23.4
		c-0.2-0.1-0.6-0.1-1-0.1c-2.1,0-3.8,1.1-5,3.3s-1.8,4.8-1.8,7.8c0,1.6,0.3,2.9,0.8,3.8c0.5,0.9,1.2,1.4,2.2,1.4
		c1.2,0,2.4-1.1,3.8-3.2c-1.5-1.9-2.3-4-2.3-6.2C117.3,27.5,118.4,25.2,120.7,23.4z"/>
</g>
</svg>
