<?xml version="1.0" encoding="utf-8"?>
<!-- Generator: Adobe Illustrator 22.0.1, SVG Export Plug-In . SVG Version: 6.00 Build 0)  -->
<svg version="1.1" id="레이어_1" xmlns="http://www.w3.org/2000/svg" xmlns:xlink="http://www.w3.org/1999/xlink" x="0px"
	 y="0px" viewBox="0 0 168.8 55" style="enable-background:new 0 0 168.8 55;" xml:space="preserve">
<style type="text/css">
	.st0{enable-background:new    ;}
	.st1{fill:#8A6161;}
</style>
<title>timeline_tabtitle</title>
<g>
	<g class="st0">
		<path class="st1" d="M24.9,16.6c0.6,0,1,0.2,1,0.6l-0.6,3.2l-0.1,6c-0.1,2-0.4,3.8-0.9,5.4c-0.5,1.5-1.1,3-2,4.2
			c-0.8,1.2-1.7,2.2-2.8,3.1c-1,0.8-2.1,1.5-3.3,2.1c-1.1,0.5-2.3,0.9-3.5,1.2c-1.1,0.3-2.3,0.4-3.4,0.4c-2.7,0-4.7-0.6-6.2-1.7
			c-1.5-1.1-2.3-2.3-2.3-3.3c0-0.6,0.6-1.4,1.7-2.4s2-1.5,2.5-1.5c0.7,0,1,0.7,1,2C6,38,6.3,39.4,7,40s1.6,0.9,2.8,0.9
			c1.9,0,3.5-0.6,4.9-1.8s2.4-2.6,2.8-4.3c0.5-1.7,0.7-4.1,0.8-7.3c0-3.2,0.3-5.4,0.7-6.7c0.5-1.2,1.3-2.3,2.6-3.1
			C22.9,17.1,24,16.6,24.9,16.6z M34.1,9.1c-0.5,3.5-2,5.2-4.5,5.2c-0.9,0-2.6-0.4-5.1-1.2C22,12.4,19.9,12,18.1,12
			c-2.3,0-4.3,0.9-6,2.6s-2.6,3.2-2.6,4.5s0.8,2.4,2.3,3.4c0.6,0.4,1,0.8,1,1.1c0,0.4-0.5,1-1.4,1.8s-1.6,1.1-2,1.1
			c-0.8,0-1.5-0.4-2.1-1.3c-0.7-0.9-1-1.8-1-2.9c0-2,0.8-4.2,2.5-6.6c1.6-2.4,3.8-4.3,6.4-5.8c2.7-1.5,5.4-2.3,8.3-2.3
			c2,0,3.8,0.3,5.6,0.9c1.8,0.6,2.9,0.9,3.3,0.9s0.7-0.1,1-0.3h0.1L34.1,9.1z"/>
	</g>
	<g class="st0">
		<path class="st1" d="M44.1,37c-3.8,4-6.7,6-8.5,6c-1,0-1.9-0.5-2.6-1.6c-0.7-1.1-1.1-2.4-1.1-4c0-3.5,1.2-8.3,3.5-14.4l6.2-1.3
			h0.3l-2.4,7.6c-1,3.2-1.5,5.4-1.5,6.8c0,0.5,0.1,1,0.4,1.3c0.2,0.3,0.5,0.5,0.9,0.5c0.6,0,1.3-0.2,1.9-0.7c0.6-0.5,1.7-1.5,3-3V37
			H44.1z M43.7,12.2c0,3.9-1.4,5.9-4.3,5.9c-1.4,0-2.6-0.4-3.6-1.3c0.9-1.4,1.7-3,2.2-4.8c1.3,0.8,2.3,1.2,3.1,1.2
			C41.9,13.1,42.8,12.8,43.7,12.2z"/>
		<path class="st1" d="M80.1,37c-2,2-3.8,3.5-5.2,4.5c-1.4,1-2.9,1.5-4.2,1.5c-1.1,0-1.9-0.4-2.6-1.1c-0.6-0.7-0.9-1.7-0.9-3
			c0-1.8,0.4-4,1.3-6.7s1.3-4.3,1.3-4.9c0-0.5-0.3-0.8-0.8-0.8c-0.2,0-0.4,0.1-0.6,0.2s-0.5,0.3-0.8,0.5s-0.6,0.5-1,0.8
			s-0.7,0.7-1.1,1.1s-0.8,0.9-1.3,1.4c-0.7,0.8-1.1,1.6-1.3,2.1l-0.8,3.5l-1.5,5.8L54.4,43l2.4-10.1c0.2-0.7,0.4-1.8,0.6-3.2
			s0.4-2.3,0.4-2.5c0-0.6-0.2-0.8-0.6-0.8c-0.1,0-0.3,0.1-0.5,0.2s-0.5,0.3-0.8,0.5c-0.4,0.3-0.7,0.6-1.1,0.9
			c-0.4,0.4-0.9,0.8-1.4,1.3s-1.1,1.1-1.7,1.8c-0.8,0.9-1.3,1.9-1.5,3.1c-0.3,1.4-0.4,2.7-0.5,3.8s-0.2,2.3-0.2,3.7L44.1,43
			c-0.1-1.9-0.2-3.4-0.2-4.7c0-3,0.3-5.6,0.9-7.8c0.6-2.2,1.6-4.8,3-7.7l5.9-1.1c-1.1,2.7-1.9,5.2-2.5,7.7c4.4-5.1,7.7-7.6,10.1-7.6
			c0.8,0,1.5,0.3,2.1,1c0.5,0.7,0.8,1.6,0.8,2.7c0,0.5-0.1,1.5-0.2,2.9c2.8-2.8,4.7-4.5,5.9-5.4c1.2-0.8,2.3-1.3,3.3-1.3
			c0.9,0,1.6,0.4,2.2,1.1s0.9,1.6,0.9,2.7c0,1.7-0.5,4-1.4,6.7c-1,2.7-1.4,4.5-1.4,5.4s0.3,1.4,1,1.4c0.4,0,1-0.3,1.8-0.8
			c0.8-0.6,2.1-1.9,4-3.9V37H80.1z"/>
		<path class="st1" d="M98.4,37c-2.1,2-3.9,3.5-5.6,4.5c-1.6,1-3.5,1.5-5.4,1.5c-2.2,0-4-0.7-5.4-2.1c-1.4-1.4-2-3.3-2-5.6
			c0-3.5,1.2-6.6,3.6-9.4s5-4.2,8-4.2c1.5,0,2.7,0.4,3.6,1.2s1.4,1.8,1.4,3.1c0,3.4-3.6,6.1-10.7,8.2c0.7,3.2,2.4,4.8,5.1,4.8
			c1.1,0,2.1-0.3,3.1-0.9c1-0.6,2.4-1.9,4.4-3.8L98.4,37L98.4,37z M85.6,32.5c4.2-1.2,6.3-3.3,6.3-6.5c0-1.6-0.6-2.3-1.7-2.3
			s-2.1,0.8-3.1,2.5C86.1,27.7,85.6,29.9,85.6,32.5z"/>
		<path class="st1" d="M114.5,37c-2.2,2-4.2,3.5-5.8,4.5c-1.7,1-3.3,1.5-4.8,1.5c-1.7,0-3.1-0.7-4.2-2c-1.1-1.4-1.6-3.2-1.6-5.4
			c0-3.4,0.7-7.5,2.2-12.3s3.3-9.2,5.4-13.2l6.2-2.3c0.2-0.1,0.3-0.1,0.4-0.1c0.5,0,0.9,0.3,1.2,1c0.3,0.7,0.5,1.6,0.5,2.8
			c0,3.3-0.8,6.5-2.3,9.6s-3.9,6.4-7.2,10c-0.1,1.7-0.2,2.9-0.2,3.5c0,1.4,0.3,2.5,0.8,3.4s1.2,1.2,2.1,1.2s1.8-0.3,2.8-1
			s2.5-2,4.5-4V37z M105.2,27.5c2.1-2.3,3.7-4.9,5-7.7s1.9-5.3,1.9-7.4c0-0.6-0.1-1.1-0.3-1.5c-0.2-0.4-0.4-0.5-0.7-0.5
			c-0.6,0-1.5,1.5-2.6,4.5S106.3,22.1,105.2,27.5z"/>
		<path class="st1" d="M126.5,37c-3.8,4-6.7,6-8.5,6c-1,0-1.9-0.5-2.6-1.6s-1.1-2.4-1.1-4c0-3.5,1.2-8.3,3.5-14.4l6.2-1.3h0.3
			l-2.4,7.6c-1,3.2-1.5,5.4-1.5,6.8c0,0.5,0.1,1,0.4,1.3c0.2,0.3,0.5,0.5,0.9,0.5c0.6,0,1.3-0.2,1.9-0.7s1.7-1.5,3-3V37H126.5z
			 M126,12.2c0,3.9-1.4,5.9-4.3,5.9c-1.4,0-2.6-0.4-3.6-1.3c0.9-1.4,1.7-3,2.2-4.8c1.3,0.8,2.3,1.2,3.1,1.2
			C124.3,13.1,125.2,12.8,126,12.2z"/>
		<path class="st1" d="M150.5,37c-3.8,4-7,6-9.7,6c-1.1,0-2-0.4-2.6-1.1c-0.7-0.8-1-1.8-1-3.1c0-1.7,0.7-4.4,2.1-8
			c0.8-1.9,1.1-3.1,1.1-3.7c0-0.5-0.2-0.8-0.6-0.8c-0.2,0-0.5,0.1-0.9,0.3c-0.3,0.2-0.7,0.5-1.2,1c-0.4,0.4-0.9,0.8-1.4,1.4
			c-0.4,0.5-0.9,1-1.4,1.6l-1.4,1.6c-0.6,0.7-1,1.5-1.1,2.3c-0.2,1.4-0.4,2.7-0.5,3.8c0,0.9-0.1,2-0.1,3.5l-5.4,1.3
			c-0.2-2.2-0.3-3.8-0.3-4.9c0-2.6,0.3-5.1,0.9-7.4s1.6-5,2.9-7.9l6-1.1c-1.3,3.4-2.1,6-2.5,8c2.7-3,4.8-5,6.4-6.2
			c1.6-1.1,3-1.7,4.2-1.7c0.8,0,1.5,0.3,2.1,0.9s0.8,1.4,0.8,2.4c0,1.6-0.7,4.1-2.1,7.7c-1,2.5-1.4,4.1-1.4,4.8c0,1,0.4,1.5,1.2,1.5
			c1.2,0,3.1-1.6,5.8-4.7L150.5,37L150.5,37z"/>
		<path class="st1" d="M168.7,37c-2.1,2-3.9,3.5-5.6,4.5c-1.6,1-3.5,1.5-5.4,1.5c-2.2,0-4-0.7-5.4-2.1c-1.4-1.4-2-3.3-2-5.6
			c0-3.5,1.2-6.6,3.6-9.4c2.4-2.8,5-4.2,8-4.2c1.5,0,2.7,0.4,3.6,1.2c0.9,0.8,1.4,1.8,1.4,3.1c0,3.4-3.6,6.1-10.7,8.2
			c0.7,3.2,2.4,4.8,5.1,4.8c1.1,0,2.1-0.3,3.1-0.9c1-0.6,2.4-1.9,4.4-3.8V37H168.7z M156,32.5c4.2-1.2,6.3-3.3,6.3-6.5
			c0-1.6-0.6-2.3-1.7-2.3c-1.1,0-2.1,0.8-3.1,2.5C156.4,27.7,156,29.9,156,32.5z"/>
	</g>
</g>
</svg>
