<svg id="레이어_1" data-name="레이어 1" xmlns="http://www.w3.org/2000/svg" width="118" height="118" viewBox="0 0 118 118">
  <defs>
    <style>
      .cls-1 {
        fill: #fff;
        opacity: 0.6;
      }

      .cls-2 {
        fill: #8d6262;
      }
    </style>
  </defs>
  <rect class="cls-1" width="118" height="118"/>
  <path class="cls-2" d="M113,5V113H5V5H113m5-5H0V118H118V0Z" transform="translate(0 0)"/>
  <path class="cls-2" d="M52.26,78a5.18,5.18,0,0,1-4-2.09q-4.53-5.07-9.08-10.11c-1.85-2.06-2.49-4.32-.27-6.32s4.71-1.44,6.76.72c.19.21.38.42.58.62,5.88,6.19,5.88,6.19,11.2-.35C62.16,54.66,66.91,48.86,71.59,43c2-2.46,4.25-4.24,7.21-1.95s1.5,4.91-.44,7.29Q67.49,61.67,56.7,75C55.52,76.48,54.36,77.91,52.26,78Z" transform="translate(0 0)"/>
</svg>
