<svg id="레이어_1" data-name="레이어 1" xmlns="http://www.w3.org/2000/svg" width="90" height="90" viewBox="0 0 90 90">
  <defs>
    <style>
      .cls-1 {
        opacity: 0.61;
      }

      .cls-2 {
        fill: #fff;
      }

      .cls-3 {
        fill: #8d6262;
      }
    </style>
  </defs>
  <g class="cls-1">
    <circle class="cls-2" cx="45" cy="45" r="45"/>
  </g>
  <path class="cls-3" d="M45,5A40,40,0,1,1,5,45,40,40,0,0,1,45,5m0-5A45,45,0,1,0,90,45,45,45,0,0,0,45,0Z"/>
  <path class="cls-3" d="M40,59.13a3.86,3.86,0,0,1-3-1.56q-3.36-3.76-6.75-7.52c-1.38-1.52-1.85-3.2-.2-4.69s3.5-1.08,5,.53l.43.46C39.88,51,39.88,51,43.83,46.1c3.52-4.33,7.05-8.64,10.53-13,1.46-1.83,3.16-3.15,5.36-1.45s1.12,3.65-.33,5.42Q51.31,47,43.29,56.92C42.41,58,41.55,59.06,40,59.13Z"/>
</svg>
