<?xml version="1.0" encoding="utf-8"?>
<!-- Generator: Adobe Illustrator 25.0.0, SVG Export Plug-In . SVG Version: 6.00 Build 0)  -->
<svg version="1.1" id="Capa_1" xmlns="http://www.w3.org/2000/svg" xmlns:xlink="http://www.w3.org/1999/xlink" x="0px" y="0px"
	 viewBox="0 0 54 54" style="enable-background:new 0 0 54 54;" xml:space="preserve">
<style type="text/css">
	.st0{fill:#8D6262;}
</style>
<g id="download">
	<g>
		<path class="st0" d="M28,44.9v-21h-2v21l-6-6l-2,1l9,9l9-9l-2-1L28,44.9z M50.8,21.5c-1.7-1.8-4-2.9-6.2-3.1
			c-0.9-3.4-2.7-6-5.2-7.4c-2.4-1.3-5.1-1.5-8.1-0.5c-4-4.9-9.1-6.6-14.1-4.6C12,7.9,8.5,13.5,8.9,19c-4.4,1.4-9.1,6.9-8.9,12
			c0.3,5.4,4,10,10,10h4v-2h-4c-4.7,0-7.8-3.6-8-8c-0.2-4.4,4.4-9.4,8.2-10.2l0.8-0.3c0,0,0-1.2-0.1-1.4c-0.5-4.7,2.6-9.5,7-11.3
			c4.3-1.7,8.8,0,12.2,4.5l0.5,0.6l0.7-0.3c2.7-1,5.1-0.9,7.1,0.2c2.2,1.2,3.7,3.5,4.3,6.8l0.2,0.8h0.8c2,0,4,0.9,5.6,2.6
			c1.7,1.7,2.7,3.7,2.6,6c-0.1,4.8-3.7,10-9,10h-3v2h3c6.2-0.3,10.9-6.4,11-12C54.1,26.1,52.9,23.7,50.8,21.5z"/>
	</g>
</g>
</svg>
