<svg id="_1904659-arrow-backup-down-download-save-storage-transfer_122509" data-name="1904659-arrow-backup-down-download-save-storage-transfer_122509" xmlns="http://www.w3.org/2000/svg" width="23.979" height="23.979" viewBox="0 0 23.979 23.979">
  <path id="패스_3" data-name="패스 3" d="M39.522,17.445h0a.562.562,0,0,0,.082.067l.045.024a.326.326,0,0,0,.111.045l.047.013h0a.562.562,0,0,0,.217,0l.049-.015.056-.017a.562.562,0,0,0,.056-.03l.039-.022a.562.562,0,0,0,.086-.071L45.352,12.4a.562.562,0,1,0-.789-.789l-4.082,4.076V.562a.562.562,0,1,0-1.124,0V15.691l-4.082-4.076a.562.562,0,0,0-.789.789Z" transform="translate(-27.929)"/>
  <path id="패스_4" data-name="패스 4" d="M23.417,88a.562.562,0,0,0-.562.562v4.121a1.686,1.686,0,0,1-1.686,1.686H2.81a1.686,1.686,0,0,1-1.686-1.686V88.562a.562.562,0,0,0-1.124,0v4.121a2.81,2.81,0,0,0,2.81,2.81H21.169a2.81,2.81,0,0,0,2.81-2.81V88.562A.562.562,0,0,0,23.417,88Z" transform="translate(0 -71.514)"/>
</svg>
