<svg viewBox="0 -40 512 512" xmlns="http://www.w3.org/2000/svg">
<defs>
    <style>
      .eraser {
        fill: #fa8d6262;
      }
    </style>
</defs>
<path class="eraser" d="m263.664062 401.644531 184.398438-184.398437c13.679688-13.675782 21.210938-31.859375 21.210938-51.203125 0-19.339844-7.53125-37.527344-21.210938-51.203125l-93.664062-93.664063c-28.234376-28.234375-74.171876-28.234375-102.40625 0l-230.78125 230.78125c-13.679688 13.679688-21.210938 31.863281-21.210938 51.203125 0 19.34375 7.53125 37.527344 21.210938 51.203125l77.277343 77.28125h413.511719v-30zm9.539063-359.257812c16.539063-16.535157 43.445313-16.535157 59.984375 0l93.664062 93.664062c8.011719 8.011719 12.421876 18.664063 12.421876 29.992188s-4.414063 21.980469-12.421876 29.988281l-104.980468 104.980469-153.644532-153.644531zm-51.964844 359.257812h-110.320312l-68.496094-68.492187c-8.011719-8.011719-12.421875-18.660156-12.421875-29.992188 0-11.328125 4.410156-21.976562 12.421875-29.988281l104.589844-104.589844 153.648437 153.644531zm0 0"/>
</svg>