<?xml version="1.0" encoding="utf-8"?>
<!-- Generator: Adobe Illustrator 22.0.1, SVG Export Plug-In . SVG Version: 6.00 Build 0)  -->
<svg version="1.1" id="레이어_1" xmlns="http://www.w3.org/2000/svg" xmlns:xlink="http://www.w3.org/1999/xlink" x="0px"
	 y="0px" viewBox="0 0 184 113.8" style="enable-background:new 0 0 184 113.8;" xml:space="preserve">
<style type="text/css">
	.st0{enable-background:new    ;}
	.st1{fill:#8D6262;}
</style>
<g class="st0">
	<path class="st1" d="M92.5,81c-5.2,5.4-9.4,8.1-12.8,8.1c-1.5,0-2.7-0.5-3.7-1.5c-1-1-1.5-2.3-1.5-3.8c0-2.6,1-6.3,3-11.1
		c1.1-2.6,1.6-4.3,1.6-5c0-0.9-0.4-1.3-1.3-1.3c-0.9,0-2.1,0.6-3.8,1.8c-1.7,1.2-3.4,2.8-5.2,4.9c-0.8,4-1.1,8.8-1.1,14.5l-7.3,1.7
		c-0.3-2.3-0.4-4.8-0.4-7.5c0-6.5,0.9-12.6,2.7-18.2c1.8-5.6,4.6-11.6,8.4-17.8c2.9-1.2,5.4-2.1,7.5-2.8c2.1-0.7,3.3-1.1,3.6-1.1
		c0.6,0,1,0.5,1.4,1.4c0.4,0.9,0.6,2.1,0.6,3.4c0,2.3-0.7,4.9-2.1,7.7c-1.4,2.8-3.6,6.2-6.7,10.2c2.9-1.7,4.8-2.7,5.8-3.2
		s1.9-0.7,2.9-0.7c1.1,0,2,0.4,2.7,1.2c0.7,0.8,1,1.9,1,3.2c0,2-0.8,5-2.3,9.1c-1.6,4.1-2.3,6.7-2.3,7.8c0,0.5,0.1,0.9,0.4,1.3
		s0.6,0.6,1,0.6c1.4,0,4-2.1,7.7-6.3V81z M69.8,67.6c7.8-9.1,11.7-15.7,11.7-20c0-1.3-0.4-2-1.1-2c-1.2,0-2.9,2.1-5.1,6.4
		C73.1,56.3,71.2,61.5,69.8,67.6z"/>
	<path class="st1" d="M127.4,81c-2.9,2.7-5.3,4.7-7.2,6c-1.9,1.3-3.7,1.9-5.2,1.9c-1.7,0-3-0.7-4-2.1c-0.9-1.4-1.4-3.2-1.4-5.6
		c-2.4,2.6-4.5,4.6-6.4,5.8c-1.9,1.3-3.8,1.9-5.6,1.9c-1.7,0-3-0.7-4-2.1c-1-1.4-1.5-3.2-1.5-5.6c0-4.5,1.5-10.9,4.6-19.2l8.7-1.7
		c-3.6,10.5-5.4,17.2-5.4,20.1c0,2.1,0.8,3.1,2.4,3.1c1.1,0,2.5-0.9,4.2-2.8c1.7-1.8,2.7-3.5,3.1-4.8l4.3-13.9l8.9-1.8
		c-2.1,6.6-3.5,11.2-4.2,13.8s-1.1,4.5-1.1,5.6c0,2.1,0.7,3.1,2.1,3.1c1.1,0,2.8-1,5-3.1l2.8-2.6V81z"/>
	<path class="st1" d="M151.9,81c-2.8,2.7-5.4,4.8-7.7,6.1c-2.3,1.3-4.8,1.9-7.3,1.9c-2.8,0-5.2-0.9-7-2.8s-2.8-4.2-2.8-7
		c0-4.6,1.7-8.9,5.1-12.9c3.4-3.9,7.1-5.9,11-5.9c1.9,0,3.5,0.5,4.7,1.6c1.2,1.1,1.8,2.5,1.8,4.2c0,0.6-0.1,1.1-0.3,1.4
		s-0.7,0.6-1.3,0.9l-3.8,1.8c-0.5,0.2-0.8,0.3-1,0.3c-0.3,0-0.5-0.2-0.5-0.7c0-0.2,0.1-0.7,0.2-1.7s0.2-1.6,0.2-1.8
		c0-1-0.2-1.7-0.6-2.3c-0.4-0.6-0.9-0.9-1.6-0.9c-1.6,0-3,1.2-4.4,3.5s-2,5-2,8.1c0,2.6,0.6,4.7,1.9,6.2c1.2,1.5,2.9,2.3,5,2.3
		c1.8,0,3.4-0.5,5-1.5c1.6-1,3.3-2.6,5.3-4.7V81z"/>
	<path class="st1" d="M184,81c-5,5.4-9.1,8.1-12.3,8.1c-1.6,0-2.9-0.6-4-1.7c-1.1-1.1-1.6-2.5-1.6-4.1c0-0.8,0.1-1.9,0.4-3.4
		c0.3-1.5,0.4-2.4,0.4-2.6c0-1-0.6-1.5-1.7-1.6c-1.1,0-1.7-0.5-1.7-1.3c0-0.7,0.2-1.3,0.5-1.6c0.3-0.3,0.9-0.4,1.8-0.4
		c2.4-0.1,4.2-0.6,5.4-1.5c1.2-0.9,1.8-2,1.8-3.3c0-0.9-0.3-1.6-1-2.2s-1.5-0.9-2.5-0.9c-0.5,0-1.1,0.1-1.6,0.2
		c-0.5,0.1-1,0.3-1.5,0.6c-0.5,0.3-1,0.6-1.6,1.1c-0.5,0.5-1.1,1-1.7,1.7c-0.6,0.6-1.2,1.4-1.9,2.3c-0.3,0.5-0.8,2.6-1.3,6.4
		c-0.3,2-0.4,3.8-0.5,5.5c-0.1,1.6-0.1,3.3,0,5.3l-7.4,1.2c-0.3-1.7-0.4-3.7-0.4-6.1c0-6.5,0.9-12.8,2.7-18.8
		c1.8-6,4.7-12.1,8.7-18.4c3.1-1.3,5.8-2.3,8.1-3c2.3-0.7,3.5-1.1,3.8-1.1c0.5,0,1,0.5,1.5,1.6c0.5,1,0.8,2.1,0.8,3.3
		c0,1.9-0.6,4.1-1.9,6.4c-1.3,2.3-3.3,5.1-6,8.3c1.9-0.5,3.4-0.8,4.6-0.8c2,0,3.7,0.5,5,1.6c1.3,1,1.9,2.4,1.9,3.9
		c0,3.6-3.3,6.3-9.8,8c2.6,0.6,3.8,2.1,3.8,4.5l-0.2,2.9c0,1.3,0.6,2,1.9,2c0.9,0,1.9-0.4,3-1.3c1.1-0.9,2.7-2.5,4.7-4.9V81z
		 M162.5,65.2l2.2-2.4c6.4-7.2,9.6-12.3,9.6-15.2c0-1.4-0.6-2-1.8-2c-1.4,0-2.9,1.6-4.7,4.8C166.1,53.5,164.3,58.5,162.5,65.2z"/>
</g>
<g class="st0">
	<path class="st1" d="M59.4,76.6C51.4,84.9,41.8,89,30.5,89c-8.1,0-14.7-2.5-19.9-7.6c-5.2-5.1-7.8-11.6-7.8-19.5
		c0-7.9,1.9-15.4,5.6-22.6c3.7-7.1,8.6-12.8,14.7-17.1c6-4.3,12-6.4,17.8-6.4c4.9,0,8.9,1.5,11.9,4.4c3.1,2.9,4.6,6.7,4.6,11.4
		c0,6.1-1.9,11.4-5.6,15.8c-3.7,4.5-8.1,6.7-13.1,6.7c-2.6,0-4.8-0.7-6.5-2c-1.7-1.3-2.5-3.1-2.5-5.2c0-1.8,0.7-3.5,2.2-5.1
		c1.1,2,2.6,3,4.4,3c2.7,0,5.2-1.7,7.5-5.1c2.3-3.4,3.5-7.1,3.5-11.1c0-2.8-0.6-5-1.9-6.7c-1.3-1.6-3-2.5-5.2-2.5
		c-3.1,0-6.5,2-10,5.9c-3.6,3.9-6.5,8.9-8.9,15.1c-2.4,6.1-3.6,12-3.6,17.5c0,7,2,12.8,6,17.3c4,4.5,9.1,6.8,15.2,6.8
		c3.9,0,7.4-0.9,10.6-2.7s6.4-4.6,9.7-8.5V76.6z"/>
</g>
</svg>
