<svg id="레이어_1" data-name="레이어 1" xmlns="http://www.w3.org/2000/svg" width="128" height="128" viewBox="0 0 128 128">
  <defs>
    <style>
      .cls-1 {
        fill: #e0e0e0;
      }

      .cls-2 {
        fill: #727272;
      }
    </style>
  </defs>
  <rect class="cls-1" width="128" height="128"/>
  <path class="cls-2" d="M89.72,41.77a32,32,0,0,0-3.49-3.49,34,34,0,0,0-47.95,48,32,32,0,0,0,3.49,3.49A34,34,0,0,0,89.72,41.77ZM41.35,83.16A29.67,29.67,0,0,1,83.16,41.35ZM64,93.67a29.47,29.47,0,0,1-19.16-7L86.65,44.84A29.67,29.67,0,0,1,64,93.67Z" transform="translate(0 0)"/>
</svg>
