<svg id="레이어_1" data-name="레이어 1" xmlns="http://www.w3.org/2000/svg" width="286.23" height="260.12" viewBox="0 0 286.23 260.12">
  <defs>
    <style>
      .cls-1 {
        fill: #010101;
      }

      .cls-2 {
        fill: #303030;
      }

      .cls-3 {
        fill: #fefefe;
      }

      .cls-4 {
        fill: #9dd9e3;
      }

      .cls-5 {
        fill: #dee1e6;
      }

      .cls-6 {
        fill: #fec55a;
      }

      .cls-7 {
        fill: #fbcdab;
      }

      .cls-8 {
        fill: #f05b58;
      }

      .cls-9 {
        fill: #88d1d5;
      }

      .cls-10 {
        fill: #e2af54;
      }

      .cls-11 {
        fill: #e0b69a;
      }

      .cls-12 {
        fill: #b9c3cc;
      }

      .cls-13 {
        fill: #f6d871;
      }

      .cls-14 {
        fill: #dee0e5;
      }

      .cls-15 {
        fill: #e16e71;
      }

      .cls-16 {
        fill: #664341;
      }

      .cls-17 {
        fill: #010203;
      }

      .cls-18 {
        fill: #020102;
      }

      .cls-19 {
        fill: #030203;
      }

      .cls-20 {
        fill: #040306;
      }

      .cls-21 {
        fill: #fdfdfd;
      }

      .cls-22 {
        fill: #c6db73;
      }

      .cls-23 {
        fill: #b5d166;
      }
    </style>
  </defs>
  <path class="cls-1" d="M101.34,99.4a3.91,3.91,0,0,0-4.18-3.08,4.07,4.07,0,0,0-3.94,3.4,15.49,15.49,0,0,0-.13,2.26h0c0,.6,0,1.21,0,1.81a4.18,4.18,0,0,0,8.3.53A10.9,10.9,0,0,0,101.34,99.4Zm20.27,2.77h0a15.11,15.11,0,0,0,0-2,4.1,4.1,0,0,0-4-3.83,4.18,4.18,0,0,0-4.32,3.78,17.15,17.15,0,0,0,0,4.05,4.21,4.21,0,0,0,8.37-.17C121.66,103.38,121.61,102.78,121.61,102.17Zm0,0h0a15.11,15.11,0,0,0,0-2,4.1,4.1,0,0,0-4-3.83,4.18,4.18,0,0,0-4.32,3.78,17.15,17.15,0,0,0,0,4.05,4.21,4.21,0,0,0,8.37-.17C121.66,103.38,121.61,102.78,121.61,102.17ZM101.34,99.4a3.91,3.91,0,0,0-4.18-3.08,4.07,4.07,0,0,0-3.94,3.4,15.49,15.49,0,0,0-.13,2.26h0c0,.6,0,1.21,0,1.81a4.18,4.18,0,0,0,8.3.53A10.9,10.9,0,0,0,101.34,99.4Zm0,0a3.91,3.91,0,0,0-4.18-3.08,4.07,4.07,0,0,0-3.94,3.4,15.49,15.49,0,0,0-.13,2.26h0c0,.6,0,1.21,0,1.81a4.18,4.18,0,0,0,8.3.53A10.9,10.9,0,0,0,101.34,99.4Zm20.27,2.77h0a15.11,15.11,0,0,0,0-2,4.1,4.1,0,0,0-4-3.83,4.18,4.18,0,0,0-4.32,3.78,17.15,17.15,0,0,0,0,4.05,4.21,4.21,0,0,0,8.37-.17C121.66,103.38,121.61,102.78,121.61,102.17Zm0,0h0a15.11,15.11,0,0,0,0-2,4.1,4.1,0,0,0-4-3.83,4.18,4.18,0,0,0-4.32,3.78,17.15,17.15,0,0,0,0,4.05,4.21,4.21,0,0,0,8.37-.17C121.66,103.38,121.61,102.78,121.61,102.17ZM101.34,99.4a3.91,3.91,0,0,0-4.18-3.08,4.07,4.07,0,0,0-3.94,3.4,15.49,15.49,0,0,0-.13,2.26h0c0,.6,0,1.21,0,1.81a4.18,4.18,0,0,0,8.3.53A10.9,10.9,0,0,0,101.34,99.4Zm0,0a3.91,3.91,0,0,0-4.18-3.08,4.07,4.07,0,0,0-3.94,3.4,15.49,15.49,0,0,0-.13,2.26h0c0,.6,0,1.21,0,1.81a4.18,4.18,0,0,0,8.3.53A10.9,10.9,0,0,0,101.34,99.4Zm20.27,2.77h0a15.11,15.11,0,0,0,0-2,4.1,4.1,0,0,0-4-3.83,4.18,4.18,0,0,0-4.32,3.78,17.15,17.15,0,0,0,0,4.05,4.21,4.21,0,0,0,8.37-.17C121.66,103.38,121.61,102.78,121.61,102.17Zm.35,24.51a27.85,27.85,0,0,1-10.2,3.76,24.4,24.4,0,0,0,10.31-3.76Zm0,0a27.85,27.85,0,0,1-10.2,3.76,24.4,24.4,0,0,0,10.31-3.76Zm-.35-24.51h0a15.11,15.11,0,0,0,0-2,4.1,4.1,0,0,0-4-3.83,4.18,4.18,0,0,0-4.32,3.78,17.15,17.15,0,0,0,0,4.05,4.21,4.21,0,0,0,8.37-.17C121.66,103.38,121.61,102.78,121.61,102.17ZM101.34,99.4a3.91,3.91,0,0,0-4.18-3.08,4.07,4.07,0,0,0-3.94,3.4,15.49,15.49,0,0,0-.13,2.26h0c0,.6,0,1.21,0,1.81a4.18,4.18,0,0,0,8.3.53A10.9,10.9,0,0,0,101.34,99.4Zm0,0a3.91,3.91,0,0,0-4.18-3.08,4.07,4.07,0,0,0-3.94,3.4,15.49,15.49,0,0,0-.13,2.26h0c0,.6,0,1.21,0,1.81a4.18,4.18,0,0,0,8.3.53A10.9,10.9,0,0,0,101.34,99.4Zm20.27,2.77h0a15.11,15.11,0,0,0,0-2,4.1,4.1,0,0,0-4-3.83,4.18,4.18,0,0,0-4.32,3.78,17.15,17.15,0,0,0,0,4.05,4.21,4.21,0,0,0,8.37-.17C121.66,103.38,121.61,102.78,121.61,102.17Zm.35,24.51a27.85,27.85,0,0,1-10.2,3.76,24.4,24.4,0,0,0,10.31-3.76Zm0,0a27.85,27.85,0,0,1-10.2,3.76,24.4,24.4,0,0,0,10.31-3.76Zm-.35-24.51h0a15.11,15.11,0,0,0,0-2,4.1,4.1,0,0,0-4-3.83,4.18,4.18,0,0,0-4.32,3.78,17.15,17.15,0,0,0,0,4.05,4.21,4.21,0,0,0,8.37-.17C121.66,103.38,121.61,102.78,121.61,102.17ZM101.34,99.4a3.91,3.91,0,0,0-4.18-3.08,4.07,4.07,0,0,0-3.94,3.4,15.49,15.49,0,0,0-.13,2.26h0c0,.6,0,1.21,0,1.81a4.18,4.18,0,0,0,8.3.53A10.9,10.9,0,0,0,101.34,99.4Zm0,0a3.91,3.91,0,0,0-4.18-3.08,4.07,4.07,0,0,0-3.94,3.4,15.49,15.49,0,0,0-.13,2.26h0c0,.6,0,1.21,0,1.81a4.18,4.18,0,0,0,8.3.53A10.9,10.9,0,0,0,101.34,99.4Zm20.27,2.77h0a15.11,15.11,0,0,0,0-2,4.1,4.1,0,0,0-4-3.83,4.18,4.18,0,0,0-4.32,3.78,17.15,17.15,0,0,0,0,4.05,4.21,4.21,0,0,0,8.37-.17C121.66,103.38,121.61,102.78,121.61,102.17Zm.35,24.51a27.85,27.85,0,0,1-10.2,3.76,24.4,24.4,0,0,0,10.31-3.76Zm0,0a27.85,27.85,0,0,1-10.2,3.76,24.4,24.4,0,0,0,10.31-3.76Zm-.35-24.51h0a15.11,15.11,0,0,0,0-2,4.1,4.1,0,0,0-4-3.83,4.18,4.18,0,0,0-4.32,3.78,17.15,17.15,0,0,0,0,4.05,4.21,4.21,0,0,0,8.37-.17C121.66,103.38,121.61,102.78,121.61,102.17ZM101.34,99.4a3.91,3.91,0,0,0-4.18-3.08,4.07,4.07,0,0,0-3.94,3.4,15.49,15.49,0,0,0-.13,2.26h0c0,.6,0,1.21,0,1.81a4.18,4.18,0,0,0,8.3.53A10.9,10.9,0,0,0,101.34,99.4Zm0,0a3.91,3.91,0,0,0-4.18-3.08,4.07,4.07,0,0,0-3.94,3.4,15.49,15.49,0,0,0-.13,2.26h0c0,.6,0,1.21,0,1.81a4.18,4.18,0,0,0,8.3.53A10.9,10.9,0,0,0,101.34,99.4Zm20.27,2.77h0a15.11,15.11,0,0,0,0-2,4.1,4.1,0,0,0-4-3.83,4.18,4.18,0,0,0-4.32,3.78,17.15,17.15,0,0,0,0,4.05,4.21,4.21,0,0,0,8.37-.17C121.66,103.38,121.61,102.78,121.61,102.17Zm.35,24.51a27.85,27.85,0,0,1-10.2,3.76,24.4,24.4,0,0,0,10.31-3.76Zm0,0a27.85,27.85,0,0,1-10.2,3.76,24.4,24.4,0,0,0,10.31-3.76Zm-.35-24.51h0a15.11,15.11,0,0,0,0-2,4.1,4.1,0,0,0-4-3.83,4.18,4.18,0,0,0-4.32,3.78,17.15,17.15,0,0,0,0,4.05,4.21,4.21,0,0,0,8.37-.17C121.66,103.38,121.61,102.78,121.61,102.17ZM101.34,99.4a3.91,3.91,0,0,0-4.18-3.08,4.07,4.07,0,0,0-3.94,3.4,15.49,15.49,0,0,0-.13,2.26h0c0,.6,0,1.21,0,1.81a4.18,4.18,0,0,0,8.3.53A10.9,10.9,0,0,0,101.34,99.4Zm0,0a3.91,3.91,0,0,0-4.18-3.08,4.07,4.07,0,0,0-3.94,3.4,15.49,15.49,0,0,0-.13,2.26h0c0,.6,0,1.21,0,1.81a4.18,4.18,0,0,0,8.3.53A10.9,10.9,0,0,0,101.34,99.4Zm20.27,2.77h0a15.11,15.11,0,0,0,0-2,4.1,4.1,0,0,0-4-3.83,4.18,4.18,0,0,0-4.32,3.78,17.15,17.15,0,0,0,0,4.05,4.21,4.21,0,0,0,8.37-.17C121.66,103.38,121.61,102.78,121.61,102.17Zm.35,24.51a27.85,27.85,0,0,1-10.2,3.76,24.4,24.4,0,0,0,10.31-3.76Zm0,0a27.85,27.85,0,0,1-10.2,3.76,24.4,24.4,0,0,0,10.31-3.76Zm-.35-24.51h0a15.11,15.11,0,0,0,0-2,4.1,4.1,0,0,0-4-3.83,4.18,4.18,0,0,0-4.32,3.78,17.15,17.15,0,0,0,0,4.05,4.21,4.21,0,0,0,8.37-.17C121.66,103.38,121.61,102.78,121.61,102.17ZM101.34,99.4a3.91,3.91,0,0,0-4.18-3.08,4.07,4.07,0,0,0-3.94,3.4,15.49,15.49,0,0,0-.13,2.26h0c0,.6,0,1.21,0,1.81a4.18,4.18,0,0,0,8.3.53A10.9,10.9,0,0,0,101.34,99.4Zm0,0a3.91,3.91,0,0,0-4.18-3.08,4.07,4.07,0,0,0-3.94,3.4,15.49,15.49,0,0,0-.13,2.26h0c0,.6,0,1.21,0,1.81a4.18,4.18,0,0,0,8.3.53A10.9,10.9,0,0,0,101.34,99.4Zm20.27,2.77h0a15.11,15.11,0,0,0,0-2,4.1,4.1,0,0,0-4-3.83,4.18,4.18,0,0,0-4.32,3.78,17.15,17.15,0,0,0,0,4.05,4.21,4.21,0,0,0,8.37-.17C121.66,103.38,121.61,102.78,121.61,102.17Zm.35,24.51a27.85,27.85,0,0,1-10.2,3.76,24.4,24.4,0,0,0,10.31-3.76Zm0,0a27.85,27.85,0,0,1-10.2,3.76,24.4,24.4,0,0,0,10.31-3.76Zm-4.34-18.84a4.16,4.16,0,0,0,4-3.86c.06-.6,0-1.2,0-1.81h0a15.11,15.11,0,0,0,0-2,4.1,4.1,0,0,0-4-3.83,4.18,4.18,0,0,0-4.32,3.78,17.15,17.15,0,0,0,0,4.05A4.16,4.16,0,0,0,117.62,107.84ZM97.16,96.32a4.07,4.07,0,0,0-3.94,3.4,15.49,15.49,0,0,0-.13,2.26h0c0,.6,0,1.21,0,1.81a4.18,4.18,0,0,0,8.3.53,10.9,10.9,0,0,0-.1-4.92A3.91,3.91,0,0,0,97.16,96.32ZM292.78,255.18q0-73.27,0-146.56a8.6,8.6,0,0,0-.1-2.53l-.06-.15c-1.56-5.24-5-8.8-9.81-11.25-.68-.35-1.47-.39-1.72-1.5-1.1-5-3.12-6.5-8.17-6.5-18.5,0-37,0-55.51,0-2,0-2.48-.42-2.47-2.43.09-18.73.06-37.46,0-56.19,0-5.39-3.13-8.63-8.31-8.63q-68.53,0-137.08,0c-5.07,0-8.21,3.11-8.24,8.13s0,10,0,15c0,3.16,0,3.17-3.27,3.17-6.34,0-12.69,0-19,0-5.34,0-8.43,3.13-8.44,8.44q0,13.71,0,27.41c0,1.58.53,3.61-.24,4.62-.93,1.22-3.07.36-4.69.44-3.93.19-6.41,2.34-7,6.33a2.18,2.18,0,0,1-1.3,1.86c-7.1,3.82-10.58,9.86-10.58,17.88q0,72.39,0,144.77c0,1.77-.19,3.56.63,5.32,3.75,8,9.92,11.9,18.8,11.88q52.68-.09,105.36,0a5.15,5.15,0,0,1,3.68,1.25,15.12,15.12,0,0,0,10.42,3.69c2.87-.06,5.74-.05,8.61,0a14.84,14.84,0,0,0,10-3.6,5.78,5.78,0,0,1,4.09-1.34q52.58,0,105.13,0a18.9,18.9,0,0,0,18.35-12.86c.37-1,.19-2.26,1.13-3.07v-.91A5.34,5.34,0,0,1,292.78,255.18ZM54.59,54.26H144c3.54,0,4.49-.68,5.73-3.92a28.14,28.14,0,0,1,11.38,0c1.27,3.3,2.18,3.94,5.71,4,2.27,0,4.55.14,6.8,0,1.91-.16,2.16.62,2.15,2.29q-.06,37.85,0,75.68c0,2.72-.13,5.45.05,8.16.14,1.9-.62,2.15-2.28,2.13-8.08-.07-16.16-.05-24.24,0-3.17,0-6.34.05-9.51.21a1.85,1.85,0,0,1-2.24-1.6,27.57,27.57,0,0,0-5.32-10.89,2.19,2.19,0,0,1-.52-1,35.64,35.64,0,0,1-7.25,5.2h0a35.8,35.8,0,0,1-33.59.23h0A35.16,35.16,0,0,1,83,129a2,2,0,0,1-.57,1.24,28.84,28.84,0,0,0-5.27,10.67c-.22.82-.37,1.55-1.55,1.53-9-.08-18-.12-26.95-.17,3.64-1.39,3.64-1.39,3.64-5.76q0-38.79,0-77.58a9.89,9.89,0,0,0-.92-4.59C52.48,54.33,53.54,54.26,54.59,54.26ZM122,126.68a27.85,27.85,0,0,1-10.2,3.76,24.4,24.4,0,0,0,10.31-3.76Zm-4.34-18.84a4.16,4.16,0,0,0,4-3.86c.06-.6,0-1.2,0-1.81h0a15.11,15.11,0,0,0,0-2,4.1,4.1,0,0,0-4-3.83,4.18,4.18,0,0,0-4.32,3.78,17.15,17.15,0,0,0,0,4.05A4.16,4.16,0,0,0,117.62,107.84Zm-24.48-4a4.18,4.18,0,0,0,8.3.53,10.9,10.9,0,0,0-.1-4.92,3.91,3.91,0,0,0-4.18-3.08,4.07,4.07,0,0,0-3.94,3.4,15.49,15.49,0,0,0-.13,2.26h0C93.13,102.58,93.09,103.19,93.14,103.79Zm8.2-4.39a3.91,3.91,0,0,0-4.18-3.08,4.07,4.07,0,0,0-3.94,3.4,15.49,15.49,0,0,0-.13,2.26h0c0,.6,0,1.21,0,1.81a4.18,4.18,0,0,0,8.3.53A10.9,10.9,0,0,0,101.34,99.4Zm20.27,2.77h0a15.11,15.11,0,0,0,0-2,4.1,4.1,0,0,0-4-3.83,4.18,4.18,0,0,0-4.32,3.78,17.15,17.15,0,0,0,0,4.05,4.21,4.21,0,0,0,8.37-.17C121.66,103.38,121.61,102.78,121.61,102.17Zm.35,24.51a27.85,27.85,0,0,1-10.2,3.76,24.4,24.4,0,0,0,10.31-3.76Zm0,0a27.85,27.85,0,0,1-10.2,3.76,24.4,24.4,0,0,0,10.31-3.76Zm-.35-24.51h0a15.11,15.11,0,0,0,0-2,4.1,4.1,0,0,0-4-3.83,4.18,4.18,0,0,0-4.32,3.78,17.15,17.15,0,0,0,0,4.05,4.21,4.21,0,0,0,8.37-.17C121.66,103.38,121.61,102.78,121.61,102.17ZM101.34,99.4a3.91,3.91,0,0,0-4.18-3.08,4.07,4.07,0,0,0-3.94,3.4,15.49,15.49,0,0,0-.13,2.26h0c0,.6,0,1.21,0,1.81a4.18,4.18,0,0,0,8.3.53A10.9,10.9,0,0,0,101.34,99.4Zm0,0a3.91,3.91,0,0,0-4.18-3.08,4.07,4.07,0,0,0-3.94,3.4,15.49,15.49,0,0,0-.13,2.26h0c0,.6,0,1.21,0,1.81a4.18,4.18,0,0,0,8.3.53A10.9,10.9,0,0,0,101.34,99.4Zm20.27,2.77h0a15.11,15.11,0,0,0,0-2,4.1,4.1,0,0,0-4-3.83,4.18,4.18,0,0,0-4.32,3.78,17.15,17.15,0,0,0,0,4.05,4.21,4.21,0,0,0,8.37-.17C121.66,103.38,121.61,102.78,121.61,102.17Zm.35,24.51a27.85,27.85,0,0,1-10.2,3.76,24.4,24.4,0,0,0,10.31-3.76Zm0,0a27.85,27.85,0,0,1-10.2,3.76,24.4,24.4,0,0,0,10.31-3.76Zm-.35-24.51h0a15.11,15.11,0,0,0,0-2,4.1,4.1,0,0,0-4-3.83,4.18,4.18,0,0,0-4.32,3.78,17.15,17.15,0,0,0,0,4.05,4.21,4.21,0,0,0,8.37-.17C121.66,103.38,121.61,102.78,121.61,102.17ZM101.34,99.4a3.91,3.91,0,0,0-4.18-3.08,4.07,4.07,0,0,0-3.94,3.4,15.49,15.49,0,0,0-.13,2.26h0c0,.6,0,1.21,0,1.81a4.18,4.18,0,0,0,8.3.53A10.9,10.9,0,0,0,101.34,99.4Zm0,0a3.91,3.91,0,0,0-4.18-3.08,4.07,4.07,0,0,0-3.94,3.4,15.49,15.49,0,0,0-.13,2.26h0c0,.6,0,1.21,0,1.81a4.18,4.18,0,0,0,8.3.53A10.9,10.9,0,0,0,101.34,99.4Zm20.27,2.77h0a15.11,15.11,0,0,0,0-2,4.1,4.1,0,0,0-4-3.83,4.18,4.18,0,0,0-4.32,3.78,17.15,17.15,0,0,0,0,4.05,4.21,4.21,0,0,0,8.37-.17C121.66,103.38,121.61,102.78,121.61,102.17Zm.35,24.51a27.85,27.85,0,0,1-10.2,3.76,24.4,24.4,0,0,0,10.31-3.76Zm0,0a27.85,27.85,0,0,1-10.2,3.76,24.4,24.4,0,0,0,10.31-3.76Zm-.35-24.51h0a15.11,15.11,0,0,0,0-2,4.1,4.1,0,0,0-4-3.83,4.18,4.18,0,0,0-4.32,3.78,17.15,17.15,0,0,0,0,4.05,4.21,4.21,0,0,0,8.37-.17C121.66,103.38,121.61,102.78,121.61,102.17ZM101.34,99.4a3.91,3.91,0,0,0-4.18-3.08,4.07,4.07,0,0,0-3.94,3.4,15.49,15.49,0,0,0-.13,2.26h0c0,.6,0,1.21,0,1.81a4.18,4.18,0,0,0,8.3.53A10.9,10.9,0,0,0,101.34,99.4Zm0,0a3.91,3.91,0,0,0-4.18-3.08,4.07,4.07,0,0,0-3.94,3.4,15.49,15.49,0,0,0-.13,2.26h0c0,.6,0,1.21,0,1.81a4.18,4.18,0,0,0,8.3.53A10.9,10.9,0,0,0,101.34,99.4Zm20.27,2.77h0a15.11,15.11,0,0,0,0-2,4.1,4.1,0,0,0-4-3.83,4.18,4.18,0,0,0-4.32,3.78,17.15,17.15,0,0,0,0,4.05,4.21,4.21,0,0,0,8.37-.17C121.66,103.38,121.61,102.78,121.61,102.17Zm.35,24.51a27.85,27.85,0,0,1-10.2,3.76,24.4,24.4,0,0,0,10.31-3.76Zm0,0a27.85,27.85,0,0,1-10.2,3.76,24.4,24.4,0,0,0,10.31-3.76Zm-.35-24.51h0a15.11,15.11,0,0,0,0-2,4.1,4.1,0,0,0-4-3.83,4.18,4.18,0,0,0-4.32,3.78,17.15,17.15,0,0,0,0,4.05,4.21,4.21,0,0,0,8.37-.17C121.66,103.38,121.61,102.78,121.61,102.17ZM101.34,99.4a3.91,3.91,0,0,0-4.18-3.08,4.07,4.07,0,0,0-3.94,3.4,15.49,15.49,0,0,0-.13,2.26h0c0,.6,0,1.21,0,1.81a4.18,4.18,0,0,0,8.3.53A10.9,10.9,0,0,0,101.34,99.4Zm0,0a3.91,3.91,0,0,0-4.18-3.08,4.07,4.07,0,0,0-3.94,3.4,15.49,15.49,0,0,0-.13,2.26h0c0,.6,0,1.21,0,1.81a4.18,4.18,0,0,0,8.3.53A10.9,10.9,0,0,0,101.34,99.4Zm20.27,2.77h0a15.11,15.11,0,0,0,0-2,4.1,4.1,0,0,0-4-3.83,4.18,4.18,0,0,0-4.32,3.78,17.15,17.15,0,0,0,0,4.05,4.21,4.21,0,0,0,8.37-.17C121.66,103.38,121.61,102.78,121.61,102.17Zm.35,24.51a27.85,27.85,0,0,1-10.2,3.76,24.4,24.4,0,0,0,10.31-3.76Zm0,0a27.85,27.85,0,0,1-10.2,3.76,24.4,24.4,0,0,0,10.31-3.76Zm-.35-24.51h0a15.11,15.11,0,0,0,0-2,4.1,4.1,0,0,0-4-3.83,4.18,4.18,0,0,0-4.32,3.78,17.15,17.15,0,0,0,0,4.05,4.21,4.21,0,0,0,8.37-.17C121.66,103.38,121.61,102.78,121.61,102.17ZM101.34,99.4a3.91,3.91,0,0,0-4.18-3.08,4.07,4.07,0,0,0-3.94,3.4,15.49,15.49,0,0,0-.13,2.26h0c0,.6,0,1.21,0,1.81a4.18,4.18,0,0,0,8.3.53A10.9,10.9,0,0,0,101.34,99.4Zm0,0a3.91,3.91,0,0,0-4.18-3.08,4.07,4.07,0,0,0-3.94,3.4,15.49,15.49,0,0,0-.13,2.26h0c0,.6,0,1.21,0,1.81a4.18,4.18,0,0,0,8.3.53A10.9,10.9,0,0,0,101.34,99.4Zm20.27,2.77h0a15.11,15.11,0,0,0,0-2,4.1,4.1,0,0,0-4-3.83,4.18,4.18,0,0,0-4.32,3.78,17.15,17.15,0,0,0,0,4.05,4.21,4.21,0,0,0,8.37-.17C121.66,103.38,121.61,102.78,121.61,102.17Zm.35,24.51a27.85,27.85,0,0,1-10.2,3.76,24.4,24.4,0,0,0,10.31-3.76Zm0,0a27.85,27.85,0,0,1-10.2,3.76,24.4,24.4,0,0,0,10.31-3.76Zm-.35-24.51h0a15.11,15.11,0,0,0,0-2,4.1,4.1,0,0,0-4-3.83,4.18,4.18,0,0,0-4.32,3.78,17.15,17.15,0,0,0,0,4.05,4.21,4.21,0,0,0,8.37-.17C121.66,103.38,121.61,102.78,121.61,102.17ZM101.34,99.4a3.91,3.91,0,0,0-4.18-3.08,4.07,4.07,0,0,0-3.94,3.4,15.49,15.49,0,0,0-.13,2.26h0c0,.6,0,1.21,0,1.81a4.18,4.18,0,0,0,8.3.53A10.9,10.9,0,0,0,101.34,99.4Zm0,0a3.91,3.91,0,0,0-4.18-3.08,4.07,4.07,0,0,0-3.94,3.4,15.49,15.49,0,0,0-.13,2.26h0c0,.6,0,1.21,0,1.81a4.18,4.18,0,0,0,8.3.53A10.9,10.9,0,0,0,101.34,99.4Zm20.27,2.77h0a15.11,15.11,0,0,0,0-2,4.1,4.1,0,0,0-4-3.83,4.18,4.18,0,0,0-4.32,3.78,17.15,17.15,0,0,0,0,4.05,4.21,4.21,0,0,0,8.37-.17C121.66,103.38,121.61,102.78,121.61,102.17Zm0,0h0a15.11,15.11,0,0,0,0-2,4.1,4.1,0,0,0-4-3.83,4.18,4.18,0,0,0-4.32,3.78,17.15,17.15,0,0,0,0,4.05,4.21,4.21,0,0,0,8.37-.17C121.66,103.38,121.61,102.78,121.61,102.17ZM101.34,99.4a3.91,3.91,0,0,0-4.18-3.08,4.07,4.07,0,0,0-3.94,3.4,15.49,15.49,0,0,0-.13,2.26h0c0,.6,0,1.21,0,1.81a4.18,4.18,0,0,0,8.3.53A10.9,10.9,0,0,0,101.34,99.4Zm0,0a3.91,3.91,0,0,0-4.18-3.08,4.07,4.07,0,0,0-3.94,3.4,15.49,15.49,0,0,0-.13,2.26h0c0,.6,0,1.21,0,1.81a4.18,4.18,0,0,0,8.3.53A10.9,10.9,0,0,0,101.34,99.4Zm20.27,2.77h0a15.11,15.11,0,0,0,0-2,4.1,4.1,0,0,0-4-3.83,4.18,4.18,0,0,0-4.32,3.78,17.15,17.15,0,0,0,0,4.05,4.21,4.21,0,0,0,8.37-.17C121.66,103.38,121.61,102.78,121.61,102.17Zm0,0h0a15.11,15.11,0,0,0,0-2,4.1,4.1,0,0,0-4-3.83,4.18,4.18,0,0,0-4.32,3.78,17.15,17.15,0,0,0,0,4.05,4.21,4.21,0,0,0,8.37-.17C121.66,103.38,121.61,102.78,121.61,102.17ZM101.34,99.4a3.91,3.91,0,0,0-4.18-3.08,4.07,4.07,0,0,0-3.94,3.4,15.49,15.49,0,0,0-.13,2.26h0c0,.6,0,1.21,0,1.81a4.18,4.18,0,0,0,8.3.53A10.9,10.9,0,0,0,101.34,99.4Z" transform="translate(-6.77 -19.49)"/>
  <path class="cls-2" d="M293,257.85c-.68-.39-.47-1.05-.47-1.62q0-74.93,0-149.85a2.36,2.36,0,0,1,.08-.45,1.8,1.8,0,0,1,.4.1Z" transform="translate(-6.77 -19.49)"/>
  <path class="cls-3" d="M256.36,127.5c2.85-.93,3.65-2,3.67-4.89,0-2.72,0-5.44,0-8.15,0-5.58-2.5-8.11-8.15-8.13-11.55,0-23.11-.06-34.66,0-1.71,0-2.41-.33-2.28-2.2a62.45,62.45,0,0,0,0-7.24c-.07-1.37.3-1.79,1.73-1.77,6,.08,11.94,0,17.9,0,12,0,24,0,36,0,1.73,0,2.08.46,2.08,2.11q-.06,77.37,0,154.74c0,1.81-.61,2.07-2.2,2.07q-57.09-.07-114.19,0c-1.9,0-2.34-.5-2.33-2.36q.08-49.17,0-98.33c0-1.9.3-2.64,2.42-2.52,3.69.21,7.4.11,11.1,0,1.28,0,1.7.34,1.66,1.64-.08,3.1,0,6.19,0,9.29,0,5.17,2.67,7.84,7.79,7.84q37.6,0,75.22,0c5.25,0,7.88-2.68,7.88-8q0-9,0-17.9c0-3.26-.78-4.26-3.88-5.18a2.13,2.13,0,0,1-.91-1.72,74.1,74.1,0,0,1,0-7.6A1.71,1.71,0,0,1,256.36,127.5Z" transform="translate(-6.77 -19.49)"/>
  <path class="cls-4" d="M52.34,136.54c0,4.37,0,4.37-3.64,5.76,0-.32.08-.67.37-.74,2.56-.58,2.55-2.51,2.55-4.56q0-38.62,0-77.24c0-1.81-.68-3.58-.21-5.39A9.89,9.89,0,0,1,52.35,59Q52.32,97.75,52.34,136.54Z" transform="translate(-6.77 -19.49)"/>
  <path class="cls-4" d="M161.12,50.29a28.14,28.14,0,0,0-11.38,0c.22-.21-.13,0,.11-.2C151.74,48.58,159.31,48.69,161.12,50.29Z" transform="translate(-6.77 -19.49)"/>
  <path class="cls-5" d="M27,174.45q0-38.62,0-77.26c0-1.2-.13-2.11,1.67-2.1s1.94.6,1.93,2.09q-.08,22.42,0,44.86c0,5.46,2.34,8.16,7.81,8.79,1.34.16,1.14.91,1.15,1.7,0,3.25,0,6.49,0,9.74,0,4.52,2.8,7.34,7.36,7.34q38.07,0,76.13,0c4.54,0,7.31-2.78,7.39-7.33.05-3.25.05-6.5,0-9.74,0-1.25.29-1.72,1.63-1.68,4,.1,8,.13,12,.05,1.29,0,1.68.29,1.64,1.59-.1,2.87,0,5.74,0,8.61q0,45.21.06,90.4c0,2.16-.62,2.56-2.63,2.56q-56.66-.09-113.3,0c-2.25,0-2.85-.48-2.84-2.81C27,225.65,27,200.05,27,174.45Z" transform="translate(-6.77 -19.49)"/>
  <path class="cls-5" d="M206.52,114.16c0,1.57-.36,2-2,2-6.12-.09-12.24-.11-18.35,0-1.82,0-2-.62-2-2.2q.08-29.57,0-59.12c0-6.23-2.87-9.12-9.12-9.13h-8.38c-3.67,0-4.78.93-5.57,4.53a28.14,28.14,0,0,0-11.38,0c-.48-2.54-1.58-4.47-4.5-4.63a6,6,0,0,0-2.45-.18H84.9c-2.59,0-2.86-.23-2.91-2.78-.08-4.37,0-8.74,0-13.12a2.91,2.91,0,0,1,.31-1.53c1,0,1.95-.12,2.93-.12q59.69,0,119.38,0c1.62,0,2,.43,2,2Q206.45,72,206.52,114.16Z" transform="translate(-6.77 -19.49)"/>
  <path class="cls-6" d="M256.36,127.5c-.9,1.13-.5,2.44-.48,3.67.05,2.47-.33,5,.26,7.41a4.56,4.56,0,0,0-4.46,3.26c-.36,5.64-.15,11.29-.11,16.94,0,1.91-.56,2.35-2.4,2.34-18.85-.06-37.71,0-56.56,0-2.42,0-2.73-.23-2.75-2.71q-.09-15.39,0-30.77c0-2.57.29-2.76,2.92-2.76,4.67,0,9.35,0,14,0a5.51,5.51,0,0,0,3.26-.7,8.13,8.13,0,0,0,4.89-8c0-1.18.38-1.53,1.56-1.52q16.76.06,33.52,0c1.29,0,1.73.39,1.67,1.68-.09,2,0,3.92,0,5.88C251.69,125.83,252.84,127.13,256.36,127.5Z" transform="translate(-6.77 -19.49)"/>
  <path class="cls-7" d="M101.44,104.32a4.18,4.18,0,0,1-8.3-.53c0-.6,0-1.21,0-1.81h0a15.49,15.49,0,0,1,.13-2.26,4.07,4.07,0,0,1,3.94-3.4,3.91,3.91,0,0,1,4.18,3.08A10.9,10.9,0,0,1,101.44,104.32Z" transform="translate(-6.77 -19.49)"/>
  <path class="cls-7" d="M121.6,104a4.21,4.21,0,0,1-8.37.17,17.15,17.15,0,0,1,0-4.05,4.18,4.18,0,0,1,4.32-3.78,4.1,4.1,0,0,1,4,3.83,15.11,15.11,0,0,1,0,2h0C121.61,102.78,121.66,103.38,121.6,104Z" transform="translate(-6.77 -19.49)"/>
  <path class="cls-8" d="M162,266.53l-.13.18c-3,4-7.22,4.81-12,4.43-3.54-.28-7.27.6-10.2-2.31a27.92,27.92,0,0,0-2.63-2.35c-1.35-.05-2.71-.13-4.07-.13q-52.79,0-105.58,0a9.2,9.2,0,0,1-3.8-.28c.84-.52,1.76-.25,2.65-.25q53.65,0,107.31,0a9.7,9.7,0,0,0,2,0c-.26.27-1,0-1.58,0H24a5.85,5.85,0,0,1-2.24-.18c-4.14-1.19-6.49-4.19-6.49-8.32q0-72.06,0-144.11a12.06,12.06,0,0,1,3.39-9v6.77q-.06,71.59-.1,143.19c0,5.88,2.64,8.43,8.51,8.31.83,0,1.66,0,2.49,0q121.34,0,242.68,0a13.12,13.12,0,0,0,4.89-.65,6.42,6.42,0,0,0,4-6.26c.06-3.85,0-7.71,0-11.56q0-69.1,0-138.21c0-.57.06-1.14.1-2,2,1.67,3.21,3.27,3.21,5.69q0,73.18,0,146.37c0,4.59-4,10.59-10.75,10.59q-54.48,0-109,0c-.76,0-1.51,0-2.27.07.4-1.21,1.41-.6,2.09-.6,7.62-.06,15.25,0,22.87,0h75.17a14.22,14.22,0,0,1,2.25,0c-.3,0-1.11,0-1.91,0q-49,0-98,0C163.92,265.79,162.72,265.26,162,266.53Z" transform="translate(-6.77 -19.49)"/>
  <path class="cls-9" d="M52.34,136.54c0,4.37,0,4.37-3.64,5.76-2.78,0-5.57,0-8.35.15-1.16,0-1.46-.46-1.36-1.47,0-.3,0-.6,0-.91q0-41.73,0-83.47c0-1.81.33-2.51,2.3-2.39,3.38.21,6.78.12,10.17.16A9.89,9.89,0,0,1,52.35,59Q52.32,97.75,52.34,136.54Z" transform="translate(-6.77 -19.49)"/>
  <path class="cls-10" d="M210.06,124.15c-.55,1.17-1.63.9-2.57.9-4.91,0-9.81.07-14.71,0-1.61,0-2.26.33-2.25,2.11q.12,15.84,0,31.68c0,1.58.47,2.06,2.06,2.06q28.4-.07,56.8,0c1.51,0,1.93-.52,1.91-2-.07-4.9,0-9.81,0-14.71,0-.8-.29-1.67.38-2.37,0,5.89,0,11.78,0,17.67,0,1.35-.32,1.82-1.76,1.82q-35.35-.08-70.7,0c-1.41,0-1.89-.42-1.76-1.81a33.61,33.61,0,0,0,0-3.62c0-2.71-.6-5.3,3.23-6.51,2.5-.79,3.43-3.63,3.44-6.39,0-5.52.06-11,0-16.55,0-1.53.48-1.88,1.92-1.86,6.19.06,12.39,0,18.58,0A24.93,24.93,0,0,0,210.06,124.15Z" transform="translate(-6.77 -19.49)"/>
  <path class="cls-4" d="M175.8,140.34c-.18-2.71-.05-5.44-.05-8.16q0-37.83,0-75.68c0-1.67-.24-2.45-2.15-2.29-2.25.18-4.53,0-6.8,0-3.53,0-4.44-.66-5.71-4a28.14,28.14,0,0,0-11.38,0c-1.24,3.24-2.19,3.92-5.73,3.92H54.59c-1.05,0-2.11.07-3.16.11A9.89,9.89,0,0,1,52.35,59q0,38.79,0,77.58c0,4.37,0,4.37-3.64,5.76,9,0,18,.09,27,.17,1.18,0,1.33-.71,1.55-1.53a28.84,28.84,0,0,1,5.27-10.67A2,2,0,0,0,83,129a35.16,35.16,0,0,0,7.8,5.54h0a35.8,35.8,0,0,0,33.59-.23h0a35.64,35.64,0,0,0,7.25-5.2,2.19,2.19,0,0,0,.52,1,27.57,27.57,0,0,1,5.32,10.89,1.85,1.85,0,0,0,2.24,1.6c3.17-.16,6.34-.2,9.51-.21,8.08,0,16.16,0,24.24,0C175.18,142.49,175.94,142.24,175.8,140.34ZM122,126.68h.11a24.4,24.4,0,0,1-10.31,3.76,27.91,27.91,0,0,1-30.63-18.37c0-.07,0-.15-.08-.24a27.69,27.69,0,0,1-1.14-4.67c0-.19,0-.38-.07-.58l0-.08a27.84,27.84,0,0,1,54.62-10.3h0a28.21,28.21,0,0,1,.82,6.74,27.77,27.77,0,0,1-1.48,9h0A27.92,27.92,0,0,1,122,126.68Z" transform="translate(-6.77 -19.49)"/>
  <path class="cls-11" d="M122.07,126.68a24.4,24.4,0,0,1-10.31,3.76,27.85,27.85,0,0,0,10.2-3.76Z" transform="translate(-6.77 -19.49)"/>
  <path class="cls-12" d="M82.26,28.09c.79,1.34.41,2.81.43,4.21,0,3.55.12,7.11,0,10.65-.07,1.9.56,2.4,2.43,2.4q28.77-.1,57.53,0c.88,0,1.83-.3,2.61.38-7.24,0-14.48.08-21.72.08-17.21,0-34.42,0-51.63,0-1.75,0-2.33-.4-2.27-2.24.14-4.6.1-9.21,0-13.81,0-1.36.33-1.86,1.75-1.81C75,28.07,78.64,28.05,82.26,28.09Z" transform="translate(-6.77 -19.49)"/>
  <path class="cls-13" d="M127.45,142.48c-6.72-.06-13.44,0-20.16,0v0c-6.57,0-13.14-.08-19.71,0-2.08,0-2.09-.68-1.33-2.16.31-.6.55-1.24.85-1.84,1.6-3.12,2.14-4.14,3.74-3.91h0a35.8,35.8,0,0,0,33.59-.23h0a2.33,2.33,0,0,1,1.37,1.18,34.56,34.56,0,0,1,2.84,5.12C129.25,142,129,142.49,127.45,142.48Z" transform="translate(-6.77 -19.49)"/>
  <path class="cls-14" d="M85,161.27c-11.62,0-23.24,0-34.86,0-1.67,0-2.47-.24-2.3-2.17a51.28,51.28,0,0,0,0-6.56c0-1.22.24-1.72,1.6-1.72q35.55,0,71.1,0c1.15,0,1.61.29,1.57,1.51-.09,2.33-.13,4.68,0,7,.1,1.64-.49,2-2,2-11.7-.06-23.4,0-35.1,0Z" transform="translate(-6.77 -19.49)"/>
  <path class="cls-15" d="M21.73,265.59l113.88,0c.15,0,.29.07.46.44H26.38c-.9,0-1.81,0-2.71.05A2.23,2.23,0,0,1,21.73,265.59Z" transform="translate(-6.77 -19.49)"/>
  <path class="cls-15" d="M162,266.53c.2-1.46,1.35-.95,2.14-1,8.15,0,16.3,0,24.45,0h75.19a5,5,0,0,1,2.48.22,5.24,5.24,0,0,1-2.5.21q-49.24,0-98.51,0c-.94,0-2-.35-2.82.41Z" transform="translate(-6.77 -19.49)"/>
  <path class="cls-16" d="M137.12,266.48a4.29,4.29,0,0,1,2.63,2.35C138.35,268.63,137.75,267.54,137.12,266.48Z" transform="translate(-6.77 -19.49)"/>
  <path class="cls-17" d="M214.51,241H177.15c-5.26,0-8-2.62-8-7.87q-.06-23.88,0-47.78c0-5,2.76-7.72,7.7-7.72H252q8,0,8,7.86,0,23.77,0,47.55c0,5.36-2.76,8-8.14,8H214.51Z" transform="translate(-6.77 -19.49)"/>
  <path class="cls-4" d="M81.29,237c-3.32-1-6.7-.2-10.05-.37-1.09,0-.46,1.34-1.2,1.67a2,2,0,0,1-.62-1.39c-.6-2.89-1.59-3.69-4.57-3.82-1.32-.06-2.72.27-3.88-.7-.93-1.18-.73-2.58-.73-3.91q0-18.78,0-37.55c0-3.46-.06-3.51-3.54-3.53-1.88,0-3.77,0-5.65,0a3.53,3.53,0,0,1-2.76-.74.52.52,0,0,1,.27-.73,6.51,6.51,0,0,1,2.9-.32H119a7.87,7.87,0,0,1,2.69.25c1.15.59,1.16,1.7,1.17,2.75q.08,20.68,0,41.39c0,2.62-.65,3.16-3.52,3.18-8.75.06-17.5,0-26.25,0-.9,0-1.81.06-2.71,0C86.66,232.91,83.22,233.17,81.29,237Z" transform="translate(-6.77 -19.49)"/>
  <path class="cls-18" d="M81.29,237c.72-3.59,1.85-4.52,5.55-4.52,10.87,0,21.74,0,32.61,0,1.94,0,2.68-.32,2.66-2.52-.12-13.89,0-27.78-.07-41.67,0-.7.34-1.51-.36-2.12a3.66,3.66,0,0,0-2-.2Q85,186,50.27,186a3.24,3.24,0,0,0-2,.23h0a29.83,29.83,0,0,1,.27,4.72q0,18.69,0,37.37c0,3.32.08,3.38,3.46,3.39h6.34a6,6,0,0,1,3.06.66c1.12,0,2.25.08,3.37.09,4.28,0,5.72,1.61,5.28,5.82A4.93,4.93,0,0,1,65.2,241c-6.05-.05-12.09,0-18.13,0-4.67,0-7.52-2.81-7.52-7.45q0-24.35,0-48.71c0-4.26,2.81-7.17,7.05-7.18q38.41-.06,76.82,0a6.71,6.71,0,0,1,7,6.83q.08,24.93,0,49.85a6.63,6.63,0,0,1-6.69,6.62c-12.69.07-25.38,0-38.07,0C83.05,240.92,81.87,239.25,81.29,237Z" transform="translate(-6.77 -19.49)"/>
  <path class="cls-19" d="M121.6,104a4.21,4.21,0,0,1-8.37.17,17.15,17.15,0,0,1,0-4.05,4.18,4.18,0,0,1,4.32-3.78,4.1,4.1,0,0,1,4,3.83,15.11,15.11,0,0,1,0,2h0C121.61,102.78,121.66,103.38,121.6,104Z" transform="translate(-6.77 -19.49)"/>
  <path class="cls-20" d="M101.44,104.32a4.18,4.18,0,0,1-8.3-.53c0-.6,0-1.21,0-1.81h0a15.49,15.49,0,0,1,.13-2.26,4.07,4.07,0,0,1,3.94-3.4,3.91,3.91,0,0,1,4.18,3.08A10.9,10.9,0,0,1,101.44,104.32Z" transform="translate(-6.77 -19.49)"/>
  <path class="cls-21" d="M91.1,160.84c-9.43,0-18.87,0-28.3,0-1.52,0-2.13-.23-1.9-1.92a20.66,20.66,0,0,0,0-5c-.25-2.27.7-2.72,2.81-2.7,11,.11,22,.05,33.06.05,7.55,0,15.09.06,22.64,0,1.84,0,2.39.56,2.25,2.31a30.67,30.67,0,0,0,0,5c.16,1.79-.46,2.31-2.27,2.3C110,160.8,100.54,160.85,91.1,160.84Z" transform="translate(-6.77 -19.49)"/>
  <path class="cls-22" d="M251.33,186.21c.67.53.35,1.26.35,1.89q0,21.17,0,42.31c0,1.13.24,2.14-1.63,2.14-19.68-.08-39.36-.05-59-.06a3.64,3.64,0,0,1-.44-.07,3.6,3.6,0,0,1-.74-2.77q0-20.27,0-40.54c0-2.88.27-3.09,3.08-3.09H249.1A5,5,0,0,1,251.33,186.21Z" transform="translate(-6.77 -19.49)"/>
  <path class="cls-23" d="M251.33,186.21l-57.77.06c-3,0-3,0-3,2.88q0,21.63,0,43.27c-3.85,0-7.7,0-11.55.11-1.22,0-1.52-.42-1.51-1.57q0-21.63,0-43.27c0-1.21.23-1.69,1.61-1.68q35.44,0,70.9,0A7.39,7.39,0,0,1,251.33,186.21Z" transform="translate(-6.77 -19.49)"/>
  <path class="cls-9" d="M61.39,232.4c-4.06,0-8.13,0-12.19.11-.93,0-1.34-.25-1.34-1.26q0-22.25,0-44.49c0-.16.23-.33.35-.5,2.71,1,5.5.32,8.25.4,4.43.13,4.44,0,4.44,4.41v38.48A4.76,4.76,0,0,0,61.39,232.4Z" transform="translate(-6.77 -19.49)"/>
  <path class="cls-9" d="M48.28,186.25c.53-.43,1.16-.25,1.75-.25q35.07,0,70.14,0c.51,0,1.07-.17,1.51.25Z" transform="translate(-6.77 -19.49)"/>
  <path d="M122,126.68a27.85,27.85,0,0,1-10.2,3.76,24.4,24.4,0,0,0,10.31-3.76Z" transform="translate(-6.77 -19.49)"/>
  <path class="cls-11" d="M122,126.68a27.85,27.85,0,0,1-40.83-14.61c0-.07,0-.15-.08-.24a27.69,27.69,0,0,1-1.14-4.67c0-.19,0-.38-.07-.58l.17.11a7.69,7.69,0,0,0,.69.39,10.58,10.58,0,0,0,4,.76,4.21,4.21,0,0,1,3.62,2.77c4.49,9.61,15.57,16.23,26.31,16.52a26.05,26.05,0,0,0,5.15-.38l.43-.08A7.79,7.79,0,0,1,122,126.68Z" transform="translate(-6.77 -19.49)"/>
  <path class="cls-7" d="M134.44,96.2h0a27.84,27.84,0,0,0-54,0,28.43,28.43,0,0,0-.61,10.35l0,.08.17.11a7.69,7.69,0,0,0,.69.39,10.58,10.58,0,0,0,4,.76,4.21,4.21,0,0,1,3.62,2.77c4.49,9.61,15.57,16.23,26.31,16.52a26.05,26.05,0,0,0,5.15-.38l.43-.08a7.79,7.79,0,0,1,1.74,0,27.92,27.92,0,0,0,11.82-14.76h0a27.77,27.77,0,0,0,1.48-9A28.21,28.21,0,0,0,134.44,96.2Zm-33,8.12a4.18,4.18,0,0,1-8.3-.53c0-.6,0-1.21,0-1.81h0a15.49,15.49,0,0,1,.13-2.26,4.07,4.07,0,0,1,3.94-3.4,3.91,3.91,0,0,1,4.18,3.08A10.9,10.9,0,0,1,101.44,104.32ZM121.6,104a4.21,4.21,0,0,1-8.37.17,17.15,17.15,0,0,1,0-4.05,4.18,4.18,0,0,1,4.32-3.78,4.1,4.1,0,0,1,4,3.83,15.11,15.11,0,0,1,0,2h0C121.61,102.78,121.66,103.38,121.6,104Z" transform="translate(-6.77 -19.49)"/>
  <path d="M121,69.88h0a3,3,0,0,0-.24-.26l-9.27-9.27a4,4,0,0,0-2.82-1.17,4,4,0,0,0-2.81,6.8l1.24,1.25a35.9,35.9,0,0,0-4.17.27l-7.16-7.15A4,4,0,0,0,90.11,66L94,69.84a35.72,35.72,0,1,0,27,0Zm-13.54,60.89a27.84,27.84,0,0,1-7-54.77,27.54,27.54,0,0,1,4.65-.79c.78-.07,1.57-.1,2.37-.1a27.83,27.83,0,0,1,0,55.66Z" transform="translate(-6.77 -19.49)"/>
</svg>
