<svg xmlns="http://www.w3.org/2000/svg" width="16.287" height="20" viewBox="0 0 16.287 20">
  <defs>
    <style>
      .cls-1 {
        fill: #d9ecfd;
      }

      .cls-2 {
        fill: #618baa;
      }

      .cls-3 {
        fill: #456b93;
      }

      .cls-4 {
        fill: #ffe177;
      }

      .cls-5 {
        fill: #ffc85e;
      }
    </style>
  </defs>
  <g id="free-icon-light-bulb-3558016" transform="translate(-64.058)">
    <path id="패스_86" data-name="패스 86" class="cls-1" d="M216.558,465.475v.006a1.692,1.692,0,1,0,3.384,0v-.006Z" transform="translate(-146.049 -447.49)"/>
    <path id="패스_87" data-name="패스 87" class="cls-2" d="M200.683,422.522H197.51a.952.952,0,1,1,0-1.9h3.173a.952.952,0,1,1,0,1.9Z" transform="translate(-126.895 -404.531)"/>
    <path id="패스_88" data-name="패스 88" class="cls-3" d="M198.779,422.519H197.51a.952.952,0,0,1,0-1.9h1.269a.952.952,0,1,0,0,1.9Z" transform="translate(-126.895 -404.528)"/>
    <path id="패스_89" data-name="패스 89" class="cls-2" d="M200.683,377.522H197.51a.952.952,0,1,1,0-1.9h3.173a.952.952,0,1,1,0,1.9Z" transform="translate(-126.895 -361.097)"/>
    <path id="패스_90" data-name="패스 90" class="cls-3" d="M198.779,377.519H197.51a.952.952,0,0,1,0-1.9h1.269a.952.952,0,1,0,0,1.9Z" transform="translate(-126.895 -361.095)"/>
    <path id="패스_91" data-name="패스 91" class="cls-4" d="M131.613,63.406a5.774,5.774,0,1,0-9.286,4.584,2.515,2.515,0,0,1,.973,2,1.1,1.1,0,0,0,1.1,1.1h2.885a1.1,1.1,0,0,0,1.1-1.1h0a2.559,2.559,0,0,1,1-2.019,5.764,5.764,0,0,0,2.236-4.563Z" transform="translate(-53.638 -55.193)"/>
    <path id="패스_92" data-name="패스 92" class="cls-5" d="M124.895,70.767a1.093,1.093,0,0,0,.775.321H124.4a1.1,1.1,0,0,1-1.1-1.1,2.515,2.515,0,0,0-.973-2,5.774,5.774,0,0,1,3.581-10.357c.191,0,.38.014.566.034A5.774,5.774,0,0,0,123.6,67.993a2.515,2.515,0,0,1,.973,2A1.093,1.093,0,0,0,124.895,70.767Z" transform="translate(-53.641 -55.197)"/>
    <g id="그룹_121" data-name="그룹 121" transform="translate(66.117 2.162)">
      <path id="패스_93" data-name="패스 93" d="M113.543,58.606a5.532,5.532,0,0,1,4.612-6.858.317.317,0,0,0-.076-.63,6.167,6.167,0,0,0-5.148,7.654q.148.285.389.223A.317.317,0,0,0,113.543,58.606Z" transform="translate(-112.724 -51.116)"/>
      <path id="패스_94" data-name="패스 94" d="M135.9,51.117a.312.312,0,0,0-.353.253.3.3,0,0,0,.278.322,5.163,5.163,0,0,1,4.8,4.944,4.811,4.811,0,0,1-2.113,3.936,2.573,2.573,0,0,0-1.123,2.072c0,.484-.507.713-.952.71V57.864h.7a1.221,1.221,0,1,0,0-2.432h-.007a1.28,1.28,0,0,0-1.333,1.216v.637h-1.269v-.637a1.28,1.28,0,0,0-1.333-1.216h-.007a1.221,1.221,0,1,0,0,2.432h.7v5.489c-.446,0-.952-.226-.952-.71a2.524,2.524,0,0,0-1.1-2.054A5.132,5.132,0,0,1,130.4,59.06a.334.334,0,0,0-.432-.112.277.277,0,0,0-.123.394,5.727,5.727,0,0,0,1.617,1.707,1.958,1.958,0,0,1,.849,1.594,1.326,1.326,0,0,0,.476.965,1.193,1.193,0,0,0-.476.9,1.115,1.115,0,0,0,.431.868,1.192,1.192,0,0,0-.431.869,1.176,1.176,0,0,0,.862,1.1,2.04,2.04,0,0,0,3.987,0,1.244,1.244,0,0,0,.862-1.1,1.115,1.115,0,0,0-.431-.868,1.191,1.191,0,0,0,.431-.869,1.122,1.122,0,0,0-.477-.9,1.242,1.242,0,0,0,.477-.965,2.034,2.034,0,0,1,.877-1.614,5.37,5.37,0,0,0,2.359-4.393A5.764,5.764,0,0,0,135.9,51.117Zm.54,5.532a.67.67,0,0,1,.7-.637h.007a.64.64,0,1,1,0,1.274h-.7Zm-3.243.637a.64.64,0,1,1,0-1.274h.007a.67.67,0,0,1,.7.637v.637Zm1.339.579H135.8v5.489h-1.269Zm.635,10.509a1.357,1.357,0,0,1-1.338-.965h2.675A1.357,1.357,0,0,1,135.168,68.373Zm1.586-4.44a.582.582,0,1,1,0,1.158H136.3a.291.291,0,1,0,0,.579h.458a.609.609,0,0,1,.635.579.63.63,0,0,1-.635.579h-3.173a.582.582,0,1,1,0-1.158h1.332a.291.291,0,1,0,0-.579h-1.332a.582.582,0,1,1,0-1.158Z" transform="translate(-129.083 -51.115)"/>
    </g>
    <path id="패스_95" data-name="패스 95" d="M249.375,1.523a.317.317,0,0,1-.317-.317V.317a.317.317,0,1,1,.635,0v.888A.317.317,0,0,1,249.375,1.523Z" transform="translate(-177.174)"/>
    <g id="그룹_122" data-name="그룹 122" transform="translate(66.35 2.292)">
      <path id="패스_96" data-name="패스 96" d="M119.189,55.448a.316.316,0,0,1-.224-.093l-.628-.628a.317.317,0,0,1,.449-.449l.628.628a.317.317,0,0,1-.224.542Z" transform="translate(-118.243 -54.186)"/>
      <path id="패스_97" data-name="패스 97" d="M365.969,302.23a.316.316,0,0,1-.224-.093l-.628-.628a.317.317,0,1,1,.449-.449l.628.628a.317.317,0,0,1-.224.542Z" transform="translate(-354.583 -290.527)"/>
    </g>
    <g id="그룹_123" data-name="그룹 123" transform="translate(64.058 7.192)">
      <path id="패스_98" data-name="패스 98" d="M65.264,185.635h-.888a.317.317,0,1,1,0-.635h.888a.317.317,0,1,1,0,.635Z" transform="translate(-64.058 -185)"/>
      <path id="패스_99" data-name="패스 99" d="M414.264,185.635h-.888a.317.317,0,1,1,0-.635h.888a.317.317,0,0,1,0,.635Z" transform="translate(-398.294 -185)"/>
    </g>
    <g id="그룹_124" data-name="그룹 124" transform="translate(66.35 2.292)">
      <path id="패스_100" data-name="패스 100" d="M118.561,302.228a.317.317,0,0,1-.224-.542l.628-.628a.317.317,0,0,1,.449.449l-.628.628A.316.316,0,0,1,118.561,302.228Z" transform="translate(-118.243 -290.526)"/>
      <path id="패스_101" data-name="패스 101" d="M365.34,55.449a.317.317,0,0,1-.224-.542l.628-.628a.317.317,0,0,1,.449.449l-.628.628A.316.316,0,0,1,365.34,55.449Z" transform="translate(-354.582 -54.186)"/>
    </g>
  </g>
</svg>
