<?xml version="1.0" encoding="utf-8"?>
<!-- Generator: Adobe Illustrator 25.0.0, SVG Export Plug-In . SVG Version: 6.00 Build 0)  -->
<svg version="1.1" id="레이어_1" focusable="false"
	 xmlns="http://www.w3.org/2000/svg" xmlns:xlink="http://www.w3.org/1999/xlink" x="0px" y="0px" viewBox="0 0 12 12"
	 style="enable-background:new 0 0 12 12;" xml:space="preserve">
<style type="text/css">
	.st0{fill:#8D6262;}
</style>
<path class="st0" d="M11,1.5V4c0,0.6-0.4,1-1,1H7.5C7.2,5,7,4.8,7,4.5S7.2,4,7.5,4h1.9C8.5,2.9,7.5,2,5.9,2C3.7,2,2,3.8,2,6
	c0,2.2,1.8,4,3.9,4C7,10,8.1,9.5,8.8,8.7c0.2-0.2,0.5-0.2,0.7,0c0.2,0.2,0.2,0.5,0,0.7C8.6,10.4,7.3,11,5.9,11C3.2,11,1,8.8,1,6
	c0-2.8,2.2-5,4.9-5C8,1,9.3,2.3,10,3.2V1.5C10,1.2,10.2,1,10.5,1S11,1.2,11,1.5z"/>
</svg>
