<svg id="레이어_1" data-name="레이어 1" xmlns="http://www.w3.org/2000/svg" width="74.29" height="74.07" fill="#8D6262" viewBox="0 0 74.29 74.07">
  <path d="M77.36,12.93h-39a9.84,9.84,0,0,0-9.83,9.83v3.42l-8.19,2.05A9.89,9.89,0,0,0,13.15,40l9.1,39.43A9.81,9.81,0,0,0,31.88,87a10.47,10.47,0,0,0,2.3-.26l35.21-8.8a9.87,9.87,0,0,0,6.68-5.74l.25-.62h1a9.84,9.84,0,0,0,9.83-9.83v-39A9.84,9.84,0,0,0,77.36,12.93ZM72.74,73.22a7.42,7.42,0,0,1-3.92,2.45l-35.18,8.8a7.64,7.64,0,0,1-1.77.21,7.47,7.47,0,0,1-7.34-5.8L15.42,39.45a7.47,7.47,0,0,1,5.5-9l7.62-1.9V61.75a9.84,9.84,0,0,0,9.83,9.83H74.11Zm12.05-10.5a7.5,7.5,0,0,1-7.43,6.52h-39a7.5,7.5,0,0,1-7.5-7.49V53.57L42.7,41.74l16.51,16.5a1.15,1.15,0,0,0,.82.34,1.26,1.26,0,0,0,.65-.19l12.2-8.14,12,12Zm.07-3.79-11-11a1.15,1.15,0,0,0-.82-.34,1.13,1.13,0,0,0-.65.19l-12.2,8.14L43.52,39.26a1.15,1.15,0,0,0-.82-.34,1.12,1.12,0,0,0-.82.35l-11,11V22.76a7.5,7.5,0,0,1,7.5-7.5h39a7.5,7.5,0,0,1,7.5,7.5Z" transform="translate(-12.9 -12.93)"/>
  <path d="M77.36,12.93h-39a9.84,9.84,0,0,0-9.83,9.83v3.42l-8.19,2.05A9.89,9.89,0,0,0,13.15,40l9.1,39.43A9.81,9.81,0,0,0,31.88,87a10.47,10.47,0,0,0,2.3-.26l35.21-8.8a9.87,9.87,0,0,0,6.68-5.74l.25-.62h1a9.84,9.84,0,0,0,9.83-9.83v-39A9.84,9.84,0,0,0,77.36,12.93ZM72.74,73.22a7.42,7.42,0,0,1-3.92,2.45l-35.18,8.8a7.64,7.64,0,0,1-1.77.21,7.47,7.47,0,0,1-7.34-5.8L15.42,39.45a7.47,7.47,0,0,1,5.5-9l7.62-1.9V61.75a9.84,9.84,0,0,0,9.83,9.83H74.11Zm12.05-10.5a7.5,7.5,0,0,1-7.43,6.52h-39a7.5,7.5,0,0,1-7.5-7.49V53.57L42.7,41.74l16.51,16.5a1.15,1.15,0,0,0,.82.34,1.26,1.26,0,0,0,.65-.19l12.2-8.14,12,12Zm.07-3.79-11-11a1.15,1.15,0,0,0-.82-.34,1.13,1.13,0,0,0-.65.19l-12.2,8.14L43.52,39.26a1.15,1.15,0,0,0-.82-.34,1.12,1.12,0,0,0-.82.35l-11,11V22.76a7.5,7.5,0,0,1,7.5-7.5h39a7.5,7.5,0,0,1,7.5,7.5Z" transform="translate(-12.9 -12.93)"/>
  <path d="M75.19,21.59H66.53a3.34,3.34,0,0,0-3.33,3.34v8.66a3.33,3.33,0,0,0,3.33,3.33h8.66a3.33,3.33,0,0,0,3.33-3.33V24.93A3.34,3.34,0,0,0,75.19,21.59Zm1,13H65.53V23.93H76.19Z" transform="translate(-12.9 -12.93)"/>
</svg>
