<svg id="레이어_1" data-name="레이어 1" xmlns="http://www.w3.org/2000/svg" width="266.67" height="256.86" viewBox="0 0 266.67 256.86">
  <defs>
    <style>
      .cls-1 {
        fill: #020202;
      }

      .cls-2 {
        fill: #c3e3d4;
      }

      .cls-3 {
        fill: #daeee3;
      }

      .cls-4 {
        fill: #030404;
      }

      .cls-5 {
        fill: #586170;
      }

      .cls-6 {
        fill: #f5e48c;
      }

      .cls-7 {
        fill: #020203;
      }

      .cls-8 {
        fill: #020303;
      }

      .cls-9 {
        fill: #020304;
      }

      .cls-10 {
        fill: #f26c50;
      }
    </style>
  </defs>
  <path class="cls-1" d="M43.73,190.16a2.94,2.94,0,0,1,3-1.7c6,0,11.91,0,18,0-2.34-6.49-1.28-13.12-1.3-19.65q-.13-71.28,0-142.58a6.21,6.21,0,0,1,.16-2.06,3.85,3.85,0,0,1,3.92-2.59,3.78,3.78,0,0,1,3.36,3.28,12.79,12.79,0,0,1,0,1.64q0,77,0,154.05c0,2.76.59,5.2,2.62,7.18a2.41,2.41,0,0,0,1.85.74c2.33,0,4.67,0,7,0a2.28,2.28,0,0,0,1.83-.77,8.82,8.82,0,0,0,2.57-6.45q0-29.58,0-59.15,0-23.61,0-47.23A15.47,15.47,0,0,1,103.38,59c1.59.07,3.18,0,4.77,0q28.3,0,56.61,0c1.27,0,1.53-.34,1.52-1.56-.05-10.57,0-21.15,0-31.73,0-3,2.37-4.85,5-3.93,1.61.56,2.46,1.92,2.46,4,0,10.43,0,20.86,0,31.28,0,1.49.27,2,1.89,2,11.42-.08,22.85,0,34.27,0,14.3,0,24.66,10.42,24.66,24.74q0,51.47,0,103c0,1.39.26,1.81,1.75,1.8,14.6-.06,29.2,0,43.8,0a3.12,3.12,0,0,1,2.89,1.16c1.05,1.56-.06,3.55-2.11,3.71-1.53.12-3.08.07-4.61.1-.76.69-1.69.48-2.56.48q-18,0-36.06,0c-2.61,0-2.61,0-2.61,2.65q0,18.62,0,37.24a20.69,20.69,0,0,1-.05,2.23,4.17,4.17,0,0,1-3.4,3.84,10.88,10.88,0,0,1-2.67.23H117c-1,0-2-.06-3-.11a5.56,5.56,0,0,1-3.44-1.71,2.78,2.78,0,0,1-.75-2q0-20.06,0-40.12c0-.67.18-1.4-.37-2a2.87,2.87,0,0,0-1.88-.32c-5.46,0-10.92,0-16.38,0a5.51,5.51,0,0,0-3.31,1.06,15.53,15.53,0,0,1-18.13,0,5.69,5.69,0,0,0-3.46-1.06c-6,0-12,0-18,0a17.83,17.83,0,0,1-1.79,0C44.12,193.61,43.3,192.49,43.73,190.16Z" transform="translate(-16.67 -21.57)"/>
  <path class="cls-2" d="M110.84,238.08a5.78,5.78,0,0,0,2.72,1.51,24.63,24.63,0,0,1,5.61,1.92,228.8,228.8,0,0,0,29.24,9.06,131.58,131.58,0,0,0,16.66,3c3.3.34,6.59.85,9.89,1.25a42.21,42.21,0,0,0,4.89.29c4.7,0,9.38.72,14.11.25,3.64-.37,7.32-.38,11-.63s7.39-.85,11.06-1.38a146.78,146.78,0,0,0,27.24-6.74,7.18,7.18,0,0,1,1.88-.46c.49,0,1.14-.24,1.27.59a119.34,119.34,0,0,1-12.7,9.21,131.94,131.94,0,0,1-16.94,8.9c-4.56,2-9.22,3.76-13.92,5.36s-9.76,2.8-14.71,4c-6.16,1.46-12.43,2.21-18.67,3.16a84.54,84.54,0,0,1-9,.67c-5.1.21-10.21.58-15.31.28-5.71-.35-11.43-.63-17.13-1.35a162.45,162.45,0,0,1-21.36-4,150.19,150.19,0,0,1-19.8-6.59c-4.63-1.94-9.19-4-13.59-6.38a116.27,116.27,0,0,1-13-8c-2.76-2-5.48-4-8-6.27-.88-.77-1.69-1.64-2.53-2.46-5.92-7.08-4.35-16.51,1.58-22.15a17,17,0,0,1,12-4.82A20.46,20.46,0,0,1,73.89,219c10,5.81,20.16,11.26,30.59,16.23C106.57,236.27,108.82,236.93,110.84,238.08Z" transform="translate(-16.67 -21.57)"/>
  <path class="cls-3" d="M246.39,246.77c-1.28-.72-2.41.06-3.5.47-3.47,1.31-7.09,2.09-10.62,3.18-3.26,1-6.61,1.54-9.91,2.36-3,.73-6,.93-9,1.46a105.87,105.87,0,0,1-13.51,1.36c-4,.17-8,.62-12,.4-5.08-.28-10.18-.35-15.22-1s-9.95-1.24-14.9-2.14c-5.73-1.05-11.37-2.42-17-3.82-2-.49-3.95-1.2-5.92-1.82-2.91-.93-5.76-2-8.7-2.83a65.58,65.58,0,0,1-11-4.28c-.73-.34-1.46-.09-2.18-.29.09-.08.14-.17.22-.19a2.14,2.14,0,0,1,.44-.08c2.83,0,5.65-.06,8.48-.06H229.73c3.49,0,4.79-1.28,4.79-4.72,0-13.3,0-26.61,0-39.92,0-1.18.22-1.58,1.51-1.58,13,.06,25.92,0,38.88,0,.44,0,.88.05,1.33.08A1.36,1.36,0,0,1,277,195c-.3,2.7-.94,5.34-1.45,8a50.42,50.42,0,0,1-2.37,7.71,69,69,0,0,1-4.41,9.66A73.67,73.67,0,0,1,259.39,234a94.91,94.91,0,0,1-6.53,7.06A61,61,0,0,1,246.39,246.77Z" transform="translate(-16.67 -21.57)"/>
  <path class="cls-3" d="M110.84,238.08c-.57.65-1,0-1.42-.21-4.1-1.87-8.21-3.74-12.27-5.7-2.62-1.26-5.15-2.74-7.77-4-3.39-1.67-6.61-3.65-9.95-5.41-2.12-1.11-4.17-2.42-6.26-3.64A19.26,19.26,0,0,0,59.65,217c-3,.53-5.32,2.27-7.69,3.9a11.86,11.86,0,0,0-3.41,4.26,15.66,15.66,0,0,0-.6,14.63c.54,1.17,1.23,2.23,1.78,3.38A49,49,0,0,1,41.41,235a76.52,76.52,0,0,1-8.2-11.17A63.54,63.54,0,0,1,26.67,210c-.52-1.77-1.2-3.54-1.71-5.33a27.92,27.92,0,0,1-1.45-6.89,5.88,5.88,0,0,0-.38-1.73,3.26,3.26,0,0,1,.07-2.6A2.34,2.34,0,0,1,25,193c1.88,0,3.77-.12,5.63,0a5.38,5.38,0,0,0,5.09-2c2.13,0,4.26-.06,6.39,0a1.51,1.51,0,0,0,1.6-.91c-.08,2.36.73,3.18,3.16,3.19,6.76,0,13.51,0,20.26,0a3.37,3.37,0,0,1,2.28.8,15,15,0,0,0,18.72,0,3.54,3.54,0,0,1,2.42-.8c6,0,11.92,0,17.88,0,.49,0,1,.06,1.47.09a3.26,3.26,0,0,1,.14,1.61q0,20,0,40a3.87,3.87,0,0,0,.12,1.62A2,2,0,0,0,110.84,238.08Z" transform="translate(-16.67 -21.57)"/>
  <path class="cls-4" d="M35.74,191.05c-.79,2-1.22,2.28-3.41,2.3l-9.13.08c-1.28,0-2.57,0-3.86-.09-1.65-.08-2.67-1-2.67-2.41a2.39,2.39,0,0,1,2.62-2.44c4.62-.05,9.24,0,13.86,0C34.76,188.51,35.51,189.55,35.74,191.05Z" transform="translate(-16.67 -21.57)"/>
  <path class="cls-5" d="M117.65,152.15q0-37.7,0-75.39c0-3.25-.15-6.45-1.76-9.39-.33-.59-.25-.92.52-.89s1.49,0,2.24,0H210c9.8,0,17.05,7.18,17.05,17q0,73.3,0,146.6c0,1.41-.21,1.94-1.82,1.94q-53-.09-105.92,0c-1.42,0-1.7-.45-1.7-1.76Q117.68,191.18,117.65,152.15Z" transform="translate(-16.67 -21.57)"/>
  <path class="cls-6" d="M110.16,129.21q0,27.18,0,54.35c0,1.31-.24,1.79-1.67,1.75-4.22-.11-8.44-.1-12.66,0-1.32,0-1.64-.31-1.64-1.63q.06-53.33,0-106.63c0-.85,0-1.69,0-2.53a8,8,0,1,1,15.91,0c0,2.13,0,4.27,0,6.4Z" transform="translate(-16.67 -21.57)"/>
  <path class="cls-2" d="M110.19,236.64c-.43-.41-.27-.93-.27-1.41V193.44c.57.41.24,1,.24,1.49Q110.21,215.78,110.19,236.64Z" transform="translate(-16.67 -21.57)"/>
  <path class="cls-1" d="M152.23,153.5c0-5.12,0-10.23,0-15.34,0-3.58,2.54-5.2,5.82-3.79l35.4,15.16c.27.12.53.27.81.38a3.78,3.78,0,0,1,2.86,3.88c-.09,1.87-1.34,2.9-3.06,3.62C182,162.52,170,167.7,158,172.85c-3.18,1.37-5.71-.26-5.73-3.72C152.21,163.92,152.23,158.71,152.23,153.5Z" transform="translate(-16.67 -21.57)"/>
  <path class="cls-7" d="M172.51,185.33q22,0,43.94,0a3.55,3.55,0,0,1,3.58,1.9,3.63,3.63,0,0,1-.21,3.94,4,4,0,0,1-3.64,1.63H128.45c-2.53,0-4.16-1.41-4.24-3.61a3.52,3.52,0,0,1,3.76-3.83c11.17,0,22.34,0,33.52,0h11Z" transform="translate(-16.67 -21.57)"/>
  <path class="cls-1" d="M172.2,122.56H128.26c-2.4,0-3.94-1.33-4-3.43a3.74,3.74,0,0,1,4-4q11.93,0,23.83,0h64c2.43,0,3.74.88,4.31,2.86a3.64,3.64,0,0,1-3.16,4.61c-.55,0-1.09,0-1.64,0H172.2Z" transform="translate(-16.67 -21.57)"/>
  <path class="cls-8" d="M123.29,160.85c0-1.19,0-2.38,0-3.57,0-.71.13-1.09,1-1.08,2.44.05,4.87,0,7.3,0,.77,0,1,.25,1,1q-.06,3.72,0,7.44c0,.8-.3,1-1.05,1-2.38,0-4.77-.05-7.15,0-.84,0-1.15-.27-1.12-1.12.06-1.23,0-2.48,0-3.72Z" transform="translate(-16.67 -21.57)"/>
  <path class="cls-7" d="M221.41,132.9c0,1.24,0,2.48,0,3.71,0,.79-.29,1-1,1-2.38,0-4.76,0-7.15,0-.83,0-1.12-.37-1.11-1.18q0-3.57,0-7.14c0-.82.23-1.16,1.09-1.15,2.38,0,4.76.05,7.14,0,.87,0,1.12.33,1.09,1.14C221.37,130.51,221.41,131.7,221.41,132.9Z" transform="translate(-16.67 -21.57)"/>
  <path class="cls-1" d="M123.29,174.86v-1.63c0-3.07,0-3.07,3-3,1.63,0,3.27.08,4.9,0,1,0,1.43.25,1.4,1.34-.07,2.28-.05,4.56,0,6.83,0,.93-.2,1.33-1.22,1.3-2.33-.07-4.66,0-7,0-.85,0-1.14-.29-1.11-1.12,0-1.23,0-2.47,0-3.71Z" transform="translate(-16.67 -21.57)"/>
  <path class="cls-1" d="M123.29,146.84c0-1.19,0-2.37,0-3.56,0-.72.17-1.1,1-1.08,2.48,0,5,0,7.43,0,.64,0,.88.24.88.88q0,3.78,0,7.58c0,.7-.31,1-1,1-2.43,0-4.85,0-7.28,0-.77,0-1-.35-1-1.09C123.32,149.32,123.29,148.08,123.29,146.84Z" transform="translate(-16.67 -21.57)"/>
  <path class="cls-1" d="M212.12,146.63c.18-1.25-.7-3.2.32-4.16s2.84-.21,4.31-.26c1.19,0,2.38,0,3.57,0,.7,0,1.11.13,1.1,1,0,2.48,0,5,0,7.44,0,.79-.38,1-1.09,1-2.38,0-4.76,0-7.14,0-.86,0-1.11-.4-1.08-1.19C212.15,149.27,212.12,148.08,212.12,146.63Z" transform="translate(-16.67 -21.57)"/>
  <path class="cls-1" d="M221.4,174.91c0,1.24,0,2.48,0,3.72,0,.75-.22,1.07-1,1.06-2.43,0-4.85,0-7.28,0-.78,0-1-.28-1-1,0-2.48,0-5,0-7.43,0-.53,0-.94.77-.93,2.47,0,4.94,0,7.41,0,.82,0,1.16.25,1.12,1.11,0,1.18,0,2.37,0,3.56Z" transform="translate(-16.67 -21.57)"/>
  <path class="cls-1" d="M221.41,160.94v3.72c0,.5,0,1-.73,1-2.57-.11-5.14.22-7.71-.19-.72-.12-.87-.41-.86-1,0-2.38,0-4.77,0-7.15,0-.86.32-1.09,1.14-1.07,2.38,0,4.76,0,7.14,0,.77,0,1.07.24,1,1C221.38,158.46,221.41,159.7,221.41,160.94Z" transform="translate(-16.67 -21.57)"/>
  <path class="cls-7" d="M132.57,132.84c0,1.19,0,2.38,0,3.56,0,.74-.22,1.14-1,1.16a57.94,57.94,0,0,1-7.57-.07c-.7-.07-.76-.47-.76-1,0-2.43,0-4.86,0-7.29,0-.79.31-1,1.06-1q3.57,0,7.14,0c.82,0,1.16.24,1.11,1.1C132.52,130.46,132.57,131.65,132.57,132.84Z" transform="translate(-16.67 -21.57)"/>
  <path class="cls-1" d="M123.29,202.92c0-1.19,0-2.38,0-3.57,0-.73.13-1,1-1,2.37.09,4.75.11,7.13.08.89,0,1.22.28,1.2,1.2-.05,2.32,0,4.65,0,7,0,.79-.18,1.17-1.07,1.16q-3.57-.08-7.14,0c-.83,0-1.14-.26-1.11-1.11.06-1.23,0-2.47,0-3.71Z" transform="translate(-16.67 -21.57)"/>
  <path class="cls-9" d="M212.12,203.06c0-1.14.07-2.28,0-3.42s.4-1.29,1.28-1.28c2.33,0,4.66.06,7,.06.74,0,1.07.23,1,1,0,2.43,0,4.86,0,7.29,0,.65-.16,1-.91,1-2.48,0-5,0-7.44,0-.83,0-1-.41-1-1.11,0-1.19,0-2.38,0-3.57Z" transform="translate(-16.67 -21.57)"/>
  <path class="cls-1" d="M132.57,90.87c0,1.14,0,2.28,0,3.42,0,.78-.16,1.17-1.06,1.15-2.38,0-4.75,0-7.13,0-.84,0-1.13-.27-1.11-1.11q.06-3.56,0-7.13c0-.88.34-1.08,1.14-1.07q3.56,0,7.13,0c.77,0,1.06.26,1,1C132.54,88.39,132.57,89.63,132.57,90.87Z" transform="translate(-16.67 -21.57)"/>
  <path class="cls-9" d="M216.85,86.14c1.09,0,2.19,0,3.27,0,.92,0,1.35.17,1.32,1.21-.08,2.33-.05,4.66,0,7,0,.84-.28,1.14-1.12,1.12-2.37,0-4.76,0-7.14,0-.72,0-1.08-.17-1.07-1q.06-3.65,0-7.29c0-.78.25-1.06,1-1C214.37,86.17,215.61,86.14,216.85,86.14Z" transform="translate(-16.67 -21.57)"/>
  <path class="cls-7" d="M132.57,105.05c-.16,1.24.67,3.2-.34,4.15s-2.84.21-4.32.25c-1.18,0-2.37,0-3.56,0-.73,0-1.08-.2-1.07-1,0-2.43,0-4.86,0-7.28,0-.77.26-1.05,1-1,2.43,0,4.85,0,7.28,0,.81,0,1,.34,1,1.07C132.54,102.41,132.57,103.6,132.57,105.05Z" transform="translate(-16.67 -21.57)"/>
  <path class="cls-1" d="M221.41,105.15c-.18,1.23.66,3.12-.33,4s-2.75.2-4.18.25c-1.18,0-2.38,0-3.56,0-.84,0-1.26-.18-1.24-1.15.06-2.38,0-4.76,0-7.13,0-.77.24-1,1-1,2.43,0,4.85,0,7.28,0,.8,0,1,.32,1,1.06C221.39,102.45,221.41,103.69,221.41,105.15Z" transform="translate(-16.67 -21.57)"/>
  <path class="cls-7" d="M123.29,216.76c.18-1.24-.66-3.12.33-4.06s2.74-.21,4.17-.26c1.19,0,2.38,0,3.57,0,.84,0,1.26.17,1.23,1.14-.06,2.38,0,4.75,0,7.13,0,.75-.22,1.07-1,1.06q-3.63-.06-7.28,0c-.8,0-1-.32-1-1.06C123.32,219.46,123.29,218.22,123.29,216.76Z" transform="translate(-16.67 -21.57)"/>
  <path class="cls-1" d="M216.4,221.74c-1.21-.18-3.1.66-4-.32s-.2-2.75-.24-4.18c0-1.24,0-2.48,0-3.71,0-.87.31-1.12,1.13-1.1q3.57,0,7.14,0c.74,0,1.06.23,1.05,1q-.06,3.65,0,7.29c0,.8-.31,1-1.06,1C219.13,221.71,217.89,221.74,216.4,221.74Z" transform="translate(-16.67 -21.57)"/>
  <path class="cls-10" d="M159.7,143.24l24.11,10.35c-2,.89-3.76,1.67-5.5,2.41-5.74,2.47-11.49,4.9-17.22,7.4-1,.44-1.43.55-1.42-.84.06-5.9,0-11.81,0-17.72Z" transform="translate(-16.67 -21.57)"/>
</svg>
