<?xml version="1.0" encoding="utf-8"?>
<!-- Generator: Adobe Illustrator 25.0.0, SVG Export Plug-In . SVG Version: 6.00 Build 0)  -->
<svg version="1.1" id="Capa_1" xmlns="http://www.w3.org/2000/svg" xmlns:xlink="http://www.w3.org/1999/xlink" x="0px" y="0px"
	 viewBox="0 0 512 512" style="enable-background:new 0 0 512 512;" xml:space="preserve">
<style type="text/css">
	.st0{fill:#E0E0E0;}
</style>
<g>
	<g>
		<g>
			<path class="st0" d="M391,177c-11,0-20,9-20,20s9,20,20,20h21c11,0,20-9,20-20s-9-20-20-20H391z"/>
			<path class="st0" d="M492,327c11,0,20-9,20-20V177c0-44.1-35.9-80-80-80h-60.4c-8.6,0-16.2-5.4-18.9-13.6l-6.1-17.8
				C338.4,41.3,315.5,25,289.9,25H162.1c-25.2,0-47.9,15.9-56.4,39.6l-6.9,19.2C95.9,91.7,88.3,97,79.9,97c0,0-0.1,0-0.1,0
				C35.8,97.1,0,132.9,0,177v230c0,44.1,35.9,80,80,80h352c44.1,0,80-35.9,80-80c0-11-9-20-20-20s-20,9-20,20c0,22.1-17.9,40-40,40
				H80c-22.1,0-40-17.9-40-40V177c0-22.1,17.9-40,40-40c0,0,0.1,0,0.1,0c25.1-0.1,47.7-16,56.2-39.6l6.9-19.2
				c2.9-7.9,10.4-13.2,18.8-13.2h127.8c8.6,0,16.2,5.4,18.9,13.6l6.1,17.8c8.3,24.3,31.1,40.7,56.8,40.7H432c22.1,0,40,17.9,40,40
				v130C472,318,481,327,492,327z"/>
			<path class="st0" d="M222,157c-68.9,0-125,56.1-125,125s56.1,125,125,125s125-56.1,125-125S290.9,157,222,157z M222,367
				c-46.9,0-85-38.1-85-85s38.1-85,85-85s85,38.1,85,85S268.9,367,222,367z"/>
		</g>
	</g>
</g>
</svg>
