<?xml version="1.0" encoding="utf-8"?>
<!-- Generator: Adobe Illustrator 25.0.0, SVG Export Plug-In . SVG Version: 6.00 Build 0)  -->
<svg version="1.1" id="레이어_1" xmlns="http://www.w3.org/2000/svg" xmlns:xlink="http://www.w3.org/1999/xlink" x="0px"
	 y="0px" viewBox="0 0 183 93" style="enable-background:new 0 0 183 93;" xml:space="preserve">
<style type="text/css">
	.st0{enable-background:new    ;}
	.st1{fill:#C0C0C0;}
</style>
<g class="st0">
	<path class="st1" d="M29.8,10.8c-5.7,5.4-9.8,11.2-12.4,17.4c-2.6,6.2-3.9,12.1-3.9,17.8c0,3.7,0.7,6.5,2.2,8.7
		c1.5,2.1,3.4,3.2,5.9,3.2c5,0,10.1-4.3,15.5-13c5.4-8.7,8.1-16.7,8.1-24.2c0-2.2-0.4-4-1.1-5.3c-0.7-1.3-1.7-2-2.8-2
		c-2.2,0-4.2,1.6-6.1,4.9c-1.9,3.3-2.8,6.2-2.8,8.8c0,1.8,0.9,2.9,2.6,3.1c0.7,0.1,1.1,0.4,1.1,1c0,1.1-0.6,2.2-1.7,3.3
		c-1.1,1.1-2.3,1.6-3.5,1.6c-1.5,0-2.8-0.7-3.8-2c-1-1.4-1.5-3.1-1.5-5.1c0-4.3,1.6-8.5,4.9-12.6c3.3-4.1,6.6-6.1,10-6.1
		c2.3,0,4.2,0.9,5.5,2.8c1.4,1.8,2,4.4,2,7.6c0,6.2-1.7,12.9-5.2,19.9c-3.5,7-7.8,12.8-13,17.4c-5.2,4.5-10.1,6.8-14.7,6.8
		c-3.6,0-6.5-1.5-8.8-4.5s-3.5-6.9-3.5-11.6c0-5,1-10.1,3-15.3c2-5.2,4.6-9.8,7.9-13.8s5.8-6.6,7.7-7.6c1.9-1,4.7-1.6,8.4-1.6V10.8z
		"/>
	<path class="st1" d="M83.5,55.5c-1.3,1.1-2.5,1.9-3.7,2.4c-1.2,0.5-2.2,0.7-2.9,0.7c-1.8,0-3.6-0.7-5.4-2.1
		c-3.6,5.5-7.7,8.2-12.4,8.2c-2.9,0-5.3-1.1-7.1-3.3s-2.7-5.1-2.7-8.7c0-5.7,2-10.6,6.1-14.7c4.1-4.1,8.9-6.1,14.6-6.1
		c2.1,0,3.7,0.2,4.7,0.7c1,0.5,1.6,1,1.8,1.6c0.2,0.6,0.3,1.4,0.3,2.4c0,4.7-1.3,10.4-3.8,17.3c1.3,1.2,2.6,1.8,4,1.8
		c1.7,0,3.8-1.5,6.5-4.4V55.5z M71.1,34.4c-0.4-0.2-0.9-0.2-1.6-0.2c-3.3,0-5.8,1.7-7.7,5.1c-1.8,3.4-2.8,7.4-2.8,12
		c0,2.5,0.4,4.5,1.2,5.9c0.8,1.4,1.9,2.1,3.3,2.1c1.8,0,3.7-1.6,5.8-4.9c-2.4-3-3.5-6.1-3.5-9.5C65.8,40.8,67.6,37.4,71.1,34.4z"/>
	<path class="st1" d="M101.4,38.3c1.8-2.2,3.5-3.8,5.1-4.8c1.6-1,3.4-1.6,5.3-1.6c2.5,0,4.6,1,6.2,2.9c1.6,1.9,2.4,4.5,2.4,7.7
		c0,5.5-1.9,10.6-5.7,15.2c-3.8,4.6-8,6.9-12.5,6.9c-1.3,0-2.2-0.1-3-0.4c-0.7-0.3-1.7-0.9-2.9-1.9c-1.8,7.9-3,14.3-3.5,19.1
		l-9.5,1.7c1.8-11.7,4-23.6,6.8-35.6c-3.3,4.3-5.5,7-6.7,8h-0.9v-3.4c4.8-5.1,8.7-11.4,11.8-18.7l8.5-1.5L101.4,38.3z M97.1,58.4
		c1.3,2.2,2.7,3.2,4.3,3.2c2.5,0,4.8-1.9,6.7-5.8s2.9-7.6,2.9-11.3c0-1.9-0.4-3.5-1.2-4.7s-1.8-1.8-3.1-1.8c-1,0-2,0.4-3.1,1.3
		s-1.9,1.9-2.4,3.1c-0.6,1.2-1.2,3.2-1.9,6.1L97.1,58.4z"/>
	<path class="st1" d="M138.4,33.4c1.7-0.5,3.5-0.8,5.2-1.1c1.8-0.3,2.8-0.4,3.2-0.4c0.2,0,0.4,0.1,0.4,0.3c0,0.4-0.1,0.8-0.3,1.2
		c-0.4,1.2-0.6,2.3-0.6,3.3c0,1.3,0.8,3.1,2.3,5.3c1.5,2.3,2.3,4.4,2.3,6.3c0,3.8-1.8,7.5-5.5,11.1c-3.7,3.6-7.5,5.3-11.4,5.3
		c-1.7,0-3.3-0.5-4.7-1.4c-1.4-0.9-2.1-1.9-2.1-2.9c0-0.6,0.7-1.7,2.1-3.4c1.4-1.7,2.4-2.5,3-2.5c0.8,0,1.5,1,2.1,3.1
		c0.6,2.1,1.7,3.1,3.2,3.1s3-0.7,4.3-2.1c1.3-1.4,2-2.9,2-4.6c0-1.6-0.8-3.7-2.6-6.3c-1.7-2.6-2.8-4.8-3.4-6.6
		c-2.9,4.7-6.6,9.5-11.1,14.4H126v-3.4C132.1,45.5,136.2,39.3,138.4,33.4z"/>
	<path class="st1" d="M172.5,55.8c0.2,0,0.2,0.1,0.2,0.4c0,0.2-0.4,1.3-1.2,3.2s-1.6,3.3-2.4,4c-0.9,0.8-2,1.2-3.6,1.2
		c-1.5,0-2.9-0.4-4.4-1.1c-1.5-0.7-2.2-1.2-2.2-1.5c0-0.1,0.1-0.3,0.4-0.8c1.3-1.7,2.3-4,3-6.9c0.1-0.6,0.2-0.9,0.4-0.9
		c0.3,0,0.6,0.2,1,0.7c1.7,1.6,3.4,2.4,5.3,2.4c0.8,0,1.6-0.1,2.3-0.4C172,55.9,172.4,55.8,172.5,55.8z M168.9,49.3
		c-1.5-2.4-2.2-4.9-2.2-7.6c0-2.2,0.7-5.1,2-8.5c1.4-3.5,2.2-6.1,2.7-7.7c0.4-1.7,0.6-3.5,0.6-5.4c0-1.6-0.1-2.9-0.3-4
		c-0.2-1.1-0.3-1.7-0.3-1.9c0-0.5,1.3-1.2,3.9-2.3c2.6-1.1,4.1-1.6,4.5-1.6c0.5,0,0.9,0.7,1.4,2.2s0.6,3.1,0.6,5
		c0,2.5-0.5,5.1-1.4,7.7s-2.4,5.6-4.6,8.9c-2.2,3.3-3.6,5.8-4.3,7.4c-0.7,1.6-1.1,3.1-1.1,4.5c0,0.1,0,0.5,0.2,1.2
		c0.1,0.7,0.2,1.1,0.2,1.2C170.5,48.7,170,49,168.9,49.3z"/>
</g>
</svg>
